<svg width="119" height="118" viewBox="0 0 119 118" fill="none" xmlns="http://www.w3.org/2000/svg">
<path d="M55.3983 104.544L53.2436 117.456L51.2954 117.131L53.1703 105.896L47.3193 104.92L47.5992 103.242L55.3983 104.544Z" fill="#1E293B"/>
<path d="M30.8396 110.185L37.0702 98.6719L38.8073 99.612L32.5767 111.125L30.8396 110.185Z" fill="#1E293B"/>
<path d="M29.5575 93.6616L19.9262 102.528L18.5884 101.075L22.7739 97.2217L18.3538 92.4201L14.1683 96.2731L12.8263 94.8153L22.4576 85.9491L23.7996 87.4069L19.6 91.2729L24.0202 96.0744L28.2197 92.2085L29.5575 93.6616Z" fill="#1E293B"/>
<path d="M19.4274 80.7188L20.2696 82.6388L6.38895 83.5832L5.4723 81.4935L15.5682 71.9208L16.4104 73.8408L8.08637 81.5334L8.12745 81.6271L19.4274 80.7188ZM14.5916 82.4561L11.8596 76.2278L13.3815 75.5602L16.1135 81.7885L14.5916 82.4561Z" fill="#1E293B"/>
<path d="M3.42066 69.0349L1.72618 69.1753L0.88954 59.0785L2.58402 58.9381L2.92131 63.0087L14.273 62.0681L14.4356 64.0301L3.08389 64.9707L3.42066 69.0349Z" fill="#1E293B"/>
<path d="M15.0187 26.9121C14.4748 26.6382 13.9286 26.6172 13.3799 26.8493C12.8277 27.079 12.3465 27.5078 11.9363 28.1356C11.6427 28.5851 11.46 29.0206 11.3882 29.442C11.3129 29.8611 11.3389 30.2421 11.4662 30.5848C11.5923 30.9217 11.8105 31.1915 12.1208 31.3943C12.3813 31.5644 12.6456 31.6506 12.914 31.6529C13.1846 31.6515 13.4494 31.5929 13.7084 31.4771C13.9661 31.3553 14.2135 31.2064 14.4506 31.0305C14.6842 30.8522 14.8976 30.6735 15.091 30.4944L16.0685 29.606C16.3825 29.3123 16.7327 29.0295 17.119 28.7577C17.5053 28.4858 17.9206 28.2709 18.3647 28.1132C18.8088 27.9554 19.2704 27.8955 19.7494 27.9336C20.2308 27.9682 20.7177 28.1463 21.21 28.4679C21.8307 28.8735 22.277 29.3941 22.5488 30.0298C22.823 30.662 22.9011 31.3722 22.7832 32.1604C22.6675 32.9452 22.33 33.7656 21.7706 34.6218C21.2346 35.4423 20.6405 36.0672 19.9885 36.4964C19.3366 36.9255 18.6608 37.1534 17.9614 37.18C17.2583 37.2043 16.5652 37.0187 15.8819 36.6231L16.9657 34.9643C17.3826 35.1909 17.7965 35.278 18.2074 35.2258C18.617 35.1676 19.0014 35.0039 19.3605 34.7346C19.7185 34.4594 20.0361 34.1096 20.3135 33.685C20.6188 33.2177 20.8172 32.7543 20.9087 32.2949C20.9989 31.8295 20.9808 31.4054 20.8543 31.0224C20.7242 30.6371 20.4808 30.328 20.1241 30.0949C19.7995 29.8828 19.4731 29.8019 19.145 29.8522C18.8192 29.899 18.486 30.035 18.1453 30.2604C17.807 30.4822 17.4579 30.7555 17.098 31.0804L15.8988 32.1446C15.0864 32.8661 14.2805 33.3321 13.4811 33.5428C12.6841 33.75 11.9038 33.6042 11.1404 33.1054C10.5089 32.6929 10.0696 32.1615 9.82246 31.5114C9.57531 30.8613 9.51264 30.1586 9.63446 29.4034C9.75271 28.6458 10.0519 27.8996 10.532 27.1647C11.0168 26.4227 11.5747 25.8531 12.2057 25.456C12.8391 25.0554 13.4913 24.8401 14.1624 24.8103C14.8299 24.7781 15.4626 24.9471 16.0605 25.3174L15.0187 26.9121Z" fill="#1E293B"/>
<path d="M28.5311 25.9995L20.4905 15.669L26.9672 10.6279L28.0116 11.9697L23.0935 15.7976L25.5433 18.9452L30.1235 15.3803L31.1639 16.717L26.5837 20.2819L29.0454 23.4446L34.024 19.5696L35.0684 20.9113L28.5311 25.9995Z" fill="#1E293B"/>
<path d="M41.5747 17.5588L37.3241 5.17724L39.1922 4.53591L42.8908 15.3094L48.5012 13.3833L49.0533 14.9915L41.5747 17.5588Z" fill="#1E293B"/>
<path d="M55.2366 14V0.909091L63.444 0.909091V2.60938L57.2117 2.60938V6.59801L63.0157 6.59801V8.2919L57.2117 8.2919V12.2997L63.5207 12.2997V14L55.2366 14Z" fill="#1E293B"/>
<path d="M83.682 5.86578L79.4314 18.2474L77.7144 17.658L74.5383 6.41671L74.4234 6.37728L71.306 15.4579L69.4379 14.8166L73.6885 2.43499L75.4176 3.02858L78.5956 14.284L78.7105 14.3234L81.8321 5.23068L83.682 5.86578Z" fill="#1E293B"/>
<path d="M95.8211 18.8176C95.9618 18.4356 96.0439 18.0595 96.0676 17.6891C96.0973 17.318 96.0662 16.959 95.9744 16.6121C95.8852 16.2619 95.7313 15.9288 95.5128 15.613C95.2976 15.2997 95.0185 15.0096 94.6755 14.7426C94.0937 14.2898 93.4527 14.0311 92.7523 13.9666C92.0519 13.9021 91.3404 14.053 90.6178 14.4194C89.9012 14.785 89.2184 15.3849 88.5693 16.2188C87.9176 17.0562 87.5028 17.87 87.325 18.6605C87.1472 19.4509 87.1789 20.1803 87.4201 20.8486C87.6613 21.5169 88.0846 22.0867 88.6899 22.5578C89.2515 22.9949 89.8297 23.2614 90.4247 23.3573C91.023 23.4558 91.5988 23.3855 92.1521 23.1465C92.7113 22.9068 93.212 22.5027 93.6544 21.9344L93.999 22.3242L91.0431 20.0235L92.0443 18.7372L96.1049 21.8977L95.1901 23.073C94.5148 23.9406 93.7435 24.5499 92.8763 24.9009C92.0151 25.2512 91.1252 25.347 90.2066 25.1882C89.2913 25.032 88.4167 24.6294 87.5827 23.9803C86.6479 23.2526 85.9948 22.3988 85.6237 21.4187C85.2559 20.4412 85.1828 19.4042 85.4044 18.3077C85.6287 17.2079 86.1648 16.1132 87.0129 15.0236C87.6541 14.1997 88.3443 13.5489 89.0833 13.0711C89.8224 12.5934 90.5767 12.2868 91.3463 12.1514C92.1219 12.0152 92.8847 12.0446 93.6347 12.2396C94.3908 12.4339 95.1034 12.7914 95.7726 13.3123C96.3308 13.7467 96.7862 14.2335 97.1388 14.7726C97.4948 15.3143 97.7434 15.883 97.8844 16.4788C98.0289 17.0772 98.0632 17.6818 97.9875 18.2924C97.9144 18.8998 97.7253 19.4897 97.4201 20.0621L95.8211 18.8176Z" fill="#1E293B"/>
<path d="M94.9425 30.7244L105.902 23.5644L106.982 25.2179L101.749 28.6371L101.836 28.7709L110.073 29.9484L111.433 32.03L103.611 30.8333L100.484 39.2061L99.1833 37.2154L101.765 30.474L99.4316 30.1509L96.0228 32.3779L94.9425 30.7244Z" fill="#1E293B"/>
<path d="M102.551 44.7711L102.036 42.7386L115.883 44.0918L116.443 46.3039L104.91 54.0843L104.395 52.0519L113.872 45.8342L113.847 45.7351L102.551 44.7711ZM107.607 43.8534L109.277 50.4464L107.666 50.8544L105.996 44.2614L107.607 43.8534Z" fill="#1E293B"/>
<path d="M105.003 58.738L118.049 59.819L117.664 64.4693C117.58 65.4843 117.325 66.3098 116.901 66.946C116.476 67.5821 115.929 68.0392 115.26 68.3173C114.596 68.5958 113.865 68.702 113.066 68.6358C112.264 68.5693 111.555 68.3417 110.942 67.9531C110.332 67.5691 109.869 67.0261 109.55 66.3241C109.236 65.6267 109.121 64.7727 109.205 63.7619L109.47 60.5641L111.139 60.7024L110.889 63.7219C110.835 64.3631 110.903 64.8925 111.09 65.31C111.282 65.7279 111.564 66.0462 111.935 66.2651C112.306 66.484 112.738 66.6139 113.23 66.6547C113.723 66.6955 114.168 66.6383 114.566 66.4831C114.964 66.3279 115.287 66.0576 115.537 65.6721C115.787 65.2908 115.939 64.7732 115.993 64.1192L116.198 61.6476L104.84 60.7064L105.003 58.738Z" fill="#1E293B"/>
<path d="M110.756 87.8133L98.7674 82.5547L99.4966 80.8923L110.962 78.6552L111.01 78.544L102.218 74.6874L103.012 72.8786L115 78.1371L114.266 79.8113L102.786 82.0491L102.737 82.1603L111.541 86.022L110.756 87.8133Z" fill="#1E293B"/>
<path d="M106.343 94.631L104.823 96.2817L98.129 94.7672L98.0337 94.8706L100.096 101.417L98.5763 103.068L95.9427 94.1881L92.1616 90.7074L93.495 89.2589L97.2761 92.7396L106.343 94.631Z" fill="#1E293B"/>
<path d="M84.1541 97.4682L85.9979 96.4704L88.0854 110.226L86.0785 111.312L75.7047 102.041L77.5486 101.043L85.9024 108.703L85.9924 108.655L84.1541 97.4682ZM86.2848 102.144L80.3033 105.381L79.5124 103.919L85.4938 100.682L86.2848 102.144Z" fill="#1E293B"/>
</svg>
