<svg width="622" height="249" viewBox="0 0 622 249" fill="none" xmlns="http://www.w3.org/2000/svg">
<path d="M12.624 91V1.39999H56.4C67.664 1.39999 76.112 3.53333 81.744 7.8C87.4613 12.0667 90.32 17.6987 90.32 24.696C90.32 29.3893 89.168 33.4853 86.864 36.984C84.56 40.3973 81.4027 43.0427 77.392 44.92C73.3813 46.7973 68.7733 47.736 63.568 47.736L66 42.488C71.632 42.488 76.624 43.4267 80.976 45.304C85.328 47.096 88.6987 49.784 91.088 53.368C93.5627 56.952 94.8 61.3467 94.8 66.552C94.8 74.232 91.7707 80.248 85.712 84.6C79.6533 88.8667 70.736 91 58.96 91H12.624ZM33.232 75.384H57.424C62.8 75.384 66.8533 74.5307 69.584 72.824C72.4 71.032 73.808 68.216 73.808 64.376C73.808 60.6213 72.4 57.848 69.584 56.056C66.8533 54.1787 62.8 53.24 57.424 53.24H31.696V38.136H53.84C58.8747 38.136 62.7147 37.2827 65.36 35.576C68.0907 33.784 69.456 31.096 69.456 27.512C69.456 24.0133 68.0907 21.4107 65.36 19.704C62.7147 17.912 58.8747 17.016 53.84 17.016H33.232V75.384ZM129.571 37.496H172.707V53.624H129.571V37.496ZM131.107 74.36H179.875V91H110.499V1.39999H178.211V18.04H131.107V74.36ZM196.374 91V1.39999H235.158C243.179 1.39999 250.091 2.72266 255.894 5.368C261.697 7.92799 266.177 11.64 269.334 16.504C272.491 21.368 274.07 27.1707 274.07 33.912C274.07 40.568 272.491 46.328 269.334 51.192C266.177 55.9707 261.697 59.64 255.894 62.2C250.091 64.76 243.179 66.04 235.158 66.04H207.894L217.11 56.952V91H196.374ZM253.334 91L230.934 58.488H253.078L275.734 91H253.334ZM217.11 59.256L207.894 49.528H234.006C240.406 49.528 245.185 48.1627 248.342 45.432C251.499 42.616 253.078 38.776 253.078 33.912C253.078 28.9627 251.499 25.1227 248.342 22.392C245.185 19.6613 240.406 18.296 234.006 18.296H207.894L217.11 8.43999V59.256ZM290.499 91V1.39999H311.235V91H290.499ZM351.059 91V18.296H322.387V1.39999H400.467V18.296H371.795V91H351.059ZM395.348 91L435.284 1.39999H455.764L495.828 91H474.068L441.3 11.896H449.492L416.596 91H395.348ZM415.316 71.8L420.82 56.056H466.9L472.532 71.8H415.316ZM569.534 92.536C562.963 92.536 557.118 91.4693 551.998 89.336C546.878 87.2027 542.825 84.3013 539.838 80.632C536.851 76.9627 535.358 72.7387 535.358 67.96C535.358 63.5227 536.339 59.5547 538.302 56.056C540.265 52.472 543.379 49.144 547.646 46.072C551.913 42.9147 557.331 39.8427 563.902 36.856C568.681 34.6373 572.435 32.6747 575.166 30.968C577.897 29.2613 579.817 27.64 580.926 26.104C582.035 24.4827 582.59 22.8613 582.59 21.24C582.59 19.0213 581.822 17.2293 580.286 15.864C578.835 14.4987 576.659 13.816 573.758 13.816C570.686 13.816 568.297 14.584 566.59 16.12C564.883 17.656 564.03 19.6187 564.03 22.008C564.03 23.288 564.286 24.568 564.798 25.848C565.31 27.0427 566.291 28.4507 567.742 30.072C569.193 31.608 571.241 33.6133 573.886 36.088L621.118 79.864L610.238 92.536L558.142 44.152C555.155 41.4213 552.766 38.8613 550.974 36.472C549.182 34.0827 547.859 31.736 547.006 29.432C546.238 27.128 545.854 24.7387 545.854 22.264C545.854 17.912 547.006 14.072 549.31 10.744C551.614 7.416 554.857 4.856 559.038 3.064C563.219 1.18666 568.126 0.247993 573.758 0.247993C578.963 0.247993 583.443 1.10133 587.198 2.808C591.038 4.42933 594.025 6.776 596.158 9.848C598.377 12.92 599.486 16.5893 599.486 20.856C599.486 24.6107 598.547 28.0667 596.67 31.224C594.793 34.296 591.849 37.1973 587.838 39.928C583.913 42.6587 578.75 45.432 572.35 48.248C567.998 50.2107 564.542 52.1307 561.982 54.008C559.507 55.8 557.715 57.6347 556.606 59.512C555.497 61.3893 554.942 63.48 554.942 65.784C554.942 67.9173 555.582 69.8373 556.862 71.544C558.227 73.2507 560.105 74.5733 562.494 75.512C564.883 76.4507 567.699 76.92 570.942 76.92C576.147 76.92 580.926 75.7253 585.278 73.336C589.63 70.8613 593.299 67.2347 596.286 62.456C599.358 57.592 601.534 51.704 602.814 44.792L618.814 49.784C617.022 58.488 613.822 66.04 609.214 72.44C604.606 78.84 598.931 83.7893 592.19 87.288C585.449 90.7867 577.897 92.536 569.534 92.536ZM0.848 247L40.784 157.4H61.264L101.328 247H79.568L46.8 167.896H54.992L22.096 247H0.848ZM20.816 227.8L26.32 212.056H72.4L78.032 227.8H20.816ZM152.638 248.536C145.555 248.536 139.027 247.427 133.054 245.208C127.166 242.904 122.003 239.661 117.566 235.48C113.214 231.299 109.801 226.392 107.326 220.76C104.937 215.128 103.742 208.941 103.742 202.2C103.742 195.459 104.937 189.272 107.326 183.64C109.801 178.008 113.257 173.101 117.694 168.92C122.131 164.739 127.337 161.539 133.31 159.32C139.283 157.016 145.854 155.864 153.022 155.864C160.958 155.864 168.083 157.187 174.398 159.832C180.798 162.477 186.174 166.317 190.526 171.352L177.214 183.64C173.971 180.227 170.43 177.709 166.59 176.088C162.75 174.381 158.569 173.528 154.046 173.528C149.694 173.528 145.726 174.211 142.142 175.576C138.558 176.941 135.443 178.904 132.798 181.464C130.238 184.024 128.233 187.053 126.782 190.552C125.417 194.051 124.734 197.933 124.734 202.2C124.734 206.381 125.417 210.221 126.782 213.72C128.233 217.219 130.238 220.291 132.798 222.936C135.443 225.496 138.515 227.459 142.014 228.824C145.598 230.189 149.523 230.872 153.79 230.872C157.886 230.872 161.854 230.232 165.694 228.952C169.619 227.587 173.417 225.325 177.086 222.168L188.862 237.144C183.998 240.813 178.323 243.629 171.838 245.592C165.438 247.555 159.038 248.536 152.638 248.536ZM169.918 234.456V200.792H188.862V237.144L169.918 234.456ZM227.196 193.496H270.332V209.624H227.196V193.496ZM228.732 230.36H277.5V247H208.124V157.4H275.836V174.04H228.732V230.36ZM293.999 247V157.4H311.151L364.015 221.912H355.695V157.4H376.175V247H359.151L306.159 182.488H314.479V247H293.999ZM397.374 247V157.4H438.078C447.806 157.4 456.382 159.277 463.806 163.032C471.23 166.701 477.033 171.864 481.214 178.52C485.395 185.176 487.486 193.069 487.486 202.2C487.486 211.245 485.395 219.139 481.214 225.88C477.033 232.536 471.23 237.741 463.806 241.496C456.382 245.165 447.806 247 438.078 247H397.374ZM418.11 229.976H437.054C443.027 229.976 448.19 228.867 452.542 226.648C456.979 224.344 460.393 221.101 462.782 216.92C465.257 212.739 466.494 207.832 466.494 202.2C466.494 196.483 465.257 191.576 462.782 187.48C460.393 183.299 456.979 180.099 452.542 177.88C448.19 175.576 443.027 174.424 437.054 174.424H418.11V229.976ZM490.098 247L530.034 157.4H550.514L590.578 247H568.818L536.05 167.896H544.242L511.346 247H490.098ZM510.066 227.8L515.57 212.056H561.65L567.282 227.8H510.066Z" fill="#E2E8F0"/>
</svg>
