<svg width="622" height="249" viewBox="0 0 622 249" fill="none" xmlns="http://www.w3.org/2000/svg">
<mask id="path-1-outside-1_197_1368" maskUnits="userSpaceOnUse" x="-3" y="-2" width="627" height="253" fill="black">
<rect fill="white" x="-3" y="-2" width="627" height="253"/>
<path d="M12.624 91V1.39999H56.4C67.664 1.39999 76.112 3.53333 81.744 7.8C87.4613 12.0667 90.32 17.6987 90.32 24.696C90.32 29.3893 89.168 33.4853 86.864 36.984C84.56 40.3973 81.4027 43.0427 77.392 44.92C73.3813 46.7973 68.7733 47.736 63.568 47.736L66 42.488C71.632 42.488 76.624 43.4267 80.976 45.304C85.328 47.096 88.6987 49.784 91.088 53.368C93.5627 56.952 94.8 61.3467 94.8 66.552C94.8 74.232 91.7707 80.248 85.712 84.6C79.6533 88.8667 70.736 91 58.96 91H12.624ZM33.232 75.384H57.424C62.8 75.384 66.8533 74.5307 69.584 72.824C72.4 71.032 73.808 68.216 73.808 64.376C73.808 60.6213 72.4 57.848 69.584 56.056C66.8533 54.1787 62.8 53.24 57.424 53.24H31.696V38.136H53.84C58.8747 38.136 62.7147 37.2827 65.36 35.576C68.0907 33.784 69.456 31.096 69.456 27.512C69.456 24.0133 68.0907 21.4107 65.36 19.704C62.7147 17.912 58.8747 17.016 53.84 17.016H33.232V75.384ZM129.571 37.496H172.707V53.624H129.571V37.496ZM131.107 74.36H179.875V91H110.499V1.39999H178.211V18.04H131.107V74.36ZM196.374 91V1.39999H235.158C243.179 1.39999 250.091 2.72266 255.894 5.368C261.697 7.92799 266.177 11.64 269.334 16.504C272.491 21.368 274.07 27.1707 274.07 33.912C274.07 40.568 272.491 46.328 269.334 51.192C266.177 55.9707 261.697 59.64 255.894 62.2C250.091 64.76 243.179 66.04 235.158 66.04H207.894L217.11 56.952V91H196.374ZM253.334 91L230.934 58.488H253.078L275.734 91H253.334ZM217.11 59.256L207.894 49.528H234.006C240.406 49.528 245.185 48.1627 248.342 45.432C251.499 42.616 253.078 38.776 253.078 33.912C253.078 28.9627 251.499 25.1227 248.342 22.392C245.185 19.6613 240.406 18.296 234.006 18.296H207.894L217.11 8.43999V59.256ZM290.499 91V1.39999H311.235V91H290.499ZM351.059 91V18.296H322.387V1.39999H400.467V18.296H371.795V91H351.059ZM395.348 91L435.284 1.39999H455.764L495.828 91H474.068L441.3 11.896H449.492L416.596 91H395.348ZM415.316 71.8L420.82 56.056H466.9L472.532 71.8H415.316ZM569.534 92.536C562.963 92.536 557.118 91.4693 551.998 89.336C546.878 87.2027 542.825 84.3013 539.838 80.632C536.851 76.9627 535.358 72.7387 535.358 67.96C535.358 63.5227 536.339 59.5547 538.302 56.056C540.265 52.472 543.379 49.144 547.646 46.072C551.913 42.9147 557.331 39.8427 563.902 36.856C568.681 34.6373 572.435 32.6747 575.166 30.968C577.897 29.2613 579.817 27.64 580.926 26.104C582.035 24.4827 582.59 22.8613 582.59 21.24C582.59 19.0213 581.822 17.2293 580.286 15.864C578.835 14.4987 576.659 13.816 573.758 13.816C570.686 13.816 568.297 14.584 566.59 16.12C564.883 17.656 564.03 19.6187 564.03 22.008C564.03 23.288 564.286 24.568 564.798 25.848C565.31 27.0427 566.291 28.4507 567.742 30.072C569.193 31.608 571.241 33.6133 573.886 36.088L621.118 79.864L610.238 92.536L558.142 44.152C555.155 41.4213 552.766 38.8613 550.974 36.472C549.182 34.0827 547.859 31.736 547.006 29.432C546.238 27.128 545.854 24.7387 545.854 22.264C545.854 17.912 547.006 14.072 549.31 10.744C551.614 7.416 554.857 4.856 559.038 3.064C563.219 1.18666 568.126 0.247993 573.758 0.247993C578.963 0.247993 583.443 1.10133 587.198 2.808C591.038 4.42933 594.025 6.776 596.158 9.848C598.377 12.92 599.486 16.5893 599.486 20.856C599.486 24.6107 598.547 28.0667 596.67 31.224C594.793 34.296 591.849 37.1973 587.838 39.928C583.913 42.6587 578.75 45.432 572.35 48.248C567.998 50.2107 564.542 52.1307 561.982 54.008C559.507 55.8 557.715 57.6347 556.606 59.512C555.497 61.3893 554.942 63.48 554.942 65.784C554.942 67.9173 555.582 69.8373 556.862 71.544C558.227 73.2507 560.105 74.5733 562.494 75.512C564.883 76.4507 567.699 76.92 570.942 76.92C576.147 76.92 580.926 75.7253 585.278 73.336C589.63 70.8613 593.299 67.2347 596.286 62.456C599.358 57.592 601.534 51.704 602.814 44.792L618.814 49.784C617.022 58.488 613.822 66.04 609.214 72.44C604.606 78.84 598.931 83.7893 592.19 87.288C585.449 90.7867 577.897 92.536 569.534 92.536ZM0.848 247L40.784 157.4H61.264L101.328 247H79.568L46.8 167.896H54.992L22.096 247H0.848ZM20.816 227.8L26.32 212.056H72.4L78.032 227.8H20.816ZM152.638 248.536C145.555 248.536 139.027 247.427 133.054 245.208C127.166 242.904 122.003 239.661 117.566 235.48C113.214 231.299 109.801 226.392 107.326 220.76C104.937 215.128 103.742 208.941 103.742 202.2C103.742 195.459 104.937 189.272 107.326 183.64C109.801 178.008 113.257 173.101 117.694 168.92C122.131 164.739 127.337 161.539 133.31 159.32C139.283 157.016 145.854 155.864 153.022 155.864C160.958 155.864 168.083 157.187 174.398 159.832C180.798 162.477 186.174 166.317 190.526 171.352L177.214 183.64C173.971 180.227 170.43 177.709 166.59 176.088C162.75 174.381 158.569 173.528 154.046 173.528C149.694 173.528 145.726 174.211 142.142 175.576C138.558 176.941 135.443 178.904 132.798 181.464C130.238 184.024 128.233 187.053 126.782 190.552C125.417 194.051 124.734 197.933 124.734 202.2C124.734 206.381 125.417 210.221 126.782 213.72C128.233 217.219 130.238 220.291 132.798 222.936C135.443 225.496 138.515 227.459 142.014 228.824C145.598 230.189 149.523 230.872 153.79 230.872C157.886 230.872 161.854 230.232 165.694 228.952C169.619 227.587 173.417 225.325 177.086 222.168L188.862 237.144C183.998 240.813 178.323 243.629 171.838 245.592C165.438 247.555 159.038 248.536 152.638 248.536ZM169.918 234.456V200.792H188.862V237.144L169.918 234.456ZM227.196 193.496H270.332V209.624H227.196V193.496ZM228.732 230.36H277.5V247H208.124V157.4H275.836V174.04H228.732V230.36ZM293.999 247V157.4H311.151L364.015 221.912H355.695V157.4H376.175V247H359.151L306.159 182.488H314.479V247H293.999ZM397.374 247V157.4H438.078C447.806 157.4 456.382 159.277 463.806 163.032C471.23 166.701 477.033 171.864 481.214 178.52C485.395 185.176 487.486 193.069 487.486 202.2C487.486 211.245 485.395 219.139 481.214 225.88C477.033 232.536 471.23 237.741 463.806 241.496C456.382 245.165 447.806 247 438.078 247H397.374ZM418.11 229.976H437.054C443.027 229.976 448.19 228.867 452.542 226.648C456.979 224.344 460.393 221.101 462.782 216.92C465.257 212.739 466.494 207.832 466.494 202.2C466.494 196.483 465.257 191.576 462.782 187.48C460.393 183.299 456.979 180.099 452.542 177.88C448.19 175.576 443.027 174.424 437.054 174.424H418.11V229.976ZM490.098 247L530.034 157.4H550.514L590.578 247H568.818L536.05 167.896H544.242L511.346 247H490.098ZM510.066 227.8L515.57 212.056H561.65L567.282 227.8H510.066Z"/>
</mask>
<path d="M12.624 91H10.624V93H12.624V91ZM12.624 1.39999V-0.600006H10.624V1.39999H12.624ZM81.744 7.8L80.5363 9.39418L80.542 9.39854L80.5478 9.40286L81.744 7.8ZM86.864 36.984L88.5217 38.1029L88.5281 38.0935L88.5343 38.084L86.864 36.984ZM77.392 44.92L78.2399 46.7314L77.392 44.92ZM63.568 47.736L61.7534 46.8951L60.4369 49.736H63.568V47.736ZM66 42.488V40.488H64.7225L64.1854 41.6471L66 42.488ZM80.976 45.304L80.1838 47.1404L80.1991 47.147L80.2145 47.1534L80.976 45.304ZM91.088 53.368L89.4239 54.4774L89.4329 54.491L89.4422 54.5044L91.088 53.368ZM85.712 84.6L86.8636 86.2352L86.8712 86.2298L86.8788 86.2244L85.712 84.6ZM33.232 75.384H31.232V77.384H33.232V75.384ZM69.584 72.824L70.644 74.52L70.6509 74.5157L70.6578 74.5113L69.584 72.824ZM69.584 56.056L68.4509 57.7041L68.4802 57.7242L68.5102 57.7433L69.584 56.056ZM31.696 53.24H29.696V55.24H31.696V53.24ZM31.696 38.136V36.136H29.696V38.136H31.696ZM65.36 35.576L66.4443 37.2566L66.4508 37.2524L66.4573 37.2481L65.36 35.576ZM65.36 19.704L64.2383 21.3598L64.2688 21.3805L64.3 21.4L65.36 19.704ZM33.232 17.016V15.016H31.232V17.016H33.232ZM14.624 91V1.39999H10.624V91H14.624ZM12.624 3.39999H56.4V-0.600006H12.624V3.39999ZM56.4 3.39999C67.4685 3.39999 75.4043 5.50627 80.5363 9.39418L82.9517 6.20581C76.8198 1.56038 67.8595 -0.600006 56.4 -0.600006V3.39999ZM80.5478 9.40286C85.771 13.3007 88.32 18.3442 88.32 24.696H92.32C92.32 17.0531 89.1517 10.8326 82.9402 6.19713L80.5478 9.40286ZM88.32 24.696C88.32 29.047 87.2573 32.7503 85.1937 35.884L88.5343 38.084C91.0787 34.2203 92.32 29.7316 92.32 24.696H88.32ZM85.2063 35.8651C83.1199 38.956 80.2528 41.3726 76.5441 43.1086L78.2399 46.7314C82.5526 44.7127 86.0001 41.8386 88.5217 38.1029L85.2063 35.8651ZM76.5441 43.1086C72.8415 44.8418 68.5313 45.736 63.568 45.736V49.736C69.0154 49.736 73.9212 48.7529 78.2399 46.7314L76.5441 43.1086ZM65.3826 48.5769L67.8146 43.3289L64.1854 41.6471L61.7534 46.8951L65.3826 48.5769ZM66 44.488C71.41 44.488 76.1245 45.3893 80.1838 47.1404L81.7682 43.4676C77.1235 41.464 71.854 40.488 66 40.488V44.488ZM80.2145 47.1534C84.2343 48.8086 87.2756 51.2549 89.4239 54.4774L92.7521 52.2586C90.1217 48.3131 86.4217 45.3834 81.7375 43.4546L80.2145 47.1534ZM89.4422 54.5044C91.6442 57.6935 92.8 61.6718 92.8 66.552H96.8C96.8 61.0215 95.4811 56.2105 92.7338 52.2316L89.4422 54.5044ZM92.8 66.552C92.8 73.6105 90.0628 79.0123 84.5452 82.9756L86.8788 86.2244C93.4786 81.4837 96.8 74.8535 96.8 66.552H92.8ZM84.5604 82.9648C78.9846 86.8914 70.5477 89 58.96 89V93C70.9243 93 80.3221 90.8419 86.8636 86.2352L84.5604 82.9648ZM58.96 89H12.624V93H58.96V89ZM33.232 77.384H57.424V73.384H33.232V77.384ZM57.424 77.384C62.9509 77.384 67.4478 76.5176 70.644 74.52L68.524 71.128C66.2588 72.5437 62.6491 73.384 57.424 73.384V77.384ZM70.6578 74.5113C74.1457 72.2917 75.808 68.779 75.808 64.376H71.808C71.808 67.653 70.6543 69.7723 68.5102 71.1367L70.6578 74.5113ZM75.808 64.376C75.808 60.0385 74.131 56.5789 70.6578 54.3687L68.5102 57.7433C70.669 59.1171 71.808 61.2042 71.808 64.376H75.808ZM70.7171 54.4079C67.5039 52.1989 62.975 51.24 57.424 51.24V55.24C62.625 55.24 66.2028 56.1585 68.4509 57.7041L70.7171 54.4079ZM57.424 51.24H31.696V55.24H57.424V51.24ZM33.696 53.24V38.136H29.696V53.24H33.696ZM31.696 40.136H53.84V36.136H31.696V40.136ZM53.84 40.136C59.0492 40.136 63.3357 39.2621 66.4443 37.2566L64.2757 33.8954C62.0937 35.3032 58.7001 36.136 53.84 36.136V40.136ZM66.4573 37.2481C69.8133 35.0457 71.456 31.6922 71.456 27.512H67.456C67.456 30.4998 66.368 32.5223 64.2627 33.9039L66.4573 37.2481ZM71.456 27.512C71.456 23.3952 69.7936 20.1165 66.42 18.008L64.3 21.4C66.3877 22.7048 67.456 24.6314 67.456 27.512H71.456ZM66.4817 18.0482C63.3649 15.9368 59.0624 15.016 53.84 15.016V19.016C58.6869 19.016 62.0644 19.8872 64.2383 21.3598L66.4817 18.0482ZM53.84 15.016H33.232V19.016H53.84V15.016ZM31.232 17.016V75.384H35.232V17.016H31.232ZM129.571 37.496V35.496H127.571V37.496H129.571ZM172.707 37.496H174.707V35.496H172.707V37.496ZM172.707 53.624V55.624H174.707V53.624H172.707ZM129.571 53.624H127.571V55.624H129.571V53.624ZM131.107 74.36H129.107V76.36H131.107V74.36ZM179.875 74.36H181.875V72.36H179.875V74.36ZM179.875 91V93H181.875V91H179.875ZM110.499 91H108.499V93H110.499V91ZM110.499 1.39999V-0.600006H108.499V1.39999H110.499ZM178.211 1.39999H180.211V-0.600006H178.211V1.39999ZM178.211 18.04V20.04H180.211V18.04H178.211ZM131.107 18.04V16.04H129.107V18.04H131.107ZM129.571 39.496H172.707V35.496H129.571V39.496ZM170.707 37.496V53.624H174.707V37.496H170.707ZM172.707 51.624H129.571V55.624H172.707V51.624ZM131.571 53.624V37.496H127.571V53.624H131.571ZM131.107 76.36H179.875V72.36H131.107V76.36ZM177.875 74.36V91H181.875V74.36H177.875ZM179.875 89H110.499V93H179.875V89ZM112.499 91V1.39999H108.499V91H112.499ZM110.499 3.39999H178.211V-0.600006H110.499V3.39999ZM176.211 1.39999V18.04H180.211V1.39999H176.211ZM178.211 16.04H131.107V20.04H178.211V16.04ZM129.107 18.04V74.36H133.107V18.04H129.107ZM196.374 91H194.374V93H196.374V91ZM196.374 1.39999V-0.600006H194.374V1.39999H196.374ZM255.894 5.368L255.064 7.18781L255.076 7.19289L255.087 7.19783L255.894 5.368ZM269.334 16.504L267.656 17.5929V17.5929L269.334 16.504ZM269.334 51.192L271.003 52.2945L271.007 52.2877L271.012 52.2809L269.334 51.192ZM255.894 62.2L256.701 64.0298L255.894 62.2ZM207.894 66.04L206.49 64.6159L203.017 68.04H207.894V66.04ZM217.11 56.952H219.11V52.1709L215.706 55.5279L217.11 56.952ZM217.11 91V93H219.11V91H217.11ZM253.334 91L251.687 92.1347L252.283 93H253.334V91ZM230.934 58.488V56.488H227.127L229.287 59.6227L230.934 58.488ZM253.078 58.488L254.719 57.3445L254.122 56.488H253.078V58.488ZM275.734 91V93H279.565L277.375 89.8565L275.734 91ZM217.11 59.256L215.658 60.6315L219.11 64.2752V59.256H217.11ZM207.894 49.528V47.528H203.244L206.442 50.9035L207.894 49.528ZM248.342 45.432L249.65 46.9447L249.662 46.9347L249.673 46.9246L248.342 45.432ZM207.894 18.296L206.433 16.93L203.286 20.296H207.894V18.296ZM217.11 8.43999H219.11V3.37282L215.649 7.07401L217.11 8.43999ZM198.374 91V1.39999H194.374V91H198.374ZM196.374 3.39999H235.158V-0.600006H196.374V3.39999ZM235.158 3.39999C242.965 3.39999 249.58 4.68768 255.064 7.18781L256.724 3.54818C250.602 0.757645 243.394 -0.600006 235.158 -0.600006V3.39999ZM255.087 7.19783C260.568 9.6161 264.731 13.0857 267.656 17.5929L271.012 15.4151C267.623 10.1942 262.825 6.23989 256.701 3.53816L255.087 7.19783ZM267.656 17.5929C270.571 22.0828 272.07 27.493 272.07 33.912H276.07C276.07 26.8484 274.412 20.6532 271.012 15.4151L267.656 17.5929ZM272.07 33.912C272.07 40.2401 270.574 45.6091 267.656 50.1031L271.012 52.2809C274.409 47.0469 276.07 40.8959 276.07 33.912H272.07ZM267.665 50.0895C264.742 54.5143 260.577 57.9478 255.087 60.3702L256.701 64.0298C262.816 61.3322 267.612 57.427 271.003 52.2945L267.665 50.0895ZM255.087 60.3702C249.596 62.7924 242.972 64.04 235.158 64.04V68.04C243.386 68.04 250.586 66.7276 256.701 64.0298L255.087 60.3702ZM235.158 64.04H207.894V68.04H235.158V64.04ZM209.298 67.4641L218.514 58.3761L215.706 55.5279L206.49 64.6159L209.298 67.4641ZM215.11 56.952V91H219.11V56.952H215.11ZM217.11 89H196.374V93H217.11V89ZM254.981 89.8653L232.581 57.3533L229.287 59.6227L251.687 92.1347L254.981 89.8653ZM230.934 60.488H253.078V56.488H230.934V60.488ZM251.437 59.6315L274.093 92.1435L277.375 89.8565L254.719 57.3445L251.437 59.6315ZM275.734 89H253.334V93H275.734V89ZM218.562 57.8805L209.346 48.1525L206.442 50.9035L215.658 60.6315L218.562 57.8805ZM207.894 51.528H234.006V47.528H207.894V51.528ZM234.006 51.528C240.641 51.528 245.979 50.1199 249.65 46.9447L247.034 43.9193C244.39 46.2054 240.171 47.528 234.006 47.528V51.528ZM249.673 46.9246C253.322 43.6706 255.078 39.2518 255.078 33.912H251.078C251.078 38.3002 249.677 41.5614 247.011 43.9394L249.673 46.9246ZM255.078 33.912C255.078 28.5005 253.329 24.0611 249.65 20.8793L247.034 23.9047C249.669 26.1842 251.078 29.4248 251.078 33.912H255.078ZM249.65 20.8793C245.979 17.7041 240.641 16.296 234.006 16.296V20.296C240.171 20.296 244.39 21.6185 247.034 23.9047L249.65 20.8793ZM234.006 16.296H207.894V20.296H234.006V16.296ZM209.355 19.662L218.571 9.80598L215.649 7.07401L206.433 16.93L209.355 19.662ZM215.11 8.43999V59.256H219.11V8.43999H215.11ZM290.499 91H288.499V93H290.499V91ZM290.499 1.39999V-0.600006H288.499V1.39999H290.499ZM311.235 1.39999H313.235V-0.600006H311.235V1.39999ZM311.235 91V93H313.235V91H311.235ZM292.499 91V1.39999H288.499V91H292.499ZM290.499 3.39999H311.235V-0.600006H290.499V3.39999ZM309.235 1.39999V91H313.235V1.39999H309.235ZM311.235 89H290.499V93H311.235V89ZM351.059 91H349.059V93H351.059V91ZM351.059 18.296H353.059V16.296H351.059V18.296ZM322.387 18.296H320.387V20.296H322.387V18.296ZM322.387 1.39999V-0.600006H320.387V1.39999H322.387ZM400.467 1.39999H402.467V-0.600006H400.467V1.39999ZM400.467 18.296V20.296H402.467V18.296H400.467ZM371.795 18.296V16.296H369.795V18.296H371.795ZM371.795 91V93H373.795V91H371.795ZM353.059 91V18.296H349.059V91H353.059ZM351.059 16.296H322.387V20.296H351.059V16.296ZM324.387 18.296V1.39999H320.387V18.296H324.387ZM322.387 3.39999H400.467V-0.600006H322.387V3.39999ZM398.467 1.39999V18.296H402.467V1.39999H398.467ZM400.467 16.296H371.795V20.296H400.467V16.296ZM369.795 18.296V91H373.795V18.296H369.795ZM371.795 89H351.059V93H371.795V89ZM395.348 91L393.521 90.1858L392.267 93H395.348V91ZM435.284 1.39999V-0.600006H433.986L433.457 0.585781L435.284 1.39999ZM455.764 1.39999L457.59 0.583607L457.061 -0.600006H455.764V1.39999ZM495.828 91V93H498.913L497.654 90.1836L495.828 91ZM474.068 91L472.22 91.7654L472.732 93H474.068V91ZM441.3 11.896V9.896H438.307L439.452 12.6614L441.3 11.896ZM449.492 11.896L451.339 12.664L452.49 9.896H449.492V11.896ZM416.596 91V93H417.93L418.443 91.768L416.596 91ZM415.316 71.8L413.428 71.14L412.498 73.8H415.316V71.8ZM420.82 56.056V54.056H419.4L418.932 55.396L420.82 56.056ZM466.9 56.056L468.783 55.3824L468.309 54.056H466.9V56.056ZM472.532 71.8V73.8H475.372L474.415 71.1264L472.532 71.8ZM397.175 91.8142L437.111 2.21421L433.457 0.585781L393.521 90.1858L397.175 91.8142ZM435.284 3.39999H455.764V-0.600006H435.284V3.39999ZM453.938 2.21638L494.002 91.8164L497.654 90.1836L457.59 0.583607L453.938 2.21638ZM495.828 89H474.068V93H495.828V89ZM475.916 90.2346L443.148 11.1306L439.452 12.6614L472.22 91.7654L475.916 90.2346ZM441.3 13.896H449.492V9.896H441.3V13.896ZM447.645 11.128L414.749 90.232L418.443 91.768L451.339 12.664L447.645 11.128ZM416.596 89H395.348V93H416.596V89ZM417.204 72.46L422.708 56.716L418.932 55.396L413.428 71.14L417.204 72.46ZM420.82 58.056H466.9V54.056H420.82V58.056ZM465.017 56.7296L470.649 72.4736L474.415 71.1264L468.783 55.3824L465.017 56.7296ZM472.532 69.8H415.316V73.8H472.532V69.8ZM551.998 89.336L551.229 91.1822L551.998 89.336ZM539.838 80.632L538.287 81.8945V81.8945L539.838 80.632ZM538.302 56.056L540.046 57.0345L540.051 57.0256L540.056 57.0166L538.302 56.056ZM547.646 46.072L548.815 47.6951L548.825 47.6874L548.836 47.6797L547.646 46.072ZM563.902 36.856L564.73 38.6767L564.737 38.6734L564.744 38.67L563.902 36.856ZM575.166 30.968L576.226 32.664L575.166 30.968ZM580.926 26.104L582.547 27.275L582.562 27.2544L582.577 27.2334L580.926 26.104ZM580.286 15.864L578.915 17.3204L578.936 17.3399L578.957 17.3588L580.286 15.864ZM566.59 16.12L565.252 14.6334L566.59 16.12ZM564.798 25.848L562.941 26.5908L562.95 26.6134L562.96 26.6358L564.798 25.848ZM567.742 30.072L566.252 31.4056L566.269 31.4257L566.288 31.4452L567.742 30.072ZM573.886 36.088L572.52 37.5486L572.526 37.5549L573.886 36.088ZM621.118 79.864L622.635 81.1668L623.89 79.706L622.478 78.3971L621.118 79.864ZM610.238 92.536L608.877 94.0015L610.401 95.4167L611.755 93.8388L610.238 92.536ZM558.142 44.152L559.503 42.6865L559.497 42.6812L559.492 42.6759L558.142 44.152ZM547.006 29.432L545.109 30.0644L545.119 30.0957L545.13 30.1266L547.006 29.432ZM549.31 10.744L547.666 9.60558L549.31 10.744ZM559.038 3.064L559.826 4.90229L559.842 4.89554L559.857 4.88853L559.038 3.064ZM587.198 2.808L586.37 4.62873L586.395 4.63995L586.42 4.6505L587.198 2.808ZM596.158 9.848L594.515 10.9888L594.526 11.004L594.537 11.019L596.158 9.848ZM596.67 31.224L598.377 32.2669L598.383 32.2566L598.389 32.2461L596.67 31.224ZM587.838 39.928L586.712 38.2748L586.704 38.2804L586.696 38.2862L587.838 39.928ZM572.35 48.248L571.544 46.4174L571.536 46.4211L571.528 46.4248L572.35 48.248ZM561.982 54.008L563.155 55.6279L563.165 55.6208L561.982 54.008ZM556.606 59.512L554.884 58.4945L556.606 59.512ZM556.862 71.544L555.262 72.744L555.281 72.769L555.3 72.7934L556.862 71.544ZM562.494 75.512L563.225 73.6505L562.494 75.512ZM585.278 73.336L586.241 75.0892L586.254 75.082L586.267 75.0746L585.278 73.336ZM596.286 62.456L594.595 61.388L594.59 61.396L596.286 62.456ZM602.814 44.792L603.41 42.8828L601.258 42.2114L600.847 44.4278L602.814 44.792ZM618.814 49.784L620.773 50.1873L621.138 48.414L619.41 47.8748L618.814 49.784ZM609.214 72.44L607.591 71.2714L609.214 72.44ZM592.19 87.288L591.269 85.5128L592.19 87.288ZM569.534 90.536C563.18 90.536 557.603 89.5047 552.767 87.4898L551.229 91.1822C556.633 93.434 562.747 94.536 569.534 94.536V90.536ZM552.767 87.4898C547.899 85.4616 544.134 82.7418 541.389 79.3695L538.287 81.8945C541.515 85.8608 545.857 88.9438 551.229 91.1822L552.767 87.4898ZM541.389 79.3695C538.696 76.0607 537.358 72.2838 537.358 67.96H533.358C533.358 73.1936 535.007 77.8646 538.287 81.8945L541.389 79.3695ZM537.358 67.96C537.358 63.8281 538.269 60.2034 540.046 57.0345L536.558 55.0775C534.41 58.9059 533.358 63.2172 533.358 67.96H537.358ZM540.056 57.0166C541.841 53.7582 544.723 50.6409 548.815 47.6951L546.477 44.4489C542.036 47.6471 538.689 51.1858 536.548 55.0954L540.056 57.0166ZM548.836 47.6797C552.957 44.6296 558.245 41.6245 564.73 38.6767L563.074 35.0353C556.418 38.0608 550.868 41.1997 546.456 44.4643L548.836 47.6797ZM564.744 38.67C569.557 36.4354 573.395 34.4331 576.226 32.664L574.106 29.272C571.475 30.9162 567.804 32.8392 563.06 35.042L564.744 38.67ZM576.226 32.664C579.044 30.9027 581.216 29.1178 582.547 27.275L579.305 24.933C578.417 26.1622 576.749 27.62 574.106 29.272L576.226 32.664ZM582.577 27.2334C583.865 25.3508 584.59 23.3431 584.59 21.24H580.59C580.59 22.3796 580.206 23.6145 579.275 24.9746L582.577 27.2334ZM584.59 21.24C584.59 18.5012 583.615 16.1468 581.615 14.3692L578.957 17.3588C580.029 18.3119 580.59 19.5414 580.59 21.24H584.59ZM581.657 14.4076C579.696 12.562 576.938 11.816 573.758 11.816V15.816C576.38 15.816 577.975 16.4353 578.915 17.3204L581.657 14.4076ZM573.758 11.816C570.362 11.816 567.435 12.6687 565.252 14.6334L567.928 17.6066C569.158 16.4993 571.01 15.816 573.758 15.816V11.816ZM565.252 14.6334C563.105 16.5658 562.03 19.0778 562.03 22.008H566.03C566.03 20.1595 566.662 18.7462 567.928 17.6066L565.252 14.6334ZM562.03 22.008C562.03 23.5615 562.342 25.0929 562.941 26.5908L566.655 25.1052C566.23 24.0431 566.03 23.0145 566.03 22.008H562.03ZM562.96 26.6358C563.596 28.1197 564.74 29.716 566.252 31.4056L569.232 28.7384C567.843 27.1853 567.024 25.9656 566.636 25.0602L562.96 26.6358ZM566.288 31.4452C567.78 33.025 569.862 35.0625 572.52 37.5485L575.252 34.6275C572.619 32.1642 570.605 30.191 569.196 28.6987L566.288 31.4452ZM572.526 37.5549L619.758 81.3309L622.478 78.3971L575.246 34.6211L572.526 37.5549ZM619.601 78.5612L608.721 91.2332L611.755 93.8388L622.635 81.1668L619.601 78.5612ZM611.599 91.0705L559.503 42.6865L556.781 45.6175L608.877 94.0015L611.599 91.0705ZM559.492 42.6759C556.567 40.0019 554.27 37.5338 552.574 35.272L549.374 37.672C551.262 40.1889 553.744 42.8408 556.792 45.6281L559.492 42.6759ZM552.574 35.272C550.874 33.005 549.655 30.8265 548.881 28.7374L545.13 30.1266C546.063 32.6455 547.49 35.1604 549.374 37.672L552.574 35.272ZM548.903 28.7995C548.205 26.7034 547.854 24.5278 547.854 22.264H543.854C543.854 24.9495 544.271 27.5526 545.109 30.0644L548.903 28.7995ZM547.854 22.264C547.854 18.2866 548.9 14.8504 550.954 11.8824L547.666 9.60558C545.112 13.2936 543.854 17.5374 543.854 22.264H547.854ZM550.954 11.8824C553.019 8.90076 555.946 6.56504 559.826 4.90229L558.25 1.2257C553.767 3.14696 550.209 5.93123 547.666 9.60558L550.954 11.8824ZM559.857 4.88853C563.729 3.15015 568.345 2.24799 573.758 2.24799V-1.75201C567.907 -1.75201 562.71 -0.776833 558.219 1.23946L559.857 4.88853ZM573.758 2.24799C578.75 2.24799 582.934 3.06689 586.37 4.62873L588.026 0.987267C583.952 -0.864231 579.176 -1.75201 573.758 -1.75201V2.24799ZM586.42 4.6505C589.952 6.14193 592.622 8.26267 594.515 10.9888L597.801 8.70721C595.427 5.28933 592.124 2.71674 587.976 0.9655L586.42 4.6505ZM594.537 11.019C596.479 13.7079 597.486 16.9545 597.486 20.856H601.486C601.486 16.2242 600.275 12.1321 597.779 8.67702L594.537 11.019ZM597.486 20.856C597.486 24.2593 596.64 27.3609 594.951 30.2019L598.389 32.2461C600.455 28.7724 601.486 24.9621 601.486 20.856H597.486ZM594.963 30.1811C593.276 32.942 590.566 35.6514 586.712 38.2748L588.964 41.5812C593.132 38.7433 596.309 35.65 598.377 32.2669L594.963 30.1811ZM586.696 38.2862C582.913 40.918 577.875 43.6318 571.544 46.4174L573.155 50.0786C579.625 47.2322 584.913 44.3994 588.98 41.5698L586.696 38.2862ZM571.528 46.4248C567.105 48.4192 563.513 50.4053 560.799 52.3952L563.165 55.6208C565.571 53.8561 568.891 52.0021 573.172 50.0712L571.528 46.4248ZM560.809 52.3881C558.195 54.281 556.177 56.3062 554.884 58.4945L558.328 60.5295C559.253 58.9632 560.82 57.319 563.155 55.6279L560.809 52.3881ZM554.884 58.4945C553.582 60.6977 552.942 63.1432 552.942 65.784H556.942C556.942 63.8168 557.411 62.081 558.328 60.5295L554.884 58.4945ZM552.942 65.784C552.942 68.3501 553.722 70.6911 555.262 72.744L558.462 70.344C557.442 68.9835 556.942 67.4846 556.942 65.784H552.942ZM555.3 72.7934C556.92 74.8175 559.105 76.3294 561.763 77.3735L563.225 73.6505C561.104 72.8172 559.535 71.6838 558.424 70.2946L555.3 72.7934ZM561.763 77.3735C564.437 78.4243 567.512 78.92 570.942 78.92V74.92C567.886 74.92 565.329 74.4771 563.225 73.6505L561.763 77.3735ZM570.942 78.92C576.467 78.92 581.579 77.6484 586.241 75.0892L584.315 71.5828C580.273 73.8023 575.828 74.92 570.942 74.92V78.92ZM586.267 75.0746C590.942 72.4162 594.842 68.5402 597.982 63.516L594.59 61.396C591.757 65.9292 588.318 69.3065 584.289 71.5974L586.267 75.0746ZM597.977 63.524C601.211 58.4031 603.464 52.2643 604.781 45.1562L600.847 44.4278C599.604 51.1437 597.505 56.7809 594.595 61.388L597.977 63.524ZM602.218 46.7012L618.218 51.6932L619.41 47.8748L603.41 42.8828L602.218 46.7012ZM616.855 49.3807C615.113 57.8438 612.015 65.1273 607.591 71.2714L610.837 73.6086C615.629 66.9527 618.931 59.1322 620.773 50.1873L616.855 49.3807ZM607.591 71.2714C603.159 77.4271 597.721 82.1642 591.269 85.5128L593.111 89.0632C600.142 85.4145 606.053 80.2529 610.837 73.6086L607.591 71.2714ZM591.269 85.5128C584.84 88.8493 577.609 90.536 569.534 90.536V94.536C578.184 94.536 586.057 92.724 593.111 89.0632L591.269 85.5128ZM0.848 247L-0.978761 246.186L-2.2331 249H0.848V247ZM40.784 157.4V155.4H39.4858L38.9572 156.586L40.784 157.4ZM61.264 157.4L63.0898 156.584L62.5606 155.4H61.264V157.4ZM101.328 247V249H104.413L103.154 246.184L101.328 247ZM79.568 247L77.7203 247.765L78.2317 249H79.568V247ZM46.8 167.896V165.896H43.8067L44.9523 168.661L46.8 167.896ZM54.992 167.896L56.8387 168.664L57.9898 165.896H54.992V167.896ZM22.096 247V249H23.4303L23.9427 247.768L22.096 247ZM20.816 227.8L18.928 227.14L17.9981 229.8H20.816V227.8ZM26.32 212.056V210.056H24.9005L24.432 211.396L26.32 212.056ZM72.4 212.056L74.2831 211.382L73.8087 210.056H72.4V212.056ZM78.032 227.8V229.8H80.8716L79.9151 227.126L78.032 227.8ZM2.67476 247.814L42.6108 158.214L38.9572 156.586L-0.978761 246.186L2.67476 247.814ZM40.784 159.4H61.264V155.4H40.784V159.4ZM59.4382 158.216L99.5022 247.816L103.154 246.184L63.0898 156.584L59.4382 158.216ZM101.328 245H79.568V249H101.328V245ZM81.4157 246.235L48.6477 167.131L44.9523 168.661L77.7203 247.765L81.4157 246.235ZM46.8 169.896H54.992V165.896H46.8V169.896ZM53.1453 167.128L20.2493 246.232L23.9427 247.768L56.8387 168.664L53.1453 167.128ZM22.096 245H0.848V249H22.096V245ZM22.704 228.46L28.208 212.716L24.432 211.396L18.928 227.14L22.704 228.46ZM26.32 214.056H72.4V210.056H26.32V214.056ZM70.5169 212.73L76.1489 228.474L79.9151 227.126L74.2831 211.382L70.5169 212.73ZM78.032 225.8H20.816V229.8H78.032V225.8ZM133.054 245.208L132.325 247.07L132.341 247.077L132.358 247.083L133.054 245.208ZM117.566 235.48L116.18 236.922L116.187 236.929L116.194 236.936L117.566 235.48ZM107.326 220.76L105.485 221.541L105.49 221.553L105.495 221.565L107.326 220.76ZM107.326 183.64L105.495 182.835L105.49 182.847L105.485 182.859L107.326 183.64ZM117.694 168.92L119.066 170.376L117.694 168.92ZM133.31 159.32L134.006 161.195L134.018 161.19L134.03 161.186L133.31 159.32ZM174.398 159.832L173.625 161.677L173.634 161.68L174.398 159.832ZM190.526 171.352L191.883 172.822L193.305 171.509L192.039 170.044L190.526 171.352ZM177.214 183.64L175.764 185.018L177.122 186.447L178.571 185.11L177.214 183.64ZM166.59 176.088L165.778 177.916L165.795 177.923L165.812 177.93L166.59 176.088ZM132.798 181.464L131.407 180.027L131.395 180.038L131.384 180.05L132.798 181.464ZM126.782 190.552L124.935 189.786L124.926 189.805L124.919 189.825L126.782 190.552ZM126.782 213.72L124.919 214.447L124.926 214.467L124.935 214.486L126.782 213.72ZM132.798 222.936L131.361 224.327L131.384 224.35L131.407 224.373L132.798 222.936ZM142.014 228.824L141.287 230.687L141.294 230.69L141.302 230.693L142.014 228.824ZM165.694 228.952L166.326 230.849L166.339 230.845L166.351 230.841L165.694 228.952ZM177.086 222.168L178.658 220.932L177.366 219.289L175.782 220.652L177.086 222.168ZM188.862 237.144L190.066 238.741L191.695 237.512L190.434 235.908L188.862 237.144ZM171.838 245.592L171.259 243.678L171.252 243.68L171.838 245.592ZM169.918 234.456H167.918V236.192L169.637 236.436L169.918 234.456ZM169.918 200.792V198.792H167.918V200.792H169.918ZM188.862 200.792H190.862V198.792H188.862V200.792ZM188.862 237.144L188.581 239.124L190.862 239.448V237.144H188.862ZM152.638 246.536C145.767 246.536 139.477 245.46 133.75 243.333L132.358 247.083C138.577 249.393 145.344 250.536 152.638 250.536V246.536ZM133.783 243.346C128.124 241.131 123.182 238.024 118.938 234.024L116.194 236.936C120.825 241.299 126.208 244.677 132.325 247.07L133.783 243.346ZM118.952 234.038C114.792 230.041 111.528 225.353 109.157 219.955L105.495 221.565C108.073 227.431 111.636 232.556 116.18 236.922L118.952 234.038ZM109.167 219.979C106.893 214.618 105.742 208.7 105.742 202.2H101.742C101.742 209.182 102.98 215.638 105.485 221.541L109.167 219.979ZM105.742 202.2C105.742 195.7 106.893 189.782 109.167 184.421L105.485 182.859C102.98 188.762 101.742 195.218 101.742 202.2H105.742ZM109.157 184.445C111.525 179.056 114.825 174.371 119.066 170.376L116.322 167.464C111.688 171.831 108.077 176.96 105.495 182.835L109.157 184.445ZM119.066 170.376C123.299 166.386 128.272 163.325 134.006 161.195L132.614 157.445C126.401 159.753 120.963 163.091 116.322 167.464L119.066 170.376ZM134.03 161.186C139.748 158.981 146.071 157.864 153.022 157.864V153.864C145.637 153.864 138.819 155.051 132.59 157.454L134.03 161.186ZM153.022 157.864C160.734 157.864 167.591 159.149 173.625 161.677L175.171 157.987C168.576 155.224 161.182 153.864 153.022 153.864V157.864ZM173.634 161.68C179.758 164.211 184.873 167.871 189.013 172.66L192.039 170.044C187.475 164.764 181.838 160.743 175.162 157.984L173.634 161.68ZM189.169 169.882L175.857 182.17L178.571 185.11L191.883 172.822L189.169 169.882ZM178.664 182.262C175.256 178.675 171.492 175.987 167.368 174.245L165.812 177.93C169.368 179.432 172.686 181.778 175.764 185.018L178.664 182.262ZM167.402 174.26C163.288 172.432 158.827 171.528 154.046 171.528V175.528C158.31 175.528 162.213 176.331 165.778 177.916L167.402 174.26ZM154.046 171.528C149.483 171.528 145.27 172.244 141.43 173.707L142.854 177.445C146.182 176.177 149.905 175.528 154.046 175.528V171.528ZM141.43 173.707C137.604 175.165 134.255 177.27 131.407 180.027L134.189 182.901C136.631 180.538 139.512 178.718 142.854 177.445L141.43 173.707ZM131.384 180.05C128.63 182.804 126.481 186.056 124.935 189.786L128.629 191.318C129.984 188.05 131.846 185.244 134.212 182.878L131.384 180.05ZM124.919 189.825C123.452 193.585 122.734 197.718 122.734 202.2H126.734C126.734 198.149 127.382 194.517 128.645 191.279L124.919 189.825ZM122.734 202.2C122.734 206.602 123.453 210.692 124.919 214.447L128.645 212.993C127.38 209.751 126.734 206.161 126.734 202.2H122.734ZM124.935 214.486C126.479 218.21 128.621 221.496 131.361 224.327L134.235 221.545C131.855 219.086 129.987 216.227 128.629 212.954L124.935 214.486ZM131.407 224.373C134.247 227.122 137.546 229.227 141.287 230.687L142.741 226.961C139.485 225.69 136.639 223.87 134.189 221.499L131.407 224.373ZM141.302 230.693C145.138 232.154 149.307 232.872 153.79 232.872V228.872C149.739 228.872 146.058 228.225 142.726 226.955L141.302 230.693ZM153.79 232.872C158.098 232.872 162.28 232.198 166.326 230.849L165.062 227.055C161.428 228.266 157.674 228.872 153.79 228.872V232.872ZM166.351 230.841C170.549 229.381 174.562 226.979 178.39 223.684L175.782 220.652C172.272 223.672 168.689 225.793 165.037 227.063L166.351 230.841ZM175.514 223.404L187.29 238.38L190.434 235.908L178.658 220.932L175.514 223.404ZM187.658 235.547C183.001 239.06 177.544 241.776 171.259 243.678L172.417 247.506C179.103 245.483 184.995 242.567 190.066 238.741L187.658 235.547ZM171.252 243.68C165.033 245.587 158.83 246.536 152.638 246.536V250.536C159.246 250.536 165.843 249.522 172.424 247.504L171.252 243.68ZM171.918 234.456V200.792H167.918V234.456H171.918ZM169.918 202.792H188.862V198.792H169.918V202.792ZM186.862 200.792V237.144H190.862V200.792H186.862ZM189.143 235.164L170.199 232.476L169.637 236.436L188.581 239.124L189.143 235.164ZM227.196 193.496V191.496H225.196V193.496H227.196ZM270.332 193.496H272.332V191.496H270.332V193.496ZM270.332 209.624V211.624H272.332V209.624H270.332ZM227.196 209.624H225.196V211.624H227.196V209.624ZM228.732 230.36H226.732V232.36H228.732V230.36ZM277.5 230.36H279.5V228.36H277.5V230.36ZM277.5 247V249H279.5V247H277.5ZM208.124 247H206.124V249H208.124V247ZM208.124 157.4V155.4H206.124V157.4H208.124ZM275.836 157.4H277.836V155.4H275.836V157.4ZM275.836 174.04V176.04H277.836V174.04H275.836ZM228.732 174.04V172.04H226.732V174.04H228.732ZM227.196 195.496H270.332V191.496H227.196V195.496ZM268.332 193.496V209.624H272.332V193.496H268.332ZM270.332 207.624H227.196V211.624H270.332V207.624ZM229.196 209.624V193.496H225.196V209.624H229.196ZM228.732 232.36H277.5V228.36H228.732V232.36ZM275.5 230.36V247H279.5V230.36H275.5ZM277.5 245H208.124V249H277.5V245ZM210.124 247V157.4H206.124V247H210.124ZM208.124 159.4H275.836V155.4H208.124V159.4ZM273.836 157.4V174.04H277.836V157.4H273.836ZM275.836 172.04H228.732V176.04H275.836V172.04ZM226.732 174.04V230.36H230.732V174.04H226.732ZM293.999 247H291.999V249H293.999V247ZM293.999 157.4V155.4H291.999V157.4H293.999ZM311.151 157.4L312.698 156.132L312.098 155.4H311.151V157.4ZM364.015 221.912V223.912H368.24L365.562 220.644L364.015 221.912ZM355.695 221.912H353.695V223.912H355.695V221.912ZM355.695 157.4V155.4H353.695V157.4H355.695ZM376.175 157.4H378.175V155.4H376.175V157.4ZM376.175 247V249H378.175V247H376.175ZM359.151 247L357.606 248.269L358.206 249H359.151V247ZM306.159 182.488V180.488H301.928L304.614 183.757L306.159 182.488ZM314.479 182.488H316.479V180.488H314.479V182.488ZM314.479 247V249H316.479V247H314.479ZM295.999 247V157.4H291.999V247H295.999ZM293.999 159.4H311.151V155.4H293.999V159.4ZM309.604 158.668L362.468 223.18L365.562 220.644L312.698 156.132L309.604 158.668ZM364.015 219.912H355.695V223.912H364.015V219.912ZM357.695 221.912V157.4H353.695V221.912H357.695ZM355.695 159.4H376.175V155.4H355.695V159.4ZM374.175 157.4V247H378.175V157.4H374.175ZM376.175 245H359.151V249H376.175V245ZM360.696 245.731L307.704 181.219L304.614 183.757L357.606 248.269L360.696 245.731ZM306.159 184.488H314.479V180.488H306.159V184.488ZM312.479 182.488V247H316.479V182.488H312.479ZM314.479 245H293.999V249H314.479V245ZM397.374 247H395.374V249H397.374V247ZM397.374 157.4V155.4H395.374V157.4H397.374ZM463.806 163.032L462.903 164.817L462.912 164.821L462.92 164.825L463.806 163.032ZM481.214 178.52L479.52 179.584L481.214 178.52ZM481.214 225.88L482.908 226.944L482.914 226.934L481.214 225.88ZM463.806 241.496L464.692 243.289L464.7 243.285L464.709 243.281L463.806 241.496ZM418.11 229.976H416.11V231.976H418.11V229.976ZM452.542 226.648L453.45 228.43L453.457 228.426L453.464 228.423L452.542 226.648ZM462.782 216.92L461.061 215.901L461.053 215.914L461.046 215.928L462.782 216.92ZM462.782 187.48L461.046 188.472L461.058 188.493L461.07 188.514L462.782 187.48ZM452.542 177.88L451.606 179.648L451.627 179.658L451.648 179.669L452.542 177.88ZM418.11 174.424V172.424H416.11V174.424H418.11ZM399.374 247V157.4H395.374V247H399.374ZM397.374 159.4H438.078V155.4H397.374V159.4ZM438.078 159.4C447.545 159.4 455.803 161.226 462.903 164.817L464.709 161.247C456.961 157.329 448.067 155.4 438.078 155.4V159.4ZM462.92 164.825C470.031 168.34 475.546 173.258 479.52 179.584L482.908 177.456C478.519 170.47 472.429 165.063 464.692 161.239L462.92 164.825ZM479.52 179.584C483.471 185.872 485.486 193.384 485.486 202.2H489.486C489.486 192.755 487.32 184.48 482.908 177.456L479.52 179.584ZM485.486 202.2C485.486 210.926 483.473 218.444 479.514 224.826L482.914 226.934C487.318 219.834 489.486 211.564 489.486 202.2H485.486ZM479.52 224.816C475.544 231.146 470.023 236.111 462.903 239.711L464.709 243.281C472.437 239.372 478.522 233.926 482.908 226.944L479.52 224.816ZM462.92 239.703C455.816 243.214 447.552 245 438.078 245V249C448.06 249 456.948 247.116 464.692 243.289L462.92 239.703ZM438.078 245H397.374V249H438.078V245ZM418.11 231.976H437.054V227.976H418.11V231.976ZM437.054 231.976C443.274 231.976 448.761 230.82 453.45 228.43L451.634 224.866C447.619 226.913 442.781 227.976 437.054 227.976V231.976ZM453.464 228.423C458.228 225.949 461.931 222.441 464.518 217.912L461.046 215.928C458.854 219.762 455.73 222.739 451.62 224.873L453.464 228.423ZM464.503 217.939C467.188 213.403 468.494 208.133 468.494 202.2H464.494C464.494 207.531 463.326 212.075 461.061 215.901L464.503 217.939ZM468.494 202.2C468.494 196.19 467.191 190.91 464.494 186.446L461.07 188.514C463.323 192.242 464.494 196.776 464.494 202.2H468.494ZM464.518 186.488C461.927 181.953 458.216 178.481 453.436 176.091L451.648 179.669C455.743 181.717 458.858 184.645 461.046 188.472L464.518 186.488ZM453.478 176.112C448.782 173.627 443.285 172.424 437.054 172.424V176.424C442.77 176.424 447.598 177.525 451.606 179.648L453.478 176.112ZM437.054 172.424H418.11V176.424H437.054V172.424ZM416.11 174.424V229.976H420.11V174.424H416.11ZM490.098 247L488.271 246.186L487.017 249H490.098V247ZM530.034 157.4V155.4H528.736L528.207 156.586L530.034 157.4ZM550.514 157.4L552.34 156.584L551.811 155.4H550.514V157.4ZM590.578 247V249H593.663L592.404 246.184L590.578 247ZM568.818 247L566.97 247.765L567.482 249H568.818V247ZM536.05 167.896V165.896H533.057L534.202 168.661L536.05 167.896ZM544.242 167.896L546.089 168.664L547.24 165.896H544.242V167.896ZM511.346 247V249H512.68L513.193 247.768L511.346 247ZM510.066 227.8L508.178 227.14L507.248 229.8H510.066V227.8ZM515.57 212.056V210.056H514.151L513.682 211.396L515.57 212.056ZM561.65 212.056L563.533 211.382L563.059 210.056H561.65V212.056ZM567.282 227.8V229.8H570.122L569.165 227.126L567.282 227.8ZM491.925 247.814L531.861 158.214L528.207 156.586L488.271 246.186L491.925 247.814ZM530.034 159.4H550.514V155.4H530.034V159.4ZM548.688 158.216L588.752 247.816L592.404 246.184L552.34 156.584L548.688 158.216ZM590.578 245H568.818V249H590.578V245ZM570.666 246.235L537.898 167.131L534.202 168.661L566.97 247.765L570.666 246.235ZM536.05 169.896H544.242V165.896H536.05V169.896ZM542.395 167.128L509.499 246.232L513.193 247.768L546.089 168.664L542.395 167.128ZM511.346 245H490.098V249H511.346V245ZM511.954 228.46L517.458 212.716L513.682 211.396L508.178 227.14L511.954 228.46ZM515.57 214.056H561.65V210.056H515.57V214.056ZM559.767 212.73L565.399 228.474L569.165 227.126L563.533 211.382L559.767 212.73ZM567.282 225.8H510.066V229.8H567.282V225.8Z" fill="#E2E8F0" mask="url(#path-1-outside-1_197_1368)"/>
</svg>
