<svg width="218" height="152" viewBox="0 0 218 152" fill="none" xmlns="http://www.w3.org/2000/svg">
<mask id="mask0_197_1369" style="mask-type:alpha" maskUnits="userSpaceOnUse" x="0" y="0" width="218" height="152">
<rect width="218" height="152" fill="#D9D9D9"/>
</mask>
<g mask="url(#mask0_197_1369)">
<path fill-rule="evenodd" clip-rule="evenodd" d="M109 152C139.905 152 166.501 133.553 178.38 107.07C185.612 90.9447 199.327 76 217 76H1068.5C1068.78 76 1069 75.7761 1069 75.5C1069 75.2239 1068.78 75 1068.5 75H216.584C199.071 75 185.427 60.3148 178.136 44.3926C166.141 18.1974 139.695 0 109 0C78.3046 0 51.8594 18.1974 39.864 44.3927C32.5729 60.3149 18.9286 75 1.41644 75H-850.5C-850.776 75 -851 75.2239 -851 75.5C-851 75.7761 -850.776 76 -850.5 76H1C18.6731 76 32.388 90.9447 39.6205 107.07C51.4987 133.553 78.0952 152 109 152Z" fill="#FACC15"/>
</g>
</svg>
