<svg width="362" height="575" viewBox="0 0 362 575" fill="none" xmlns="http://www.w3.org/2000/svg">
<path d="M1 574C46.3799 546.352 143.03 491.843 166.593 494.992C196.046 498.93 295.347 436.721 299.267 383.437C302.404 340.81 341.729 303.205 361 289.731" stroke="#FEF9C3" stroke-width="2"/>
<path d="M1 516.254C46.3799 488.606 143.03 434.097 166.593 437.246C196.046 441.184 295.347 378.975 299.267 325.691C302.404 283.064 341.729 245.459 361 231.985" stroke="#FEF9C3" stroke-width="2"/>
<path d="M1 456.932C46.3799 429.437 143.03 375.231 166.593 378.363C196.046 382.278 295.347 320.415 299.267 267.426C302.404 225.035 341.729 187.638 361 174.239" stroke="#FEF9C3" stroke-width="2"/>
<path d="M1 399.186C46.3799 371.691 143.03 317.484 166.593 320.617C196.046 324.532 295.347 262.668 299.267 209.68C302.404 167.289 341.729 129.892 361 116.492" stroke="#FEF9C3" stroke-width="2"/>
<path d="M1 341.44C46.3799 313.945 143.03 259.738 166.593 262.87C196.046 266.786 295.347 204.922 299.267 151.933C302.404 109.542 341.729 72.1456 361 58.7461" stroke="#FEF9C3" stroke-width="2"/>
<path d="M1 283.694C46.3799 256.199 143.03 201.992 166.593 205.124C196.046 209.04 295.347 147.176 299.267 94.1872C302.404 51.7962 341.729 14.3995 361 1" stroke="#FEF9C3" stroke-width="2"/>
</svg>
