<svg width="1922" height="1094" viewBox="0 0 1922 1094" fill="none" xmlns="http://www.w3.org/2000/svg">
<path d="M1 1092.5C243.026 1039.83 758.495 936 884.161 942C1041.24 949.5 1570.85 831 1591.76 729.5C1608.49 648.3 1818.22 576.667 1921 551" stroke="#FEF9C3" stroke-width="2"/>
<path d="M1 982.5C243.026 929.833 758.495 826 884.161 832C1041.24 839.5 1570.85 721 1591.76 619.5C1608.49 538.3 1818.22 466.667 1921 441" stroke="#FEF9C3" stroke-width="2"/>
<path d="M1 869.5C243.026 817.125 758.495 713.867 884.161 719.834C1041.24 727.292 1570.85 609.449 1591.76 508.511C1608.49 427.761 1818.22 356.524 1921 331" stroke="#FEF9C3" stroke-width="2"/>
<path d="M1 759.5C243.026 707.125 758.495 603.867 884.161 609.834C1041.24 617.292 1570.85 499.449 1591.76 398.511C1608.49 317.761 1818.22 246.524 1921 221" stroke="#FEF9C3" stroke-width="2"/>
<path d="M1 649.5C243.026 597.125 758.495 493.867 884.161 499.834C1041.24 507.292 1570.85 389.449 1591.76 288.511C1608.49 207.761 1818.22 136.524 1921 111" stroke="#FEF9C3" stroke-width="2"/>
<path d="M1 539.5C243.026 487.125 758.495 383.867 884.161 389.834C1041.24 397.292 1570.85 279.449 1591.76 178.511C1608.49 97.7609 1818.22 26.5245 1921 1" stroke="#FEF9C3" stroke-width="2"/>
</svg>
