<svg width="432" height="373" viewBox="0 0 432 373" fill="none" xmlns="http://www.w3.org/2000/svg">
<path fill-rule="evenodd" clip-rule="evenodd" d="M396.528 201.985C397.887 251.407 379.964 303.458 340.457 333.184C301.781 362.284 247.093 365.245 201.636 348.623C163.323 334.614 157.575 285.114 129.103 255.899C94.1799 220.066 24.3075 211.622 19.5695 161.81C14.784 111.5 65.1843 71.5828 109.211 46.7682C147.063 25.4336 191.809 32.3644 234.453 40.695C272.267 48.0819 306.479 63.4631 333.789 90.6402C365.18 121.88 395.311 157.714 396.528 201.985Z" fill="#FACC15"/>
<path fill-rule="evenodd" clip-rule="evenodd" d="M414.528 184.985C415.887 234.407 397.964 286.458 358.457 316.184C319.781 345.284 265.093 348.245 219.636 331.623C181.323 317.614 175.575 268.114 147.103 238.899C112.18 203.066 42.3075 194.622 37.5695 144.81C32.784 94.4996 83.1843 54.5828 127.211 29.7682C165.063 8.43364 209.809 15.3644 252.453 23.695C290.267 31.0819 324.479 46.4631 351.789 73.6402C383.18 104.88 413.311 140.714 414.528 184.985Z" stroke="white" stroke-width="2"/>
</svg>
