<svg width="357" height="380" viewBox="0 0 357 380" fill="none" xmlns="http://www.w3.org/2000/svg">
<path d="M118.576 54.398C124.769 42.6789 139.29 38.1992 151.009 44.3922L334.909 141.576C346.628 147.769 351.108 162.289 344.915 174.009L247.731 357.909C241.538 369.628 227.017 374.108 215.298 367.915L31.398 270.731C19.6789 264.538 15.1992 250.017 21.3922 238.298L118.576 54.398Z" fill="url(#paint0_linear_215_6405)"/>
<path d="M109.46 21.8652C115.395 10.6344 129.311 6.34134 140.541 12.2763L324.442 109.46C335.673 115.395 339.966 129.311 334.031 140.541L236.847 324.442C230.912 335.672 216.996 339.966 205.766 334.031L21.8652 236.847C10.6345 230.912 6.34137 216.996 12.2764 205.766L109.46 21.8652Z" stroke="#854D0E" stroke-width="2"/>
<defs>
<linearGradient id="paint0_linear_215_6405" x1="242.959" y1="92.984" x2="123.348" y2="319.323" gradientUnits="userSpaceOnUse">
<stop stop-color="#FACC15"/>
<stop offset="1" stop-color="#FDE047"/>
</linearGradient>
</defs>
</svg>
