<svg width="432" height="430" viewBox="0 0 432 430" fill="none" xmlns="http://www.w3.org/2000/svg">
<path fill-rule="evenodd" clip-rule="evenodd" d="M317.819 285.037C290.535 320.026 237.397 305.928 193.09 305.439C158.729 305.06 123.992 304.87 97.8362 282.61C68.8428 257.935 39.8698 221.031 51.0743 184.577C61.6783 150.076 113.423 158.761 142.48 137.358C178.044 111.164 189.545 46.0593 233.46 50.2399C278.664 54.5433 296.242 110.71 311.601 153.458C327.212 196.909 346.243 248.585 317.819 285.037Z" fill="white"/>
<path fill-rule="evenodd" clip-rule="evenodd" d="M336.37 319.639C305.767 358.885 246.165 343.071 196.468 342.523C157.928 342.098 118.965 341.884 89.6269 316.916C57.1066 289.24 24.6091 247.847 37.1766 206.958C49.0705 168.261 107.109 178.001 139.702 153.995C179.592 124.614 192.492 51.5902 241.749 56.2795C292.452 61.1063 312.169 124.106 329.396 172.054C346.906 220.791 368.252 278.753 336.37 319.639Z" stroke="#FACC15" stroke-width="2"/>
</svg>
