<svg width="116" height="100" viewBox="0 0 116 100" fill="none" xmlns="http://www.w3.org/2000/svg">
<g clip-path="url(#clip0_198_3183)">
<circle cx="5" cy="5" r="5" fill="white"/>
<circle cx="25" cy="5" r="5" fill="white"/>
<circle cx="45" cy="5" r="5" fill="white"/>
<circle cx="65" cy="5" r="5" fill="white"/>
<circle cx="85" cy="5" r="5" fill="white"/>
<circle cx="105" cy="5" r="5" fill="white"/>
<circle cx="5" cy="25" r="5" fill="white"/>
<circle cx="25" cy="25" r="5" fill="white"/>
<circle cx="45" cy="25" r="5" fill="white"/>
<circle cx="65" cy="25" r="5" fill="white"/>
<circle cx="85" cy="25" r="5" fill="white"/>
<circle cx="105" cy="25" r="5" fill="white"/>
<circle cx="5" cy="45" r="5" fill="white"/>
<circle cx="25" cy="45" r="5" fill="white"/>
<circle cx="45" cy="45" r="5" fill="white"/>
<circle cx="65" cy="45" r="5" fill="white"/>
<circle cx="85" cy="45" r="5" fill="white"/>
<circle cx="105" cy="45" r="5" fill="white"/>
<circle cx="5" cy="65" r="5" fill="white"/>
<circle cx="25" cy="65" r="5" fill="white"/>
<circle cx="45" cy="65" r="5" fill="white"/>
<circle cx="65" cy="65" r="5" fill="white"/>
<circle cx="85" cy="65" r="5" fill="white"/>
<circle cx="105" cy="65" r="5" fill="white"/>
<circle cx="5" cy="85" r="5" fill="white"/>
<circle cx="25" cy="85" r="5" fill="white"/>
<circle cx="45" cy="85" r="5" fill="white"/>
<circle cx="65" cy="85" r="5" fill="white"/>
<circle cx="85" cy="85" r="5" fill="white"/>
<circle cx="105" cy="85" r="5" fill="white"/>
</g>
<defs>
<clipPath id="clip0_198_3183">
<rect width="116" height="100" fill="white"/>
</clipPath>
</defs>
</svg>
