<svg width="700" height="312" viewBox="0 0 700 312" fill="none" xmlns="http://www.w3.org/2000/svg">
<mask id="path-1-outside-1_525_4128" maskUnits="userSpaceOnUse" x="8" y="30" width="692" height="254" fill="black">
<rect fill="white" x="8" y="30" width="692" height="254"/>
<path d="M29.184 103.52L28.032 79.584L70.912 34.4H93.952L55.296 76L43.776 88.288L29.184 103.52ZM10.624 124V34.4H31.232V124H10.624ZM71.936 124L40.064 84.96L53.632 70.24L96.128 124H71.936ZM145.644 125.536C138.561 125.536 131.991 124.384 125.932 122.08C119.959 119.776 114.753 116.533 110.316 112.352C105.964 108.171 102.551 103.264 100.076 97.632C97.6867 92 96.492 85.856 96.492 79.2C96.492 72.544 97.6867 66.4 100.076 60.768C102.551 55.136 106.007 50.2293 110.444 46.048C114.881 41.8667 120.087 38.624 126.06 36.32C132.033 34.016 138.519 32.864 145.516 32.864C152.599 32.864 159.084 34.016 164.972 36.32C170.945 38.624 176.108 41.8667 180.46 46.048C184.897 50.2293 188.353 55.136 190.828 60.768C193.303 66.3147 194.54 72.4587 194.54 79.2C194.54 85.856 193.303 92.0427 190.828 97.76C188.353 103.392 184.897 108.299 180.46 112.48C176.108 116.576 170.945 119.776 164.972 122.08C159.084 124.384 152.641 125.536 145.644 125.536ZM145.516 107.872C149.527 107.872 153.196 107.189 156.524 105.824C159.937 104.459 162.924 102.496 165.484 99.936C168.044 97.376 170.007 94.3467 171.372 90.848C172.823 87.3493 173.548 83.4667 173.548 79.2C173.548 74.9333 172.823 71.0507 171.372 67.552C170.007 64.0533 168.044 61.024 165.484 58.464C163.009 55.904 160.065 53.9413 156.652 52.576C153.239 51.2107 149.527 50.528 145.516 50.528C141.505 50.528 137.793 51.2107 134.38 52.576C131.052 53.9413 128.108 55.904 125.548 58.464C122.988 61.024 120.983 64.0533 119.532 67.552C118.167 71.0507 117.484 74.9333 117.484 79.2C117.484 83.3813 118.167 87.264 119.532 90.848C120.983 94.3467 122.945 97.376 125.42 99.936C127.98 102.496 130.967 104.459 134.38 105.824C137.793 107.189 141.505 107.872 145.516 107.872ZM210.124 124V34.4H227.276L280.14 98.912H271.82V34.4H292.3V124H275.276L222.284 59.488H230.604V124H210.124ZM332.059 124V51.296H303.387V34.4H381.467V51.296H352.795V124H332.059ZM376.348 124L416.284 34.4H436.764L476.828 124H455.068L422.3 44.896H430.492L397.596 124H376.348ZM396.316 104.8L401.82 89.056H447.9L453.532 104.8H396.316ZM504.684 103.52L503.532 79.584L546.412 34.4H569.452L530.796 76L519.276 88.288L504.684 103.52ZM486.124 124V34.4H506.732V124H486.124ZM547.436 124L515.564 84.96L529.132 70.24L571.628 124H547.436ZM645.284 125.536C638.713 125.536 632.868 124.469 627.748 122.336C622.628 120.203 618.575 117.301 615.588 113.632C612.601 109.963 611.108 105.739 611.108 100.96C611.108 96.5227 612.089 92.5547 614.052 89.056C616.015 85.472 619.129 82.144 623.396 79.072C627.663 75.9147 633.081 72.8427 639.652 69.856C644.431 67.6373 648.185 65.6747 650.916 63.968C653.647 62.2613 655.567 60.64 656.676 59.104C657.785 57.4827 658.34 55.8613 658.34 54.24C658.34 52.0213 657.572 50.2293 656.036 48.864C654.585 47.4987 652.409 46.816 649.508 46.816C646.436 46.816 644.047 47.584 642.34 49.12C640.633 50.656 639.78 52.6187 639.78 55.008C639.78 56.288 640.036 57.568 640.548 58.848C641.06 60.0427 642.041 61.4507 643.492 63.072C644.943 64.608 646.991 66.6133 649.636 69.088L696.868 112.864L685.988 125.536L633.892 77.152C630.905 74.4213 628.516 71.8613 626.724 69.472C624.932 67.0827 623.609 64.736 622.756 62.432C621.988 60.128 621.604 57.7387 621.604 55.264C621.604 50.912 622.756 47.072 625.06 43.744C627.364 40.416 630.607 37.856 634.788 36.064C638.969 34.1867 643.876 33.248 649.508 33.248C654.713 33.248 659.193 34.1013 662.948 35.808C666.788 37.4293 669.775 39.776 671.908 42.848C674.127 45.92 675.236 49.5893 675.236 53.856C675.236 57.6107 674.297 61.0667 672.42 64.224C670.543 67.296 667.599 70.1973 663.588 72.928C659.663 75.6587 654.5 78.432 648.1 81.248C643.748 83.2107 640.292 85.1307 637.732 87.008C635.257 88.8 633.465 90.6347 632.356 92.512C631.247 94.3893 630.692 96.48 630.692 98.784C630.692 100.917 631.332 102.837 632.612 104.544C633.977 106.251 635.855 107.573 638.244 108.512C640.633 109.451 643.449 109.92 646.692 109.92C651.897 109.92 656.676 108.725 661.028 106.336C665.38 103.861 669.049 100.235 672.036 95.456C675.108 90.592 677.284 84.704 678.564 77.792L694.564 82.784C692.772 91.488 689.572 99.04 684.964 105.44C680.356 111.84 674.681 116.789 667.94 120.288C661.199 123.787 653.647 125.536 645.284 125.536ZM10.624 280V190.4H27.776L65.92 253.632H56.832L94.336 190.4H111.36L111.616 280H92.16L92.032 220.224H95.616L65.664 270.528H56.32L25.728 220.224H30.08V280H10.624ZM121.098 280L161.034 190.4H181.514L221.578 280H199.818L167.05 200.896H175.242L142.346 280H121.098ZM141.066 260.8L146.57 245.056H192.65L198.282 260.8H141.066ZM260.314 281.536C253.146 281.536 246.277 280.597 239.706 278.72C233.135 276.757 227.845 274.24 223.834 271.168L230.874 255.552C234.714 258.283 239.237 260.544 244.442 262.336C249.733 264.043 255.066 264.896 260.442 264.896C264.538 264.896 267.823 264.512 270.298 263.744C272.858 262.891 274.735 261.739 275.93 260.288C277.125 258.837 277.722 257.173 277.722 255.296C277.722 252.907 276.783 251.029 274.906 249.664C273.029 248.213 270.554 247.061 267.482 246.208C264.41 245.269 260.997 244.416 257.242 243.648C253.573 242.795 249.861 241.771 246.106 240.576C242.437 239.381 239.066 237.845 235.994 235.968C232.922 234.091 230.405 231.616 228.442 228.544C226.565 225.472 225.626 221.547 225.626 216.768C225.626 211.648 226.991 206.997 229.722 202.816C232.538 198.549 236.719 195.179 242.266 192.704C247.898 190.144 254.938 188.864 263.386 188.864C269.018 188.864 274.565 189.547 280.026 190.912C285.487 192.192 290.309 194.155 294.49 196.8L288.09 212.544C283.909 210.155 279.727 208.405 275.546 207.296C271.365 206.101 267.269 205.504 263.258 205.504C259.247 205.504 255.962 205.973 253.402 206.912C250.842 207.851 249.007 209.088 247.898 210.624C246.789 212.075 246.234 213.781 246.234 215.744C246.234 218.048 247.173 219.925 249.05 221.376C250.927 222.741 253.402 223.851 256.474 224.704C259.546 225.557 262.917 226.411 266.586 227.264C270.341 228.117 274.053 229.099 277.722 230.208C281.477 231.317 284.89 232.811 287.962 234.688C291.034 236.565 293.509 239.04 295.386 242.112C297.349 245.184 298.33 249.067 298.33 253.76C298.33 258.795 296.922 263.403 294.106 267.584C291.29 271.765 287.066 275.136 281.434 277.696C275.887 280.256 268.847 281.536 260.314 281.536ZM352.307 281.536C339.592 281.536 329.651 277.995 322.483 270.912C315.315 263.829 311.731 253.717 311.731 240.576V190.4H332.467V239.808C332.467 248.341 334.216 254.485 337.715 258.24C341.214 261.995 346.12 263.872 352.435 263.872C358.75 263.872 363.656 261.995 367.155 258.24C370.654 254.485 372.403 248.341 372.403 239.808V190.4H392.883V240.576C392.883 253.717 389.299 263.829 382.131 270.912C374.963 277.995 365.022 281.536 352.307 281.536ZM431.934 259.52L430.782 235.584L473.662 190.4H496.702L458.046 232L446.526 244.288L431.934 259.52ZM413.374 280V190.4H433.982V280H413.374ZM474.686 280L442.814 240.96L456.382 226.24L498.878 280H474.686ZM492.223 280L532.159 190.4H552.639L592.703 280H570.943L538.175 200.896H546.367L513.471 280H492.223ZM512.191 260.8L517.695 245.056H563.775L569.407 260.8H512.191ZM601.999 280V190.4H619.151L672.015 254.912H663.695V190.4H684.175V280H667.151L614.159 215.488H622.479V280H601.999Z"/>
</mask>
<path d="M29.184 103.52L28.032 79.584L70.912 34.4H93.952L55.296 76L43.776 88.288L29.184 103.52ZM10.624 124V34.4H31.232V124H10.624ZM71.936 124L40.064 84.96L53.632 70.24L96.128 124H71.936ZM145.644 125.536C138.561 125.536 131.991 124.384 125.932 122.08C119.959 119.776 114.753 116.533 110.316 112.352C105.964 108.171 102.551 103.264 100.076 97.632C97.6867 92 96.492 85.856 96.492 79.2C96.492 72.544 97.6867 66.4 100.076 60.768C102.551 55.136 106.007 50.2293 110.444 46.048C114.881 41.8667 120.087 38.624 126.06 36.32C132.033 34.016 138.519 32.864 145.516 32.864C152.599 32.864 159.084 34.016 164.972 36.32C170.945 38.624 176.108 41.8667 180.46 46.048C184.897 50.2293 188.353 55.136 190.828 60.768C193.303 66.3147 194.54 72.4587 194.54 79.2C194.54 85.856 193.303 92.0427 190.828 97.76C188.353 103.392 184.897 108.299 180.46 112.48C176.108 116.576 170.945 119.776 164.972 122.08C159.084 124.384 152.641 125.536 145.644 125.536ZM145.516 107.872C149.527 107.872 153.196 107.189 156.524 105.824C159.937 104.459 162.924 102.496 165.484 99.936C168.044 97.376 170.007 94.3467 171.372 90.848C172.823 87.3493 173.548 83.4667 173.548 79.2C173.548 74.9333 172.823 71.0507 171.372 67.552C170.007 64.0533 168.044 61.024 165.484 58.464C163.009 55.904 160.065 53.9413 156.652 52.576C153.239 51.2107 149.527 50.528 145.516 50.528C141.505 50.528 137.793 51.2107 134.38 52.576C131.052 53.9413 128.108 55.904 125.548 58.464C122.988 61.024 120.983 64.0533 119.532 67.552C118.167 71.0507 117.484 74.9333 117.484 79.2C117.484 83.3813 118.167 87.264 119.532 90.848C120.983 94.3467 122.945 97.376 125.42 99.936C127.98 102.496 130.967 104.459 134.38 105.824C137.793 107.189 141.505 107.872 145.516 107.872ZM210.124 124V34.4H227.276L280.14 98.912H271.82V34.4H292.3V124H275.276L222.284 59.488H230.604V124H210.124ZM332.059 124V51.296H303.387V34.4H381.467V51.296H352.795V124H332.059ZM376.348 124L416.284 34.4H436.764L476.828 124H455.068L422.3 44.896H430.492L397.596 124H376.348ZM396.316 104.8L401.82 89.056H447.9L453.532 104.8H396.316ZM504.684 103.52L503.532 79.584L546.412 34.4H569.452L530.796 76L519.276 88.288L504.684 103.52ZM486.124 124V34.4H506.732V124H486.124ZM547.436 124L515.564 84.96L529.132 70.24L571.628 124H547.436ZM645.284 125.536C638.713 125.536 632.868 124.469 627.748 122.336C622.628 120.203 618.575 117.301 615.588 113.632C612.601 109.963 611.108 105.739 611.108 100.96C611.108 96.5227 612.089 92.5547 614.052 89.056C616.015 85.472 619.129 82.144 623.396 79.072C627.663 75.9147 633.081 72.8427 639.652 69.856C644.431 67.6373 648.185 65.6747 650.916 63.968C653.647 62.2613 655.567 60.64 656.676 59.104C657.785 57.4827 658.34 55.8613 658.34 54.24C658.34 52.0213 657.572 50.2293 656.036 48.864C654.585 47.4987 652.409 46.816 649.508 46.816C646.436 46.816 644.047 47.584 642.34 49.12C640.633 50.656 639.78 52.6187 639.78 55.008C639.78 56.288 640.036 57.568 640.548 58.848C641.06 60.0427 642.041 61.4507 643.492 63.072C644.943 64.608 646.991 66.6133 649.636 69.088L696.868 112.864L685.988 125.536L633.892 77.152C630.905 74.4213 628.516 71.8613 626.724 69.472C624.932 67.0827 623.609 64.736 622.756 62.432C621.988 60.128 621.604 57.7387 621.604 55.264C621.604 50.912 622.756 47.072 625.06 43.744C627.364 40.416 630.607 37.856 634.788 36.064C638.969 34.1867 643.876 33.248 649.508 33.248C654.713 33.248 659.193 34.1013 662.948 35.808C666.788 37.4293 669.775 39.776 671.908 42.848C674.127 45.92 675.236 49.5893 675.236 53.856C675.236 57.6107 674.297 61.0667 672.42 64.224C670.543 67.296 667.599 70.1973 663.588 72.928C659.663 75.6587 654.5 78.432 648.1 81.248C643.748 83.2107 640.292 85.1307 637.732 87.008C635.257 88.8 633.465 90.6347 632.356 92.512C631.247 94.3893 630.692 96.48 630.692 98.784C630.692 100.917 631.332 102.837 632.612 104.544C633.977 106.251 635.855 107.573 638.244 108.512C640.633 109.451 643.449 109.92 646.692 109.92C651.897 109.92 656.676 108.725 661.028 106.336C665.38 103.861 669.049 100.235 672.036 95.456C675.108 90.592 677.284 84.704 678.564 77.792L694.564 82.784C692.772 91.488 689.572 99.04 684.964 105.44C680.356 111.84 674.681 116.789 667.94 120.288C661.199 123.787 653.647 125.536 645.284 125.536ZM10.624 280V190.4H27.776L65.92 253.632H56.832L94.336 190.4H111.36L111.616 280H92.16L92.032 220.224H95.616L65.664 270.528H56.32L25.728 220.224H30.08V280H10.624ZM121.098 280L161.034 190.4H181.514L221.578 280H199.818L167.05 200.896H175.242L142.346 280H121.098ZM141.066 260.8L146.57 245.056H192.65L198.282 260.8H141.066ZM260.314 281.536C253.146 281.536 246.277 280.597 239.706 278.72C233.135 276.757 227.845 274.24 223.834 271.168L230.874 255.552C234.714 258.283 239.237 260.544 244.442 262.336C249.733 264.043 255.066 264.896 260.442 264.896C264.538 264.896 267.823 264.512 270.298 263.744C272.858 262.891 274.735 261.739 275.93 260.288C277.125 258.837 277.722 257.173 277.722 255.296C277.722 252.907 276.783 251.029 274.906 249.664C273.029 248.213 270.554 247.061 267.482 246.208C264.41 245.269 260.997 244.416 257.242 243.648C253.573 242.795 249.861 241.771 246.106 240.576C242.437 239.381 239.066 237.845 235.994 235.968C232.922 234.091 230.405 231.616 228.442 228.544C226.565 225.472 225.626 221.547 225.626 216.768C225.626 211.648 226.991 206.997 229.722 202.816C232.538 198.549 236.719 195.179 242.266 192.704C247.898 190.144 254.938 188.864 263.386 188.864C269.018 188.864 274.565 189.547 280.026 190.912C285.487 192.192 290.309 194.155 294.49 196.8L288.09 212.544C283.909 210.155 279.727 208.405 275.546 207.296C271.365 206.101 267.269 205.504 263.258 205.504C259.247 205.504 255.962 205.973 253.402 206.912C250.842 207.851 249.007 209.088 247.898 210.624C246.789 212.075 246.234 213.781 246.234 215.744C246.234 218.048 247.173 219.925 249.05 221.376C250.927 222.741 253.402 223.851 256.474 224.704C259.546 225.557 262.917 226.411 266.586 227.264C270.341 228.117 274.053 229.099 277.722 230.208C281.477 231.317 284.89 232.811 287.962 234.688C291.034 236.565 293.509 239.04 295.386 242.112C297.349 245.184 298.33 249.067 298.33 253.76C298.33 258.795 296.922 263.403 294.106 267.584C291.29 271.765 287.066 275.136 281.434 277.696C275.887 280.256 268.847 281.536 260.314 281.536ZM352.307 281.536C339.592 281.536 329.651 277.995 322.483 270.912C315.315 263.829 311.731 253.717 311.731 240.576V190.4H332.467V239.808C332.467 248.341 334.216 254.485 337.715 258.24C341.214 261.995 346.12 263.872 352.435 263.872C358.75 263.872 363.656 261.995 367.155 258.24C370.654 254.485 372.403 248.341 372.403 239.808V190.4H392.883V240.576C392.883 253.717 389.299 263.829 382.131 270.912C374.963 277.995 365.022 281.536 352.307 281.536ZM431.934 259.52L430.782 235.584L473.662 190.4H496.702L458.046 232L446.526 244.288L431.934 259.52ZM413.374 280V190.4H433.982V280H413.374ZM474.686 280L442.814 240.96L456.382 226.24L498.878 280H474.686ZM492.223 280L532.159 190.4H552.639L592.703 280H570.943L538.175 200.896H546.367L513.471 280H492.223ZM512.191 260.8L517.695 245.056H563.775L569.407 260.8H512.191ZM601.999 280V190.4H619.151L672.015 254.912H663.695V190.4H684.175V280H667.151L614.159 215.488H622.479V280H601.999Z" fill="#EEEEEE"/>
<path d="M29.184 103.52L27.1863 103.616L27.41 108.263L30.6282 104.904L29.184 103.52ZM28.032 79.584L26.5813 78.2073L25.9932 78.8269L26.0343 79.6801L28.032 79.584ZM70.912 34.4V32.4H70.0528L69.4613 33.0233L70.912 34.4ZM93.952 34.4L95.4171 35.7614L98.5406 32.4H93.952V34.4ZM55.296 76L56.7551 77.3679L56.7611 77.3614L55.296 76ZM43.776 88.288L45.2202 89.6715L45.2277 89.6638L45.2351 89.6559L43.776 88.288ZM10.624 124H8.624V126H10.624V124ZM10.624 34.4V32.4H8.624V34.4H10.624ZM31.232 34.4H33.232V32.4H31.232V34.4ZM31.232 124V126H33.232V124H31.232ZM71.936 124L70.3867 125.265L70.9869 126H71.936V124ZM40.064 84.96L38.5934 83.6045L37.4173 84.8805L38.5147 86.2248L40.064 84.96ZM53.632 70.24L55.201 68.9997L53.7487 67.1625L52.1614 68.8845L53.632 70.24ZM96.128 124V126H100.258L97.697 122.76L96.128 124ZM31.1817 103.424L30.0297 79.4879L26.0343 79.6801L27.1863 103.616L31.1817 103.424ZM29.4827 80.9607L72.3627 35.7767L69.4613 33.0233L26.5813 78.2073L29.4827 80.9607ZM70.912 36.4H93.952V32.4H70.912V36.4ZM92.4869 33.0386L53.8309 74.6386L56.7611 77.3614L95.4171 35.7614L92.4869 33.0386ZM53.8369 74.6321L42.3169 86.9201L45.2351 89.6559L56.7551 77.3679L53.8369 74.6321ZM42.3318 86.9045L27.7398 102.136L30.6282 104.904L45.2202 89.6715L42.3318 86.9045ZM12.624 124V34.4H8.624V124H12.624ZM10.624 36.4H31.232V32.4H10.624V36.4ZM29.232 34.4V124H33.232V34.4H29.232ZM31.232 122H10.624V126H31.232V122ZM73.4853 122.735L41.6133 83.6952L38.5147 86.2248L70.3867 125.265L73.4853 122.735ZM41.5346 86.3155L55.1026 71.5955L52.1614 68.8845L38.5934 83.6045L41.5346 86.3155ZM52.063 71.4803L94.559 125.24L97.697 122.76L55.201 68.9997L52.063 71.4803ZM96.128 122H71.936V126H96.128V122ZM125.932 122.08L125.212 123.946L125.221 123.949L125.932 122.08ZM110.316 112.352L108.93 113.794L108.937 113.801L108.944 113.808L110.316 112.352ZM100.076 97.632L98.2348 98.4131L98.2398 98.4249L98.245 98.4365L100.076 97.632ZM100.076 60.768L98.245 59.9635L98.2398 59.9751L98.2348 59.9869L100.076 60.768ZM126.06 36.32L125.34 34.454L125.34 34.454L126.06 36.32ZM164.972 36.32L164.243 38.1825L164.252 38.186L164.972 36.32ZM180.46 46.048L179.074 47.4902L179.081 47.4969L179.088 47.5036L180.46 46.048ZM190.828 60.768L188.997 61.5726L189.002 61.5829L190.828 60.768ZM190.828 97.76L192.659 98.5646L192.663 98.5544L190.828 97.76ZM180.46 112.48L181.831 113.936L181.832 113.936L180.46 112.48ZM164.972 122.08L164.252 120.214L164.243 120.218L164.972 122.08ZM156.524 105.824L155.781 103.967L155.773 103.97L155.765 103.974L156.524 105.824ZM165.484 99.936L164.07 98.5218L164.07 98.5218L165.484 99.936ZM171.372 90.848L169.525 90.082L169.516 90.1014L169.509 90.1209L171.372 90.848ZM171.372 67.552L169.509 68.2791L169.516 68.2986L169.525 68.318L171.372 67.552ZM165.484 58.464L164.046 59.854L164.058 59.8662L164.07 59.8782L165.484 58.464ZM156.652 52.576L155.909 54.433L155.909 54.433L156.652 52.576ZM134.38 52.576L133.637 50.719L133.629 50.7223L133.621 50.7257L134.38 52.576ZM125.548 58.464L126.962 59.8782L126.962 59.8782L125.548 58.464ZM119.532 67.552L117.685 66.786L117.676 66.8054L117.669 66.8249L119.532 67.552ZM119.532 90.848L117.663 91.56L117.673 91.5872L117.685 91.614L119.532 90.848ZM125.42 99.936L123.982 101.326L123.994 101.338L124.006 101.35L125.42 99.936ZM134.38 105.824L133.637 107.681L133.637 107.681L134.38 105.824ZM145.644 123.536C138.782 123.536 132.454 122.421 126.643 120.211L125.221 123.949C131.527 126.347 138.341 127.536 145.644 127.536V123.536ZM126.652 120.214C120.908 117.999 115.927 114.891 111.688 110.896L108.944 113.808C113.58 118.175 119.009 121.553 125.212 123.946L126.652 120.214ZM111.702 110.91C107.542 106.913 104.278 102.225 101.907 96.8275L98.245 98.4365C100.823 104.303 104.386 109.428 108.93 113.794L111.702 110.91ZM101.917 96.8509C99.6416 91.487 98.492 85.6114 98.492 79.2H94.492C94.492 86.1006 95.7318 92.513 98.2348 98.4131L101.917 96.8509ZM98.492 79.2C98.492 72.7886 99.6416 66.913 101.917 61.5491L98.2348 59.9869C95.7318 65.887 94.492 72.2994 94.492 79.2H98.492ZM101.907 61.5725C104.275 56.1839 107.575 51.4992 111.816 47.5036L109.072 44.5924C104.438 48.9594 100.827 54.0881 98.245 59.9635L101.907 61.5725ZM111.816 47.5036C116.055 43.5088 121.036 40.4015 126.78 38.186L125.34 34.454C119.137 36.8465 113.708 40.2245 109.072 44.5924L111.816 47.5036ZM126.78 38.186C132.503 35.9785 138.742 34.864 145.516 34.864V30.864C138.295 30.864 131.564 32.0535 125.34 34.454L126.78 38.186ZM145.516 34.864C152.379 34.864 158.614 35.9796 164.243 38.1825L165.701 34.4575C159.554 32.0524 152.818 30.864 145.516 30.864V34.864ZM164.252 38.186C169.993 40.4003 174.925 43.504 179.074 47.4902L181.846 44.6058C177.291 40.2293 171.898 36.8477 165.692 34.454L164.252 38.186ZM179.088 47.5036C183.329 51.4992 186.629 56.1839 188.997 61.5725L192.659 59.9635C190.077 54.0881 186.466 48.9594 181.832 44.5924L179.088 47.5036ZM189.002 61.5829C191.35 66.8462 192.54 72.7084 192.54 79.2H196.54C196.54 72.2089 195.256 65.7831 192.654 59.9531L189.002 61.5829ZM192.54 79.2C192.54 85.6017 191.351 91.5158 188.993 96.9656L192.663 98.5544C195.254 92.5695 196.54 86.1103 196.54 79.2H192.54ZM188.997 96.9555C186.629 102.344 183.329 107.029 179.088 111.024L181.832 113.936C186.466 109.569 190.077 104.44 192.659 98.5645L188.997 96.9555ZM179.089 111.024C174.939 114.93 170.002 117.996 164.252 120.214L165.692 123.946C171.889 121.556 177.277 118.222 181.831 113.936L179.089 111.024ZM164.243 120.218C158.611 122.421 152.419 123.536 145.644 123.536V127.536C152.864 127.536 159.557 126.347 165.701 123.942L164.243 120.218ZM145.516 109.872C149.757 109.872 153.688 109.149 157.283 107.674L155.765 103.974C152.704 105.229 149.296 105.872 145.516 105.872V109.872ZM157.267 107.681C160.928 106.217 164.144 104.105 166.898 101.35L164.07 98.5218C161.704 100.887 158.947 102.701 155.781 103.967L157.267 107.681ZM166.898 101.35C169.661 98.5873 171.773 95.3215 173.235 91.5751L169.509 90.1209C168.24 93.3718 166.427 96.1647 164.07 98.5218L166.898 101.35ZM173.219 91.614C174.783 87.8437 175.548 83.6964 175.548 79.2H171.548C171.548 83.2369 170.863 86.855 169.525 90.082L173.219 91.614ZM175.548 79.2C175.548 74.7036 174.783 70.5563 173.219 66.786L169.525 68.318C170.863 71.545 171.548 75.1631 171.548 79.2H175.548ZM173.235 66.8249C171.773 63.0785 169.661 59.8127 166.898 57.0498L164.07 59.8782C166.427 62.2353 168.24 65.0282 169.509 68.2791L173.235 66.8249ZM166.922 57.074C164.245 54.3043 161.061 52.1857 157.395 50.719L155.909 54.433C159.069 55.6969 161.774 57.5036 164.046 59.854L166.922 57.074ZM157.395 50.719C153.725 49.251 149.758 48.528 145.516 48.528V52.528C149.295 52.528 152.753 53.1704 155.909 54.433L157.395 50.719ZM145.516 48.528C141.274 48.528 137.307 49.251 133.637 50.719L135.123 54.433C138.279 53.1704 141.737 52.528 145.516 52.528V48.528ZM133.621 50.7257C130.046 52.1922 126.88 54.3037 124.134 57.0498L126.962 59.8782C129.336 57.5043 132.058 55.6904 135.139 54.4263L133.621 50.7257ZM124.134 57.0498C121.38 59.8039 119.231 63.0563 117.685 66.786L121.379 68.318C122.734 65.0504 124.596 62.2441 126.962 59.8782L124.134 57.0498ZM117.669 66.8249C116.202 70.5847 115.484 74.7181 115.484 79.2H119.484C119.484 75.1485 120.132 71.5167 121.395 68.2791L117.669 66.8249ZM115.484 79.2C115.484 83.6026 116.204 87.7289 117.663 91.56L121.401 90.136C120.13 86.7991 119.484 83.16 119.484 79.2H115.484ZM117.685 91.614C119.225 95.3296 121.322 98.5743 123.982 101.326L126.858 98.546C124.569 96.1777 122.74 93.3637 121.379 90.082L117.685 91.614ZM124.006 101.35C126.76 104.105 129.976 106.217 133.637 107.681L135.123 103.967C131.957 102.701 129.2 100.887 126.834 98.5218L124.006 101.35ZM133.637 107.681C137.307 109.149 141.274 109.872 145.516 109.872V105.872C141.737 105.872 138.279 105.23 135.123 103.967L133.637 107.681ZM210.124 124H208.124V126H210.124V124ZM210.124 34.4V32.4H208.124V34.4H210.124ZM227.276 34.4L228.823 33.1323L228.223 32.4H227.276V34.4ZM280.14 98.912V100.912H284.365L281.687 97.6444L280.14 98.912ZM271.82 98.912H269.82V100.912H271.82V98.912ZM271.82 34.4V32.4H269.82V34.4H271.82ZM292.3 34.4H294.3V32.4H292.3V34.4ZM292.3 124V126H294.3V124H292.3ZM275.276 124L273.731 125.269L274.331 126H275.276V124ZM222.284 59.488V57.488H218.053L220.739 60.7575L222.284 59.488ZM230.604 59.488H232.604V57.488H230.604V59.488ZM230.604 124V126H232.604V124H230.604ZM212.124 124V34.4H208.124V124H212.124ZM210.124 36.4H227.276V32.4H210.124V36.4ZM225.729 35.6676L278.593 100.18L281.687 97.6444L228.823 33.1323L225.729 35.6676ZM280.14 96.912H271.82V100.912H280.14V96.912ZM273.82 98.912V34.4H269.82V98.912H273.82ZM271.82 36.4H292.3V32.4H271.82V36.4ZM290.3 34.4V124H294.3V34.4H290.3ZM292.3 122H275.276V126H292.3V122ZM276.821 122.731L223.829 58.2185L220.739 60.7575L273.731 125.269L276.821 122.731ZM222.284 61.488H230.604V57.488H222.284V61.488ZM228.604 59.488V124H232.604V59.488H228.604ZM230.604 122H210.124V126H230.604V122ZM332.059 124H330.059V126H332.059V124ZM332.059 51.296H334.059V49.296H332.059V51.296ZM303.387 51.296H301.387V53.296H303.387V51.296ZM303.387 34.4V32.4H301.387V34.4H303.387ZM381.467 34.4H383.467V32.4H381.467V34.4ZM381.467 51.296V53.296H383.467V51.296H381.467ZM352.795 51.296V49.296H350.795V51.296H352.795ZM352.795 124V126H354.795V124H352.795ZM334.059 124V51.296H330.059V124H334.059ZM332.059 49.296H303.387V53.296H332.059V49.296ZM305.387 51.296V34.4H301.387V51.296H305.387ZM303.387 36.4H381.467V32.4H303.387V36.4ZM379.467 34.4V51.296H383.467V34.4H379.467ZM381.467 49.296H352.795V53.296H381.467V49.296ZM350.795 51.296V124H354.795V51.296H350.795ZM352.795 122H332.059V126H352.795V122ZM376.348 124L374.521 123.186L373.267 126H376.348V124ZM416.284 34.4V32.4H414.986L414.457 33.5858L416.284 34.4ZM436.764 34.4L438.59 33.5836L438.061 32.4H436.764V34.4ZM476.828 124V126H479.913L478.654 123.184L476.828 124ZM455.068 124L453.22 124.765L453.732 126H455.068V124ZM422.3 44.896V42.896H419.307L420.452 45.6614L422.3 44.896ZM430.492 44.896L432.339 45.664L433.49 42.896H430.492V44.896ZM397.596 124V126H398.93L399.443 124.768L397.596 124ZM396.316 104.8L394.428 104.14L393.498 106.8H396.316V104.8ZM401.82 89.056V87.056H400.4L399.932 88.396L401.82 89.056ZM447.9 89.056L449.783 88.3824L449.309 87.056H447.9V89.056ZM453.532 104.8V106.8H456.372L455.415 104.126L453.532 104.8ZM378.175 124.814L418.111 35.2142L414.457 33.5858L374.521 123.186L378.175 124.814ZM416.284 36.4H436.764V32.4H416.284V36.4ZM434.938 35.2164L475.002 124.816L478.654 123.184L438.59 33.5836L434.938 35.2164ZM476.828 122H455.068V126H476.828V122ZM456.916 123.235L424.148 44.1306L420.452 45.6614L453.22 124.765L456.916 123.235ZM422.3 46.896H430.492V42.896H422.3V46.896ZM428.645 44.128L395.749 123.232L399.443 124.768L432.339 45.664L428.645 44.128ZM397.596 122H376.348V126H397.596V122ZM398.204 105.46L403.708 89.716L399.932 88.396L394.428 104.14L398.204 105.46ZM401.82 91.056H447.9V87.056H401.82V91.056ZM446.017 89.7296L451.649 105.474L455.415 104.126L449.783 88.3824L446.017 89.7296ZM453.532 102.8H396.316V106.8H453.532V102.8ZM504.684 103.52L502.686 103.616L502.91 108.263L506.128 104.904L504.684 103.52ZM503.532 79.584L502.081 78.2073L501.493 78.8269L501.534 79.6801L503.532 79.584ZM546.412 34.4V32.4H545.553L544.961 33.0233L546.412 34.4ZM569.452 34.4L570.917 35.7614L574.041 32.4H569.452V34.4ZM530.796 76L532.255 77.3679L532.261 77.3614L530.796 76ZM519.276 88.288L520.72 89.6715L520.728 89.6638L520.735 89.6559L519.276 88.288ZM486.124 124H484.124V126H486.124V124ZM486.124 34.4V32.4H484.124V34.4H486.124ZM506.732 34.4H508.732V32.4H506.732V34.4ZM506.732 124V126H508.732V124H506.732ZM547.436 124L545.887 125.265L546.487 126H547.436V124ZM515.564 84.96L514.093 83.6045L512.917 84.8805L514.015 86.2248L515.564 84.96ZM529.132 70.24L530.701 68.9997L529.249 67.1625L527.661 68.8845L529.132 70.24ZM571.628 124V126H575.758L573.197 122.76L571.628 124ZM506.682 103.424L505.53 79.4879L501.534 79.6801L502.686 103.616L506.682 103.424ZM504.983 80.9607L547.863 35.7767L544.961 33.0233L502.081 78.2073L504.983 80.9607ZM546.412 36.4H569.452V32.4H546.412V36.4ZM567.987 33.0386L529.331 74.6386L532.261 77.3614L570.917 35.7614L567.987 33.0386ZM529.337 74.6321L517.817 86.9201L520.735 89.6559L532.255 77.3679L529.337 74.6321ZM517.832 86.9045L503.24 102.136L506.128 104.904L520.72 89.6715L517.832 86.9045ZM488.124 124V34.4H484.124V124H488.124ZM486.124 36.4H506.732V32.4H486.124V36.4ZM504.732 34.4V124H508.732V34.4H504.732ZM506.732 122H486.124V126H506.732V122ZM548.985 122.735L517.113 83.6952L514.015 86.2248L545.887 125.265L548.985 122.735ZM517.035 86.3155L530.603 71.5955L527.661 68.8845L514.093 83.6045L517.035 86.3155ZM527.563 71.4803L570.059 125.24L573.197 122.76L530.701 68.9997L527.563 71.4803ZM571.628 122H547.436V126H571.628V122ZM627.748 122.336L626.979 124.182L626.979 124.182L627.748 122.336ZM615.588 113.632L614.037 114.895L614.037 114.895L615.588 113.632ZM614.052 89.056L615.796 90.0345L615.801 90.0256L615.806 90.0166L614.052 89.056ZM623.396 79.072L624.565 80.6951L624.575 80.6874L624.586 80.6797L623.396 79.072ZM639.652 69.856L640.48 71.6767L640.487 71.6734L640.494 71.67L639.652 69.856ZM650.916 63.968L651.976 65.664L651.976 65.664L650.916 63.968ZM656.676 59.104L658.297 60.275L658.312 60.2544L658.327 60.2334L656.676 59.104ZM656.036 48.864L654.665 50.3204L654.686 50.3399L654.707 50.3588L656.036 48.864ZM642.34 49.12L641.002 47.6334L641.002 47.6334L642.34 49.12ZM640.548 58.848L638.691 59.5908L638.7 59.6134L638.71 59.6358L640.548 58.848ZM643.492 63.072L642.002 64.4056L642.019 64.4257L642.038 64.4452L643.492 63.072ZM649.636 69.088L648.27 70.5486L648.276 70.5549L649.636 69.088ZM696.868 112.864L698.385 114.167L699.64 112.706L698.228 111.397L696.868 112.864ZM685.988 125.536L684.627 127.001L686.151 128.417L687.505 126.839L685.988 125.536ZM633.892 77.152L635.253 75.6865L635.247 75.6812L635.242 75.6759L633.892 77.152ZM622.756 62.432L620.859 63.0645L620.869 63.0957L620.881 63.1266L622.756 62.432ZM625.06 43.744L623.416 42.6056L623.416 42.6056L625.06 43.744ZM634.788 36.064L635.576 37.9023L635.592 37.8955L635.607 37.8885L634.788 36.064ZM662.948 35.808L662.12 37.6287L662.145 37.64L662.17 37.6505L662.948 35.808ZM671.908 42.848L670.265 43.9888L670.276 44.004L670.287 44.019L671.908 42.848ZM672.42 64.224L674.127 65.2669L674.133 65.2566L674.139 65.2461L672.42 64.224ZM663.588 72.928L662.462 71.2748L662.454 71.2805L662.446 71.2862L663.588 72.928ZM648.1 81.248L647.295 79.4174L647.286 79.4211L647.278 79.4248L648.1 81.248ZM637.732 87.008L638.905 88.6279L638.915 88.6208L637.732 87.008ZM632.356 92.512L630.634 91.4945L632.356 92.512ZM632.612 104.544L631.012 105.744L631.031 105.769L631.05 105.793L632.612 104.544ZM638.244 108.512L638.975 106.65L638.975 106.65L638.244 108.512ZM661.028 106.336L661.991 108.089L662.004 108.082L662.017 108.075L661.028 106.336ZM672.036 95.456L670.345 94.388L670.34 94.396L672.036 95.456ZM678.564 77.792L679.16 75.8828L677.008 75.2114L676.597 77.4278L678.564 77.792ZM694.564 82.784L696.523 83.1873L696.888 81.414L695.16 80.8748L694.564 82.784ZM684.964 105.44L683.341 104.271L683.341 104.271L684.964 105.44ZM667.94 120.288L667.019 118.513L667.94 120.288ZM645.284 123.536C638.929 123.536 633.353 122.505 628.517 120.49L626.979 124.182C632.383 126.434 638.497 127.536 645.284 127.536V123.536ZM628.517 120.49C623.649 118.462 619.884 115.742 617.139 112.369L614.037 114.895C617.265 118.861 621.607 121.944 626.979 124.182L628.517 120.49ZM617.139 112.369C614.446 109.061 613.108 105.284 613.108 100.96H609.108C609.108 106.194 610.757 110.865 614.037 114.895L617.139 112.369ZM613.108 100.96C613.108 96.8281 614.019 93.2034 615.796 90.0345L612.308 88.0775C610.16 91.9059 609.108 96.2172 609.108 100.96H613.108ZM615.806 90.0166C617.591 86.7582 620.473 83.6409 624.565 80.6951L622.227 77.4489C617.786 80.6471 614.439 84.1858 612.298 88.0954L615.806 90.0166ZM624.586 80.6797C628.707 77.6296 633.994 74.6245 640.48 71.6767L638.824 68.0353C632.168 71.0608 626.618 74.1997 622.206 77.4643L624.586 80.6797ZM640.494 71.67C645.307 69.4354 649.145 67.4331 651.976 65.664L649.856 62.272C647.225 63.9162 643.554 65.8392 638.81 68.042L640.494 71.67ZM651.976 65.664C654.794 63.9027 656.966 62.1178 658.297 60.275L655.055 57.933C654.167 59.1622 652.499 60.62 649.856 62.272L651.976 65.664ZM658.327 60.2334C659.615 58.3508 660.34 56.3431 660.34 54.24H656.34C656.34 55.3796 655.956 56.6145 655.025 57.9746L658.327 60.2334ZM660.34 54.24C660.34 51.5012 659.365 49.1468 657.365 47.3692L654.707 50.3588C655.779 51.3119 656.34 52.5414 656.34 54.24H660.34ZM657.407 47.4076C655.446 45.562 652.688 44.816 649.508 44.816V48.816C652.13 48.816 653.725 49.4353 654.665 50.3204L657.407 47.4076ZM649.508 44.816C646.112 44.816 643.185 45.6687 641.002 47.6334L643.678 50.6066C644.908 49.4993 646.76 48.816 649.508 48.816V44.816ZM641.002 47.6334C638.855 49.5658 637.78 52.0778 637.78 55.008H641.78C641.78 53.1595 642.412 51.7462 643.678 50.6066L641.002 47.6334ZM637.78 55.008C637.78 56.5615 638.092 58.0929 638.691 59.5908L642.405 58.1052C641.98 57.0431 641.78 56.0145 641.78 55.008H637.78ZM638.71 59.6358C639.346 61.1197 640.49 62.716 642.002 64.4056L644.982 61.7384C643.593 60.1853 642.774 58.9656 642.386 58.0602L638.71 59.6358ZM642.038 64.4452C643.53 66.025 645.612 68.0625 648.27 70.5485L651.002 67.6275C648.369 65.1642 646.355 63.191 644.946 61.6987L642.038 64.4452ZM648.276 70.5549L695.508 114.331L698.228 111.397L650.996 67.6211L648.276 70.5549ZM695.351 111.561L684.471 124.233L687.505 126.839L698.385 114.167L695.351 111.561ZM687.349 124.071L635.253 75.6865L632.531 78.6175L684.627 127.001L687.349 124.071ZM635.242 75.6759C632.317 73.0019 630.02 70.5338 628.324 68.272L625.124 70.672C627.012 73.1889 629.494 75.8408 632.542 78.6281L635.242 75.6759ZM628.324 68.272C626.624 66.005 625.405 63.8265 624.631 61.7374L620.881 63.1266C621.813 65.6455 623.24 68.1604 625.124 70.672L628.324 68.272ZM624.653 61.7995C623.955 59.7034 623.604 57.5278 623.604 55.264H619.604C619.604 57.9495 620.021 60.5526 620.859 63.0645L624.653 61.7995ZM623.604 55.264C623.604 51.2866 624.65 47.8504 626.704 44.8824L623.416 42.6056C620.862 46.2936 619.604 50.5374 619.604 55.264H623.604ZM626.704 44.8824C628.769 41.9008 631.696 39.565 635.576 37.9023L634 34.2257C629.517 36.147 625.959 38.9312 623.416 42.6056L626.704 44.8824ZM635.607 37.8885C639.479 36.1502 644.095 35.248 649.508 35.248V31.248C643.657 31.248 638.46 32.2232 633.969 34.2395L635.607 37.8885ZM649.508 35.248C654.5 35.248 658.684 36.0669 662.12 37.6287L663.776 33.9873C659.702 32.1358 654.926 31.248 649.508 31.248V35.248ZM662.17 37.6505C665.702 39.1419 668.372 41.2627 670.265 43.9888L673.551 41.7072C671.177 38.2893 667.874 35.7167 663.726 33.9655L662.17 37.6505ZM670.287 44.019C672.229 46.7079 673.236 49.9545 673.236 53.856H677.236C677.236 49.2242 676.025 45.1321 673.529 41.677L670.287 44.019ZM673.236 53.856C673.236 57.2593 672.39 60.3609 670.701 63.2018L674.139 65.2461C676.205 61.7725 677.236 57.9621 677.236 53.856H673.236ZM670.713 63.1811C669.026 65.942 666.316 68.6514 662.462 71.2748L664.714 74.5812C668.882 71.7433 672.059 68.65 674.127 65.2669L670.713 63.1811ZM662.446 71.2862C658.663 73.918 653.625 76.6318 647.295 79.4174L648.905 83.0786C655.375 80.2322 660.663 77.3994 664.73 74.5698L662.446 71.2862ZM647.278 79.4248C642.855 81.4192 639.263 83.4052 636.549 85.3952L638.915 88.6208C641.321 86.8561 644.641 85.0021 648.922 83.0712L647.278 79.4248ZM636.559 85.3881C633.945 87.281 631.927 89.3062 630.634 91.4945L634.078 93.5295C635.003 91.9631 636.57 90.319 638.905 88.6279L636.559 85.3881ZM630.634 91.4945C629.332 93.6977 628.692 96.1431 628.692 98.784H632.692C632.692 96.8168 633.161 95.081 634.078 93.5295L630.634 91.4945ZM628.692 98.784C628.692 101.35 629.472 103.691 631.012 105.744L634.212 103.344C633.192 101.984 632.692 100.485 632.692 98.784H628.692ZM631.05 105.793C632.67 107.818 634.855 109.329 637.513 110.374L638.975 106.65C636.854 105.817 635.285 104.684 634.174 103.295L631.05 105.793ZM637.513 110.374C640.187 111.424 643.262 111.92 646.692 111.92V107.92C643.636 107.92 641.079 107.477 638.975 106.65L637.513 110.374ZM646.692 111.92C652.217 111.92 657.329 110.648 661.991 108.089L660.065 104.583C656.023 106.802 651.578 107.92 646.692 107.92V111.92ZM662.017 108.075C666.692 105.416 670.592 101.54 673.732 96.516L670.34 94.396C667.507 98.9292 664.068 102.306 660.039 104.597L662.017 108.075ZM673.727 96.524C676.961 91.4031 679.214 85.2643 680.531 78.1562L676.597 77.4278C675.354 84.1437 673.255 89.7809 670.345 94.388L673.727 96.524ZM677.968 79.7012L693.968 84.6932L695.16 80.8748L679.16 75.8828L677.968 79.7012ZM692.605 82.3807C690.863 90.8438 687.765 98.1273 683.341 104.271L686.587 106.609C691.379 99.9527 694.681 92.1322 696.523 83.1873L692.605 82.3807ZM683.341 104.271C678.909 110.427 673.471 115.164 667.019 118.513L668.861 122.063C675.892 118.414 681.803 113.253 686.587 106.609L683.341 104.271ZM667.019 118.513C660.59 121.849 653.359 123.536 645.284 123.536V127.536C653.934 127.536 661.807 125.724 668.861 122.063L667.019 118.513ZM10.624 280H8.624V282H10.624V280ZM10.624 190.4V188.4H8.624V190.4H10.624ZM27.776 190.4L29.4885 189.367L28.9052 188.4H27.776V190.4ZM65.92 253.632V255.632H69.4622L67.6325 252.599L65.92 253.632ZM56.832 253.632L55.1118 252.612L53.3204 255.632H56.832V253.632ZM94.336 190.4V188.4H93.1969L92.6158 189.38L94.336 190.4ZM111.36 190.4L113.36 190.394L113.354 188.4H111.36V190.4ZM111.616 280V282H113.622L113.616 279.994L111.616 280ZM92.16 280L90.16 280.004L90.1643 282H92.16V280ZM92.032 220.224V218.224H90.0277L90.032 220.228L92.032 220.224ZM95.616 220.224L97.3345 221.247L99.1345 218.224H95.616V220.224ZM65.664 270.528V272.528H66.8008L67.3824 271.551L65.664 270.528ZM56.32 270.528L54.6112 271.567L55.1955 272.528H56.32V270.528ZM25.728 220.224V218.224H22.1709L24.0192 221.263L25.728 220.224ZM30.08 220.224H32.08V218.224H30.08V220.224ZM30.08 280V282H32.08V280H30.08ZM12.624 280V190.4H8.624V280H12.624ZM10.624 192.4H27.776V188.4H10.624V192.4ZM26.0635 191.433L64.2075 254.665L67.6325 252.599L29.4885 189.367L26.0635 191.433ZM65.92 251.632H56.832V255.632H65.92V251.632ZM58.5522 254.652L96.0562 191.42L92.6158 189.38L55.1118 252.612L58.5522 254.652ZM94.336 192.4H111.36V188.4H94.336V192.4ZM109.36 190.406L109.616 280.006L113.616 279.994L113.36 190.394L109.36 190.406ZM111.616 278H92.16V282H111.616V278ZM94.16 279.996L94.032 220.22L90.032 220.228L90.16 280.004L94.16 279.996ZM92.032 222.224H95.616V218.224H92.032V222.224ZM93.8976 219.201L63.9456 269.505L67.3824 271.551L97.3345 221.247L93.8976 219.201ZM65.664 268.528H56.32V272.528H65.664V268.528ZM58.0288 269.489L27.4368 219.185L24.0192 221.263L54.6112 271.567L58.0288 269.489ZM25.728 222.224H30.08V218.224H25.728V222.224ZM28.08 220.224V280H32.08V220.224H28.08ZM30.08 278H10.624V282H30.08V278ZM121.098 280L119.271 279.186L118.017 282H121.098V280ZM161.034 190.4V188.4H159.736L159.207 189.586L161.034 190.4ZM181.514 190.4L183.34 189.584L182.811 188.4H181.514V190.4ZM221.578 280V282H224.663L223.404 279.184L221.578 280ZM199.818 280L197.97 280.765L198.482 282H199.818V280ZM167.05 200.896V198.896H164.057L165.202 201.661L167.05 200.896ZM175.242 200.896L177.089 201.664L178.24 198.896H175.242V200.896ZM142.346 280V282H143.68L144.193 280.768L142.346 280ZM141.066 260.8L139.178 260.14L138.248 262.8H141.066V260.8ZM146.57 245.056V243.056H145.15L144.682 244.396L146.57 245.056ZM192.65 245.056L194.533 244.382L194.059 243.056H192.65V245.056ZM198.282 260.8V262.8H201.122L200.165 260.126L198.282 260.8ZM122.925 280.814L162.861 191.214L159.207 189.586L119.271 279.186L122.925 280.814ZM161.034 192.4H181.514V188.4H161.034V192.4ZM179.688 191.216L219.752 280.816L223.404 279.184L183.34 189.584L179.688 191.216ZM221.578 278H199.818V282H221.578V278ZM201.666 279.235L168.898 200.131L165.202 201.661L197.97 280.765L201.666 279.235ZM167.05 202.896H175.242V198.896H167.05V202.896ZM173.395 200.128L140.499 279.232L144.193 280.768L177.089 201.664L173.395 200.128ZM142.346 278H121.098V282H142.346V278ZM142.954 261.46L148.458 245.716L144.682 244.396L139.178 260.14L142.954 261.46ZM146.57 247.056H192.65V243.056H146.57V247.056ZM190.767 245.73L196.399 261.474L200.165 260.126L194.533 244.382L190.767 245.73ZM198.282 258.8H141.066V262.8H198.282V258.8ZM239.706 278.72L239.134 280.636L239.145 280.64L239.157 280.643L239.706 278.72ZM223.834 271.168L222.011 270.346L221.359 271.792L222.618 272.756L223.834 271.168ZM230.874 255.552L232.033 253.922L230.051 252.512L229.051 254.73L230.874 255.552ZM244.442 262.336L243.791 264.227L243.809 264.233L243.828 264.239L244.442 262.336ZM270.298 263.744L270.891 265.654L270.911 265.648L270.93 265.641L270.298 263.744ZM275.93 260.288L274.386 259.017L274.386 259.017L275.93 260.288ZM274.906 249.664L273.683 251.247L273.706 251.264L273.73 251.281L274.906 249.664ZM267.482 246.208L266.898 248.121L266.922 248.128L266.947 248.135L267.482 246.208ZM257.242 243.648L256.789 245.596L256.815 245.602L256.841 245.607L257.242 243.648ZM246.106 240.576L245.487 242.478L245.5 242.482L246.106 240.576ZM235.994 235.968L234.951 237.675L234.951 237.675L235.994 235.968ZM228.442 228.544L226.735 229.587L226.746 229.604L226.757 229.621L228.442 228.544ZM229.722 202.816L228.053 201.714L228.047 201.722L229.722 202.816ZM242.266 192.704L243.081 194.531L243.094 194.525L242.266 192.704ZM280.026 190.912L279.541 192.852L279.555 192.856L279.57 192.859L280.026 190.912ZM294.49 196.8L296.343 197.553L296.973 196.004L295.559 195.11L294.49 196.8ZM288.09 212.544L287.098 214.28L289.082 215.414L289.943 213.297L288.09 212.544ZM275.546 207.296L274.997 209.219L275.015 209.224L275.033 209.229L275.546 207.296ZM253.402 206.912L252.713 205.034L252.713 205.034L253.402 206.912ZM247.898 210.624L249.487 211.839L249.503 211.817L249.519 211.795L247.898 210.624ZM249.05 221.376L247.827 222.959L247.85 222.976L247.874 222.993L249.05 221.376ZM256.474 224.704L255.939 226.631L255.939 226.631L256.474 224.704ZM266.586 227.264L266.133 229.212L266.143 229.214L266.586 227.264ZM277.722 230.208L277.143 232.122L277.155 232.126L277.722 230.208ZM287.962 234.688L289.005 232.981L289.005 232.981L287.962 234.688ZM295.386 242.112L293.679 243.155L293.69 243.172L293.701 243.189L295.386 242.112ZM294.106 267.584L295.765 268.701L295.765 268.701L294.106 267.584ZM281.434 277.696L280.606 275.875L280.596 275.88L281.434 277.696ZM260.314 279.536C253.323 279.536 246.639 278.621 240.255 276.797L239.157 280.643C245.914 282.574 252.969 283.536 260.314 283.536V279.536ZM240.278 276.804C233.863 274.887 228.813 272.462 225.05 269.58L222.618 272.756C226.877 276.018 232.408 278.627 239.134 280.636L240.278 276.804ZM225.657 271.99L232.697 256.374L229.051 254.73L222.011 270.346L225.657 271.99ZM229.715 257.182C233.735 260.04 238.434 262.383 243.791 264.227L245.093 260.445C240.039 258.705 235.693 256.525 232.033 253.922L229.715 257.182ZM243.828 264.239C249.31 266.008 254.85 266.896 260.442 266.896V262.896C255.282 262.896 250.155 262.077 245.056 260.433L243.828 264.239ZM260.442 266.896C264.637 266.896 268.146 266.506 270.891 265.654L269.705 261.834C267.5 262.518 264.439 262.896 260.442 262.896V266.896ZM270.93 265.641C273.7 264.718 275.958 263.4 277.474 261.559L274.386 259.017C273.513 260.077 272.016 261.063 269.666 261.847L270.93 265.641ZM277.474 261.559C278.963 259.751 279.722 257.638 279.722 255.296H275.722C275.722 256.709 275.286 257.924 274.386 259.017L277.474 261.559ZM279.722 255.296C279.722 252.289 278.495 249.801 276.082 248.047L273.73 251.281C275.072 252.258 275.722 253.524 275.722 255.296H279.722ZM276.129 248.081C273.99 246.428 271.258 245.181 268.017 244.281L266.947 248.135C269.85 248.942 272.068 249.998 273.683 251.247L276.129 248.081ZM268.066 244.295C264.924 243.335 261.448 242.467 257.643 241.689L256.841 245.607C260.545 246.365 263.896 247.204 266.898 248.121L268.066 244.295ZM257.695 241.7C254.08 240.859 250.419 239.849 246.712 238.67L245.5 242.482C249.303 243.692 253.066 244.73 256.789 245.596L257.695 241.7ZM246.725 238.674C243.194 237.524 239.967 236.052 237.037 234.261L234.951 237.675C238.165 239.639 241.68 241.238 245.487 242.478L246.725 238.674ZM237.037 234.261C234.227 232.545 231.929 230.287 230.127 227.467L226.757 229.621C228.881 232.945 231.617 235.637 234.951 237.675L237.037 234.261ZM230.149 227.501C228.516 224.83 227.626 221.296 227.626 216.768H223.626C223.626 221.797 224.613 226.114 226.735 229.587L230.149 227.501ZM227.626 216.768C227.626 212.026 228.884 207.757 231.397 203.91L228.047 201.722C225.099 206.238 223.626 211.27 223.626 216.768H227.626ZM231.391 203.918C233.961 200.025 237.816 196.879 243.081 194.53L241.451 190.878C235.623 193.478 231.115 197.074 228.053 201.714L231.391 203.918ZM243.094 194.525C248.389 192.118 255.125 190.864 263.386 190.864V186.864C254.751 186.864 247.407 188.17 241.438 190.883L243.094 194.525ZM263.386 190.864C268.855 190.864 274.238 191.527 279.541 192.852L280.511 188.972C274.891 187.567 269.181 186.864 263.386 186.864V190.864ZM279.57 192.859C284.842 194.095 289.451 195.979 293.421 198.49L295.559 195.11C291.166 192.33 286.132 190.289 280.482 188.965L279.57 192.859ZM292.637 196.047L286.237 211.791L289.943 213.297L296.343 197.553L292.637 196.047ZM289.082 210.808C284.767 208.342 280.426 206.521 276.059 205.363L275.033 209.229C279.029 210.289 283.05 211.968 287.098 214.28L289.082 210.808ZM276.095 205.373C271.75 204.132 267.469 203.504 263.258 203.504V207.504C267.068 207.504 270.979 208.071 274.997 209.219L276.095 205.373ZM263.258 203.504C259.113 203.504 255.572 203.986 252.713 205.034L254.091 208.79C256.352 207.96 259.382 207.504 263.258 207.504V203.504ZM252.713 205.034C249.936 206.053 247.701 207.481 246.277 209.453L249.519 211.795C250.313 210.695 251.748 209.649 254.091 208.79L252.713 205.034ZM246.309 209.409C244.913 211.235 244.234 213.377 244.234 215.744H248.234C248.234 214.186 248.665 212.914 249.487 211.839L246.309 209.409ZM244.234 215.744C244.234 218.689 245.477 221.142 247.827 222.959L250.273 219.793C248.869 218.708 248.234 217.407 248.234 215.744H244.234ZM247.874 222.993C250.002 224.541 252.716 225.736 255.939 226.631L257.009 222.777C254.088 221.965 251.853 220.941 250.226 219.759L247.874 222.993ZM255.939 226.631C259.042 227.493 262.441 228.353 266.133 229.212L267.039 225.316C263.392 224.468 260.05 223.622 257.009 222.777L255.939 226.631ZM266.143 229.214C269.852 230.057 273.519 231.027 277.143 232.122L278.301 228.294C274.587 227.171 270.829 226.177 267.029 225.314L266.143 229.214ZM277.155 232.126C280.757 233.19 284.008 234.616 286.919 236.395L289.005 232.981C285.772 231.006 282.196 229.444 278.289 228.29L277.155 232.126ZM286.919 236.395C289.72 238.106 291.968 240.354 293.679 243.155L297.093 241.069C295.05 237.726 292.348 235.024 289.005 232.981L286.919 236.395ZM293.701 243.189C295.406 245.859 296.33 249.34 296.33 253.76H300.33C300.33 248.793 299.291 244.509 297.071 241.035L293.701 243.189ZM296.33 253.76C296.33 258.396 295.041 262.615 292.447 266.467L295.765 268.701C298.803 264.19 300.33 259.193 300.33 253.76H296.33ZM292.447 266.467C289.88 270.278 285.978 273.434 280.606 275.875L282.262 279.517C288.154 276.838 292.7 273.252 295.765 268.701L292.447 266.467ZM280.596 275.88C275.395 278.281 268.665 279.536 260.314 279.536V283.536C269.029 283.536 276.38 282.231 282.272 279.512L280.596 275.88ZM322.483 270.912L323.889 269.489L323.889 269.489L322.483 270.912ZM311.731 190.4V188.4H309.731V190.4H311.731ZM332.467 190.4H334.467V188.4H332.467V190.4ZM337.715 258.24L336.252 259.603L336.252 259.603L337.715 258.24ZM367.155 258.24L368.618 259.603L368.618 259.603L367.155 258.24ZM372.403 190.4V188.4H370.403V190.4H372.403ZM392.883 190.4H394.883V188.4H392.883V190.4ZM382.131 270.912L383.537 272.335L383.537 272.335L382.131 270.912ZM352.307 279.536C339.974 279.536 330.591 276.111 323.889 269.489L321.077 272.335C328.711 279.878 339.211 283.536 352.307 283.536V279.536ZM323.889 269.489C317.207 262.887 313.731 253.352 313.731 240.576H309.731C309.731 254.082 313.423 264.772 321.077 272.335L323.889 269.489ZM313.731 240.576V190.4H309.731V240.576H313.731ZM311.731 192.4H332.467V188.4H311.731V192.4ZM330.467 190.4V239.808H334.467V190.4H330.467ZM330.467 239.808C330.467 248.533 332.241 255.299 336.252 259.603L339.178 256.877C336.191 253.671 334.467 248.149 334.467 239.808H330.467ZM336.252 259.603C340.213 263.855 345.703 265.872 352.435 265.872V261.872C346.538 261.872 342.214 260.135 339.178 256.877L336.252 259.603ZM352.435 265.872C359.167 265.872 364.657 263.855 368.618 259.603L365.692 256.877C362.656 260.135 358.332 261.872 352.435 261.872V265.872ZM368.618 259.603C372.629 255.299 374.403 248.533 374.403 239.808H370.403C370.403 248.149 368.679 253.671 365.692 256.877L368.618 259.603ZM374.403 239.808V190.4H370.403V239.808H374.403ZM372.403 192.4H392.883V188.4H372.403V192.4ZM390.883 190.4V240.576H394.883V190.4H390.883ZM390.883 240.576C390.883 253.352 387.407 262.887 380.725 269.489L383.537 272.335C391.191 264.772 394.883 254.082 394.883 240.576H390.883ZM380.725 269.489C374.023 276.111 364.64 279.536 352.307 279.536V283.536C365.403 283.536 375.903 279.878 383.537 272.335L380.725 269.489ZM431.934 259.52L429.936 259.616L430.16 264.263L433.378 260.904L431.934 259.52ZM430.782 235.584L429.331 234.207L428.743 234.827L428.784 235.68L430.782 235.584ZM473.662 190.4V188.4H472.803L472.211 189.023L473.662 190.4ZM496.702 190.4L498.167 191.761L501.291 188.4H496.702V190.4ZM458.046 232L459.505 233.368L459.511 233.361L458.046 232ZM446.526 244.288L447.97 245.672L447.978 245.664L447.985 245.656L446.526 244.288ZM413.374 280H411.374V282H413.374V280ZM413.374 190.4V188.4H411.374V190.4H413.374ZM433.982 190.4H435.982V188.4H433.982V190.4ZM433.982 280V282H435.982V280H433.982ZM474.686 280L473.137 281.265L473.737 282H474.686V280ZM442.814 240.96L441.343 239.605L440.167 240.881L441.265 242.225L442.814 240.96ZM456.382 226.24L457.951 225L456.499 223.162L454.911 224.885L456.382 226.24ZM498.878 280V282H503.008L500.447 278.76L498.878 280ZM433.932 259.424L432.78 235.488L428.784 235.68L429.936 259.616L433.932 259.424ZM432.233 236.961L475.113 191.777L472.211 189.023L429.331 234.207L432.233 236.961ZM473.662 192.4H496.702V188.4H473.662V192.4ZM495.237 189.039L456.581 230.639L459.511 233.361L498.167 191.761L495.237 189.039ZM456.587 230.632L445.067 242.92L447.985 245.656L459.505 233.368L456.587 230.632ZM445.082 242.904L430.49 258.136L433.378 260.904L447.97 245.672L445.082 242.904ZM415.374 280V190.4H411.374V280H415.374ZM413.374 192.4H433.982V188.4H413.374V192.4ZM431.982 190.4V280H435.982V190.4H431.982ZM433.982 278H413.374V282H433.982V278ZM476.235 278.735L444.363 239.695L441.265 242.225L473.137 281.265L476.235 278.735ZM444.285 242.315L457.853 227.595L454.911 224.885L441.343 239.605L444.285 242.315ZM454.813 227.48L497.309 281.24L500.447 278.76L457.951 225L454.813 227.48ZM498.878 278H474.686V282H498.878V278ZM492.223 280L490.396 279.186L489.142 282H492.223V280ZM532.159 190.4V188.4H530.861L530.332 189.586L532.159 190.4ZM552.639 190.4L554.465 189.584L553.936 188.4H552.639V190.4ZM592.703 280V282H595.788L594.529 279.184L592.703 280ZM570.943 280L569.095 280.765L569.607 282H570.943V280ZM538.175 200.896V198.896H535.182L536.327 201.661L538.175 200.896ZM546.367 200.896L548.214 201.664L549.365 198.896H546.367V200.896ZM513.471 280V282H514.805L515.318 280.768L513.471 280ZM512.191 260.8L510.303 260.14L509.373 262.8H512.191V260.8ZM517.695 245.056V243.056H516.275L515.807 244.396L517.695 245.056ZM563.775 245.056L565.658 244.382L565.184 243.056H563.775V245.056ZM569.407 260.8V262.8H572.247L571.29 260.126L569.407 260.8ZM494.05 280.814L533.986 191.214L530.332 189.586L490.396 279.186L494.05 280.814ZM532.159 192.4H552.639V188.4H532.159V192.4ZM550.813 191.216L590.877 280.816L594.529 279.184L554.465 189.584L550.813 191.216ZM592.703 278H570.943V282H592.703V278ZM572.791 279.235L540.023 200.131L536.327 201.661L569.095 280.765L572.791 279.235ZM538.175 202.896H546.367V198.896H538.175V202.896ZM544.52 200.128L511.624 279.232L515.318 280.768L548.214 201.664L544.52 200.128ZM513.471 278H492.223V282H513.471V278ZM514.079 261.46L519.583 245.716L515.807 244.396L510.303 260.14L514.079 261.46ZM517.695 247.056H563.775V243.056H517.695V247.056ZM561.892 245.73L567.524 261.474L571.29 260.126L565.658 244.382L561.892 245.73ZM569.407 258.8H512.191V262.8H569.407V258.8ZM601.999 280H599.999V282H601.999V280ZM601.999 190.4V188.4H599.999V190.4H601.999ZM619.151 190.4L620.698 189.132L620.098 188.4H619.151V190.4ZM672.015 254.912V256.912H676.24L673.562 253.644L672.015 254.912ZM663.695 254.912H661.695V256.912H663.695V254.912ZM663.695 190.4V188.4H661.695V190.4H663.695ZM684.175 190.4H686.175V188.4H684.175V190.4ZM684.175 280V282H686.175V280H684.175ZM667.151 280L665.606 281.269L666.206 282H667.151V280ZM614.159 215.488V213.488H609.928L612.614 216.757L614.159 215.488ZM622.479 215.488H624.479V213.488H622.479V215.488ZM622.479 280V282H624.479V280H622.479ZM603.999 280V190.4H599.999V280H603.999ZM601.999 192.4H619.151V188.4H601.999V192.4ZM617.604 191.668L670.468 256.18L673.562 253.644L620.698 189.132L617.604 191.668ZM672.015 252.912H663.695V256.912H672.015V252.912ZM665.695 254.912V190.4H661.695V254.912H665.695ZM663.695 192.4H684.175V188.4H663.695V192.4ZM682.175 190.4V280H686.175V190.4H682.175ZM684.175 278H667.151V282H684.175V278ZM668.696 278.731L615.704 214.219L612.614 216.757L665.606 281.269L668.696 278.731ZM614.159 217.488H622.479V213.488H614.159V217.488ZM620.479 215.488V280H624.479V215.488H620.479ZM622.479 278H601.999V282H622.479V278Z" fill="#EEEEEE" mask="url(#path-1-outside-1_525_4128)"/>
</svg>
