<svg width="334" height="127" viewBox="0 0 334 127" fill="none" xmlns="http://www.w3.org/2000/svg">
<path d="M1 36.7753C5.25126 29.5481 19.8118 15.5402 44.044 17.3258C74.3342 19.5577 77.2038 44.4276 119.61 36.7753C162.016 29.123 154.364 -6.26877 182.422 2.34003C210.481 10.9488 224.51 47.6161 263.409 36.7753C294.528 28.1026 322.501 14.4561 332.598 8.71688" stroke="#EAB308" stroke-width="2"/>
<path d="M1 65.8546C5.25126 58.6275 19.8118 44.6196 44.044 46.4051C74.3342 48.637 77.2038 73.507 119.61 65.8546C162.016 58.2023 154.364 22.8106 182.422 31.4194C210.481 40.0282 224.51 76.6954 263.409 65.8546C294.528 57.182 322.501 43.5354 332.598 37.7962" stroke="#EAB308" stroke-width="2"/>
<path d="M1 94.9342C5.25126 87.7071 19.8118 73.6992 44.044 75.4847C74.3342 77.7166 77.2038 102.587 119.61 94.9342C162.016 87.2819 154.364 51.8902 182.422 60.499C210.481 69.1078 224.51 105.775 263.409 94.9342C294.528 86.2616 322.501 72.615 332.598 66.8758" stroke="#EAB308" stroke-width="2"/>
<path d="M1 124.014C5.25126 116.786 19.8118 102.779 44.044 104.564C74.3342 106.796 77.2038 131.666 119.61 124.014C162.016 116.361 154.364 80.9695 182.422 89.5783C210.481 98.1871 224.51 134.854 263.409 124.014C294.528 115.341 322.501 101.694 332.598 95.9552" stroke="#EAB308" stroke-width="2"/>
</svg>
