<svg width="489" height="312" viewBox="0 0 489 312" fill="none" xmlns="http://www.w3.org/2000/svg">
<mask id="path-1-outside-1_497_6371" maskUnits="userSpaceOnUse" x="1" y="32" width="489" height="252" fill="black">
<rect fill="white" x="1" y="32" width="489" height="252"/>
<path d="M10.624 124V34.4H27.776L65.92 97.632H56.832L94.336 34.4H111.36L111.616 124H92.16L92.032 64.224H95.616L65.664 114.528H56.32L25.728 64.224H30.08V124H10.624ZM151.946 70.496H195.082V86.624H151.946V70.496ZM153.482 107.36H202.25V124H132.874V34.4H200.586V51.04H153.482V107.36ZM218.749 124V34.4H259.453C269.181 34.4 277.757 36.2773 285.181 40.032C292.605 43.7013 298.408 48.864 302.589 55.52C306.77 62.176 308.861 70.0693 308.861 79.2C308.861 88.2453 306.77 96.1387 302.589 102.88C298.408 109.536 292.605 114.741 285.181 118.496C277.757 122.165 269.181 124 259.453 124H218.749ZM239.485 106.976H258.429C264.402 106.976 269.565 105.867 273.917 103.648C278.354 101.344 281.768 98.1013 284.157 93.92C286.632 89.7387 287.869 84.832 287.869 79.2C287.869 73.4827 286.632 68.576 284.157 64.48C281.768 60.2987 278.354 57.0987 273.917 54.88C269.565 52.576 264.402 51.424 258.429 51.424H239.485V106.976ZM324.499 124V34.4H345.235V124H324.499ZM354.723 124L394.659 34.4H415.139L455.203 124H433.443L400.675 44.896H408.867L375.971 124H354.723ZM374.691 104.8L380.195 89.056H426.275L431.907 104.8H374.691ZM40.064 281.536C32.896 281.536 26.0267 280.597 19.456 278.72C12.8853 276.757 7.59467 274.24 3.584 271.168L10.624 255.552C14.464 258.283 18.9867 260.544 24.192 262.336C29.4827 264.043 34.816 264.896 40.192 264.896C44.288 264.896 47.5733 264.512 50.048 263.744C52.608 262.891 54.4853 261.739 55.68 260.288C56.8747 258.837 57.472 257.173 57.472 255.296C57.472 252.907 56.5333 251.029 54.656 249.664C52.7787 248.213 50.304 247.061 47.232 246.208C44.16 245.269 40.7467 244.416 36.992 243.648C33.3227 242.795 29.6107 241.771 25.856 240.576C22.1867 239.381 18.816 237.845 15.744 235.968C12.672 234.091 10.1547 231.616 8.192 228.544C6.31467 225.472 5.376 221.547 5.376 216.768C5.376 211.648 6.74133 206.997 9.472 202.816C12.288 198.549 16.4693 195.179 22.016 192.704C27.648 190.144 34.688 188.864 43.136 188.864C48.768 188.864 54.3147 189.547 59.776 190.912C65.2373 192.192 70.0587 194.155 74.24 196.8L67.84 212.544C63.6587 210.155 59.4773 208.405 55.296 207.296C51.1147 206.101 47.0187 205.504 43.008 205.504C38.9973 205.504 35.712 205.973 33.152 206.912C30.592 207.851 28.7573 209.088 27.648 210.624C26.5387 212.075 25.984 213.781 25.984 215.744C25.984 218.048 26.9227 219.925 28.8 221.376C30.6773 222.741 33.152 223.851 36.224 224.704C39.296 225.557 42.6667 226.411 46.336 227.264C50.0907 228.117 53.8027 229.099 57.472 230.208C61.2267 231.317 64.64 232.811 67.712 234.688C70.784 236.565 73.2587 239.04 75.136 242.112C77.0987 245.184 78.08 249.067 78.08 253.76C78.08 258.795 76.672 263.403 73.856 267.584C71.04 271.765 66.816 275.136 61.184 277.696C55.6373 280.256 48.5973 281.536 40.064 281.536ZM135.769 281.536C128.686 281.536 122.116 280.384 116.057 278.08C110.084 275.776 104.878 272.533 100.441 268.352C96.089 264.171 92.6757 259.264 90.201 253.632C87.8117 248 86.617 241.856 86.617 235.2C86.617 228.544 87.8117 222.4 90.201 216.768C92.6757 211.136 96.1317 206.229 100.569 202.048C105.006 197.867 110.212 194.624 116.185 192.32C122.158 190.016 128.644 188.864 135.641 188.864C142.724 188.864 149.209 190.016 155.097 192.32C161.07 194.624 166.233 197.867 170.585 202.048C175.022 206.229 178.478 211.136 180.953 216.768C183.428 222.315 184.665 228.459 184.665 235.2C184.665 241.856 183.428 248.043 180.953 253.76C178.478 259.392 175.022 264.299 170.585 268.48C166.233 272.576 161.07 275.776 155.097 278.08C149.209 280.384 142.766 281.536 135.769 281.536ZM135.641 263.872C139.652 263.872 143.321 263.189 146.649 261.824C150.062 260.459 153.049 258.496 155.609 255.936C158.169 253.376 160.132 250.347 161.497 246.848C162.948 243.349 163.673 239.467 163.673 235.2C163.673 230.933 162.948 227.051 161.497 223.552C160.132 220.053 158.169 217.024 155.609 214.464C153.134 211.904 150.19 209.941 146.777 208.576C143.364 207.211 139.652 206.528 135.641 206.528C131.63 206.528 127.918 207.211 124.505 208.576C121.177 209.941 118.233 211.904 115.673 214.464C113.113 217.024 111.108 220.053 109.657 223.552C108.292 227.051 107.609 230.933 107.609 235.2C107.609 239.381 108.292 243.264 109.657 246.848C111.108 250.347 113.07 253.376 115.545 255.936C118.105 258.496 121.092 260.459 124.505 261.824C127.918 263.189 131.63 263.872 135.641 263.872ZM229.689 281.536C222.521 281.536 215.652 280.597 209.081 278.72C202.51 276.757 197.22 274.24 193.209 271.168L200.249 255.552C204.089 258.283 208.612 260.544 213.817 262.336C219.108 264.043 224.441 264.896 229.817 264.896C233.913 264.896 237.198 264.512 239.673 263.744C242.233 262.891 244.11 261.739 245.305 260.288C246.5 258.837 247.097 257.173 247.097 255.296C247.097 252.907 246.158 251.029 244.281 249.664C242.404 248.213 239.929 247.061 236.857 246.208C233.785 245.269 230.372 244.416 226.617 243.648C222.948 242.795 219.236 241.771 215.481 240.576C211.812 239.381 208.441 237.845 205.369 235.968C202.297 234.091 199.78 231.616 197.817 228.544C195.94 225.472 195.001 221.547 195.001 216.768C195.001 211.648 196.366 206.997 199.097 202.816C201.913 198.549 206.094 195.179 211.641 192.704C217.273 190.144 224.313 188.864 232.761 188.864C238.393 188.864 243.94 189.547 249.401 190.912C254.862 192.192 259.684 194.155 263.865 196.8L257.465 212.544C253.284 210.155 249.102 208.405 244.921 207.296C240.74 206.101 236.644 205.504 232.633 205.504C228.622 205.504 225.337 205.973 222.777 206.912C220.217 207.851 218.382 209.088 217.273 210.624C216.164 212.075 215.609 213.781 215.609 215.744C215.609 218.048 216.548 219.925 218.425 221.376C220.302 222.741 222.777 223.851 225.849 224.704C228.921 225.557 232.292 226.411 235.961 227.264C239.716 228.117 243.428 229.099 247.097 230.208C250.852 231.317 254.265 232.811 257.337 234.688C260.409 236.565 262.884 239.04 264.761 242.112C266.724 245.184 267.705 249.067 267.705 253.76C267.705 258.795 266.297 263.403 263.481 267.584C260.665 271.765 256.441 275.136 250.809 277.696C245.262 280.256 238.222 281.536 229.689 281.536ZM281.874 280V190.4H302.61V280H281.874ZM312.098 280L352.034 190.4H372.514L412.578 280H390.818L358.05 200.896H366.242L333.346 280H312.098ZM332.066 260.8L337.57 245.056H383.65L389.282 260.8H332.066ZM421.874 280V190.4H442.61V263.104H487.538V280H421.874Z"/>
</mask>
<path d="M10.624 124H8.624V126H10.624V124ZM10.624 34.4V32.4H8.624V34.4H10.624ZM27.776 34.4L29.4885 33.3669L28.9052 32.4H27.776V34.4ZM65.92 97.632V99.632H69.4622L67.6325 96.5989L65.92 97.632ZM56.832 97.632L55.1118 96.6117L53.3204 99.632H56.832V97.632ZM94.336 34.4V32.4H93.1969L92.6158 33.3797L94.336 34.4ZM111.36 34.4L113.36 34.3943L113.354 32.4H111.36V34.4ZM111.616 124V126H113.622L113.616 123.994L111.616 124ZM92.16 124L90.16 124.004L90.1643 126H92.16V124ZM92.032 64.224V62.224H90.0277L90.032 64.2283L92.032 64.224ZM95.616 64.224L97.3345 65.2472L99.1345 62.224H95.616V64.224ZM65.664 114.528V116.528H66.8008L67.3824 115.551L65.664 114.528ZM56.32 114.528L54.6112 115.567L55.1955 116.528H56.32V114.528ZM25.728 64.224V62.224H22.1709L24.0192 65.2632L25.728 64.224ZM30.08 64.224H32.08V62.224H30.08V64.224ZM30.08 124V126H32.08V124H30.08ZM12.624 124V34.4H8.624V124H12.624ZM10.624 36.4H27.776V32.4H10.624V36.4ZM26.0635 35.4331L64.2075 98.6651L67.6325 96.5989L29.4885 33.3669L26.0635 35.4331ZM65.92 95.632H56.832V99.632H65.92V95.632ZM58.5522 98.6523L96.0562 35.4203L92.6158 33.3797L55.1118 96.6117L58.5522 98.6523ZM94.336 36.4H111.36V32.4H94.336V36.4ZM109.36 34.4057L109.616 124.006L113.616 123.994L113.36 34.3943L109.36 34.4057ZM111.616 122H92.16V126H111.616V122ZM94.16 123.996L94.032 64.2197L90.032 64.2283L90.16 124.004L94.16 123.996ZM92.032 66.224H95.616V62.224H92.032V66.224ZM93.8976 63.2008L63.9456 113.505L67.3824 115.551L97.3345 65.2472L93.8976 63.2008ZM65.664 112.528H56.32V116.528H65.664V112.528ZM58.0288 113.489L27.4368 63.1848L24.0192 65.2632L54.6112 115.567L58.0288 113.489ZM25.728 66.224H30.08V62.224H25.728V66.224ZM28.08 64.224V124H32.08V64.224H28.08ZM30.08 122H10.624V126H30.08V122ZM151.946 70.496V68.496H149.946V70.496H151.946ZM195.082 70.496H197.082V68.496H195.082V70.496ZM195.082 86.624V88.624H197.082V86.624H195.082ZM151.946 86.624H149.946V88.624H151.946V86.624ZM153.482 107.36H151.482V109.36H153.482V107.36ZM202.25 107.36H204.25V105.36H202.25V107.36ZM202.25 124V126H204.25V124H202.25ZM132.874 124H130.874V126H132.874V124ZM132.874 34.4V32.4H130.874V34.4H132.874ZM200.586 34.4H202.586V32.4H200.586V34.4ZM200.586 51.04V53.04H202.586V51.04H200.586ZM153.482 51.04V49.04H151.482V51.04H153.482ZM151.946 72.496H195.082V68.496H151.946V72.496ZM193.082 70.496V86.624H197.082V70.496H193.082ZM195.082 84.624H151.946V88.624H195.082V84.624ZM153.946 86.624V70.496H149.946V86.624H153.946ZM153.482 109.36H202.25V105.36H153.482V109.36ZM200.25 107.36V124H204.25V107.36H200.25ZM202.25 122H132.874V126H202.25V122ZM134.874 124V34.4H130.874V124H134.874ZM132.874 36.4H200.586V32.4H132.874V36.4ZM198.586 34.4V51.04H202.586V34.4H198.586ZM200.586 49.04H153.482V53.04H200.586V49.04ZM151.482 51.04V107.36H155.482V51.04H151.482ZM218.749 124H216.749V126H218.749V124ZM218.749 34.4V32.4H216.749V34.4H218.749ZM285.181 40.032L284.278 41.8167L284.287 41.8209L284.295 41.825L285.181 40.032ZM302.589 55.52L300.895 56.5839L302.589 55.52ZM302.589 102.88L304.283 103.944L304.289 103.934L302.589 102.88ZM285.181 118.496L286.067 120.289L286.075 120.285L286.084 120.281L285.181 118.496ZM239.485 106.976H237.485V108.976H239.485V106.976ZM273.917 103.648L274.825 105.43L274.832 105.426L274.839 105.423L273.917 103.648ZM284.157 93.92L282.436 92.9014L282.428 92.9145L282.421 92.9277L284.157 93.92ZM284.157 64.48L282.421 65.4723L282.433 65.4934L282.445 65.5142L284.157 64.48ZM273.917 54.88L272.981 56.6476L273.002 56.6585L273.023 56.6689L273.917 54.88ZM239.485 51.424V49.424H237.485V51.424H239.485ZM220.749 124V34.4H216.749V124H220.749ZM218.749 36.4H259.453V32.4H218.749V36.4ZM259.453 36.4C268.92 36.4 277.178 38.2257 284.278 41.8167L286.084 38.2473C278.336 34.3289 269.442 32.4 259.453 32.4V36.4ZM284.295 41.825C291.406 45.3397 296.921 50.2579 300.895 56.5839L304.283 54.4561C299.894 47.4701 293.804 42.063 286.067 38.239L284.295 41.825ZM300.895 56.5839C304.846 62.8725 306.861 70.3838 306.861 79.2H310.861C310.861 69.7549 308.695 61.4795 304.283 54.4561L300.895 56.5839ZM306.861 79.2C306.861 87.9263 304.848 95.4436 300.889 101.826L304.289 103.934C308.693 96.8337 310.861 88.5644 310.861 79.2H306.861ZM300.895 101.816C296.919 108.146 291.398 113.111 284.278 116.711L286.084 120.281C293.812 116.372 299.897 110.926 304.283 103.944L300.895 101.816ZM284.295 116.703C277.191 120.214 268.927 122 259.453 122V126C269.435 126 278.323 124.116 286.067 120.289L284.295 116.703ZM259.453 122H218.749V126H259.453V122ZM239.485 108.976H258.429V104.976H239.485V108.976ZM258.429 108.976C264.649 108.976 270.136 107.82 274.825 105.43L273.009 101.866C268.994 103.913 264.156 104.976 258.429 104.976V108.976ZM274.839 105.423C279.603 102.949 283.306 99.4406 285.893 94.9123L282.421 92.9277C280.229 96.7621 277.105 99.739 272.995 101.873L274.839 105.423ZM285.878 94.9386C288.563 90.4026 289.869 85.1326 289.869 79.2H285.869C285.869 84.5314 284.701 89.0747 282.436 92.9014L285.878 94.9386ZM289.869 79.2C289.869 73.1895 288.566 67.9098 285.869 63.4458L282.445 65.5142C284.698 69.2422 285.869 73.7758 285.869 79.2H289.869ZM285.893 63.4877C283.302 58.9528 279.591 55.4807 274.811 53.0911L273.023 56.6689C277.118 58.7166 280.233 61.6446 282.421 65.4723L285.893 63.4877ZM274.853 53.1124C270.157 50.6265 264.66 49.424 258.429 49.424V53.424C264.145 53.424 268.973 54.5255 272.981 56.6476L274.853 53.1124ZM258.429 49.424H239.485V53.424H258.429V49.424ZM237.485 51.424V106.976H241.485V51.424H237.485ZM324.499 124H322.499V126H324.499V124ZM324.499 34.4V32.4H322.499V34.4H324.499ZM345.235 34.4H347.235V32.4H345.235V34.4ZM345.235 124V126H347.235V124H345.235ZM326.499 124V34.4H322.499V124H326.499ZM324.499 36.4H345.235V32.4H324.499V36.4ZM343.235 34.4V124H347.235V34.4H343.235ZM345.235 122H324.499V126H345.235V122ZM354.723 124L352.896 123.186L351.642 126H354.723V124ZM394.659 34.4V32.4H393.361L392.832 33.5858L394.659 34.4ZM415.139 34.4L416.965 33.5836L416.436 32.4H415.139V34.4ZM455.203 124V126H458.288L457.029 123.184L455.203 124ZM433.443 124L431.595 124.765L432.107 126H433.443V124ZM400.675 44.896V42.896H397.682L398.827 45.6614L400.675 44.896ZM408.867 44.896L410.714 45.664L411.865 42.896H408.867V44.896ZM375.971 124V126H377.305L377.818 124.768L375.971 124ZM374.691 104.8L372.803 104.14L371.873 106.8H374.691V104.8ZM380.195 89.056V87.056H378.775L378.307 88.396L380.195 89.056ZM426.275 89.056L428.158 88.3824L427.684 87.056H426.275V89.056ZM431.907 104.8V106.8H434.747L433.79 104.126L431.907 104.8ZM356.55 124.814L396.486 35.2142L392.832 33.5858L352.896 123.186L356.55 124.814ZM394.659 36.4H415.139V32.4H394.659V36.4ZM413.313 35.2164L453.377 124.816L457.029 123.184L416.965 33.5836L413.313 35.2164ZM455.203 122H433.443V126H455.203V122ZM435.291 123.235L402.523 44.1306L398.827 45.6614L431.595 124.765L435.291 123.235ZM400.675 46.896H408.867V42.896H400.675V46.896ZM407.02 44.128L374.124 123.232L377.818 124.768L410.714 45.664L407.02 44.128ZM375.971 122H354.723V126H375.971V122ZM376.579 105.46L382.083 89.716L378.307 88.396L372.803 104.14L376.579 105.46ZM380.195 91.056H426.275V87.056H380.195V91.056ZM424.392 89.7296L430.024 105.474L433.79 104.126L428.158 88.3824L424.392 89.7296ZM431.907 102.8H374.691V106.8H431.907V102.8ZM19.456 278.72L18.8836 280.636L18.8951 280.64L18.9066 280.643L19.456 278.72ZM3.584 271.168L1.76072 270.346L1.10904 271.792L2.36785 272.756L3.584 271.168ZM10.624 255.552L11.783 253.922L9.80052 252.512L8.80072 254.73L10.624 255.552ZM24.192 262.336L23.541 264.227L23.5594 264.233L23.578 264.239L24.192 262.336ZM50.048 263.744L50.6408 265.654L50.6607 265.648L50.6805 265.641L50.048 263.744ZM55.68 260.288L54.1361 259.017L54.1361 259.017L55.68 260.288ZM54.656 249.664L53.4331 251.247L53.4561 251.264L53.4797 251.281L54.656 249.664ZM47.232 246.208L46.6476 248.121L46.672 248.128L46.6967 248.135L47.232 246.208ZM36.992 243.648L36.539 245.596L36.565 245.602L36.5912 245.607L36.992 243.648ZM25.856 240.576L25.2368 242.478L25.2496 242.482L25.856 240.576ZM15.744 235.968L14.7011 237.675L14.7011 237.675L15.744 235.968ZM8.192 228.544L6.48544 229.587L6.49585 229.604L6.50661 229.621L8.192 228.544ZM9.472 202.816L7.80276 201.714L7.79746 201.722L9.472 202.816ZM22.016 192.704L22.8309 194.531L22.8436 194.525L22.016 192.704ZM59.776 190.912L59.2909 192.852L59.3052 192.856L59.3196 192.859L59.776 190.912ZM74.24 196.8L76.0928 197.553L76.7225 196.004L75.3093 195.11L74.24 196.8ZM67.84 212.544L66.8477 214.28L68.8321 215.414L69.6928 213.297L67.84 212.544ZM55.296 207.296L54.7466 209.219L54.7648 209.224L54.7831 209.229L55.296 207.296ZM33.152 206.912L32.4635 205.034L32.4635 205.034L33.152 206.912ZM27.648 210.624L29.2367 211.839L29.2533 211.817L29.2694 211.795L27.648 210.624ZM28.8 221.376L27.5771 222.959L27.6001 222.976L27.6237 222.993L28.8 221.376ZM36.224 224.704L35.6887 226.631L35.6887 226.631L36.224 224.704ZM46.336 227.264L45.883 229.212L45.8928 229.214L46.336 227.264ZM57.472 230.208L56.8932 232.122L56.9053 232.126L57.472 230.208ZM67.712 234.688L68.7549 232.981L68.7549 232.981L67.712 234.688ZM75.136 242.112L73.4294 243.155L73.4399 243.172L73.4506 243.189L75.136 242.112ZM73.856 267.584L75.5149 268.701L75.5149 268.701L73.856 267.584ZM61.184 277.696L60.3564 275.875L60.3459 275.88L61.184 277.696ZM40.064 279.536C33.0727 279.536 26.3889 278.621 20.0054 276.797L18.9066 280.643C25.6645 282.574 32.7193 283.536 40.064 283.536V279.536ZM20.0284 276.804C13.6127 274.887 8.56259 272.462 4.80015 269.58L2.36785 272.756C6.62674 276.018 12.158 278.627 18.8836 280.636L20.0284 276.804ZM5.40728 271.99L12.4473 256.374L8.80072 254.73L1.76072 270.346L5.40728 271.99ZM9.46495 257.182C13.4846 260.04 18.1843 262.383 23.541 264.227L24.843 260.445C19.789 258.705 15.4434 256.525 11.783 253.922L9.46495 257.182ZM23.578 264.239C29.0602 266.008 34.6005 266.896 40.192 266.896V262.896C35.0315 262.896 29.9051 262.077 24.806 260.433L23.578 264.239ZM40.192 266.896C44.3867 266.896 47.8962 266.506 50.6408 265.654L49.4552 261.834C47.2505 262.518 44.1893 262.896 40.192 262.896V266.896ZM50.6805 265.641C53.4496 264.718 55.7077 263.4 57.2239 261.559L54.1361 259.017C53.263 260.077 51.7664 261.063 49.4155 261.847L50.6805 265.641ZM57.2239 261.559C58.7131 259.751 59.472 257.638 59.472 255.296H55.472C55.472 256.709 55.0363 257.924 54.1361 259.017L57.2239 261.559ZM59.472 255.296C59.472 252.289 58.2448 249.801 55.8323 248.047L53.4797 251.281C54.8218 252.258 55.472 253.524 55.472 255.296H59.472ZM55.8789 248.081C53.7396 246.428 51.0079 245.181 47.7673 244.281L46.6967 248.135C49.6001 248.942 51.8178 249.998 53.4331 251.247L55.8789 248.081ZM47.8164 244.295C44.6738 243.335 41.198 242.467 37.3928 241.689L36.5912 245.607C40.2954 246.365 43.6462 247.204 46.6476 248.121L47.8164 244.295ZM37.445 241.7C33.8297 240.859 30.1688 239.849 26.4624 238.67L25.2496 242.482C29.0525 243.692 32.8157 244.73 36.539 245.596L37.445 241.7ZM26.4752 238.674C22.9436 237.524 19.7166 236.052 16.7869 234.261L14.7011 237.675C17.9154 239.639 21.4297 241.238 25.2368 242.478L26.4752 238.674ZM16.7869 234.261C13.9775 232.545 11.6786 230.287 9.87739 227.467L6.50661 229.621C8.6307 232.945 11.3665 235.637 14.7011 237.675L16.7869 234.261ZM9.89856 227.501C8.26623 224.83 7.376 221.296 7.376 216.768H3.376C3.376 221.797 4.3631 226.114 6.48544 229.587L9.89856 227.501ZM7.376 216.768C7.376 212.026 8.63385 207.757 11.1465 203.91L7.79746 201.722C4.84882 206.238 3.376 211.27 3.376 216.768H7.376ZM11.1412 203.918C13.7106 200.025 17.5659 196.879 22.8309 194.53L21.2011 190.878C15.3728 193.478 10.8654 197.074 7.80278 201.714L11.1412 203.918ZM22.8436 194.525C28.139 192.118 34.8752 190.864 43.136 190.864V186.864C34.5008 186.864 27.157 188.17 21.1884 190.883L22.8436 194.525ZM43.136 190.864C48.6046 190.864 53.9883 191.527 59.2909 192.852L60.2611 188.972C54.641 187.567 48.9315 186.864 43.136 186.864V190.864ZM59.3196 192.859C64.5924 194.095 69.2013 195.979 73.1707 198.49L75.3093 195.11C70.9161 192.33 65.8823 190.289 60.2324 188.965L59.3196 192.859ZM72.3872 196.047L65.9872 211.791L69.6928 213.297L76.0928 197.553L72.3872 196.047ZM68.8323 210.808C64.5171 208.342 60.1756 206.521 55.8089 205.363L54.7831 209.229C58.7791 210.289 62.8002 211.968 66.8477 214.28L68.8323 210.808ZM55.8454 205.373C51.5004 204.132 47.2194 203.504 43.008 203.504V207.504C46.8179 207.504 50.729 208.071 54.7466 209.219L55.8454 205.373ZM43.008 203.504C38.8628 203.504 35.3218 203.986 32.4635 205.034L33.8405 208.79C36.1022 207.96 39.1319 207.504 43.008 207.504V203.504ZM32.4635 205.034C29.686 206.053 27.4512 207.481 26.0266 209.453L29.2694 211.795C30.0634 210.695 31.498 209.649 33.8405 208.79L32.4635 205.034ZM26.0593 209.409C24.6627 211.235 23.984 213.377 23.984 215.744H27.984C27.984 214.186 28.4146 212.914 29.2367 211.839L26.0593 209.409ZM23.984 215.744C23.984 218.689 25.2267 221.142 27.5771 222.959L30.0229 219.793C28.6186 218.708 27.984 217.407 27.984 215.744H23.984ZM27.6237 222.993C29.7519 224.541 32.4664 225.736 35.6887 226.631L36.7593 222.777C33.8376 221.965 31.6028 220.941 29.9763 219.759L27.6237 222.993ZM35.6887 226.631C38.7923 227.493 42.1909 228.353 45.883 229.212L46.789 225.316C43.1425 224.468 39.7997 223.622 36.7593 222.777L35.6887 226.631ZM45.8928 229.214C49.602 230.057 53.2688 231.027 56.8932 232.122L58.0508 228.294C54.3365 227.171 50.5793 226.177 46.7792 225.314L45.8928 229.214ZM56.9053 232.126C60.5072 233.19 63.7583 234.616 66.6691 236.395L68.7549 232.981C65.5217 231.006 61.9461 229.444 58.0387 228.29L56.9053 232.126ZM66.6691 236.395C69.4704 238.106 71.7176 240.354 73.4294 243.155L76.8426 241.069C74.7998 237.726 72.0976 235.024 68.7549 232.981L66.6691 236.395ZM73.4506 243.189C75.1564 245.859 76.08 249.34 76.08 253.76H80.08C80.08 248.793 79.0409 244.509 76.8214 241.035L73.4506 243.189ZM76.08 253.76C76.08 258.396 74.7911 262.615 72.1971 266.467L75.5149 268.701C78.5529 264.19 80.08 259.193 80.08 253.76H76.08ZM72.1971 266.467C69.6302 270.278 65.7281 273.434 60.3564 275.875L62.0116 279.517C67.9039 276.838 72.4498 273.252 75.5149 268.701L72.1971 266.467ZM60.3459 275.88C55.1446 278.281 48.4154 279.536 40.064 279.536V283.536C48.7793 283.536 56.1301 282.231 62.0221 279.512L60.3459 275.88ZM116.057 278.08L115.337 279.946L115.346 279.949L116.057 278.08ZM100.441 268.352L99.0553 269.794L99.0623 269.801L99.0694 269.808L100.441 268.352ZM90.201 253.632L88.3598 254.413L88.3648 254.425L88.37 254.437L90.201 253.632ZM90.201 216.768L88.37 215.963L88.3648 215.975L88.3598 215.987L90.201 216.768ZM116.185 192.32L115.465 190.454L115.465 190.454L116.185 192.32ZM155.097 192.32L154.368 194.183L154.377 194.186L155.097 192.32ZM170.585 202.048L169.199 203.49L169.206 203.497L169.213 203.504L170.585 202.048ZM180.953 216.768L179.122 217.573L179.127 217.583L180.953 216.768ZM180.953 253.76L182.784 254.565L182.788 254.554L180.953 253.76ZM170.585 268.48L171.956 269.936L171.957 269.936L170.585 268.48ZM155.097 278.08L154.377 276.214L154.368 276.218L155.097 278.08ZM146.649 261.824L145.906 259.967L145.898 259.97L145.89 259.974L146.649 261.824ZM155.609 255.936L154.195 254.522L154.195 254.522L155.609 255.936ZM161.497 246.848L159.65 246.082L159.641 246.101L159.634 246.121L161.497 246.848ZM161.497 223.552L159.634 224.279L159.641 224.299L159.65 224.318L161.497 223.552ZM155.609 214.464L154.171 215.854L154.183 215.866L154.195 215.878L155.609 214.464ZM146.777 208.576L146.034 210.433L146.034 210.433L146.777 208.576ZM124.505 208.576L123.762 206.719L123.754 206.722L123.746 206.726L124.505 208.576ZM115.673 214.464L117.087 215.878L117.087 215.878L115.673 214.464ZM109.657 223.552L107.81 222.786L107.801 222.805L107.794 222.825L109.657 223.552ZM109.657 246.848L107.788 247.56L107.798 247.587L107.81 247.614L109.657 246.848ZM115.545 255.936L114.107 257.326L114.119 257.338L114.131 257.35L115.545 255.936ZM124.505 261.824L123.762 263.681L123.762 263.681L124.505 261.824ZM135.769 279.536C128.907 279.536 122.579 278.421 116.768 276.211L115.346 279.949C121.652 282.347 128.466 283.536 135.769 283.536V279.536ZM116.777 276.214C111.033 273.999 106.052 270.891 101.813 266.896L99.0694 269.808C103.705 274.175 109.134 277.553 115.337 279.946L116.777 276.214ZM101.827 266.91C97.6671 262.913 94.4035 258.225 92.032 252.827L88.37 254.437C90.9478 260.303 94.5109 265.428 99.0553 269.794L101.827 266.91ZM92.0422 252.851C89.7666 247.487 88.617 241.611 88.617 235.2H84.617C84.617 242.101 85.8568 248.513 88.3598 254.413L92.0422 252.851ZM88.617 235.2C88.617 228.789 89.7666 222.913 92.0422 217.549L88.3598 215.987C85.8568 221.887 84.617 228.299 84.617 235.2H88.617ZM92.032 217.573C94.3998 212.184 97.7003 207.499 101.941 203.504L99.1974 200.592C94.563 204.959 90.9516 210.088 88.37 215.963L92.032 217.573ZM101.941 203.504C106.18 199.509 111.161 196.401 116.905 194.186L115.465 190.454C109.262 192.847 103.833 196.225 99.1974 200.592L101.941 203.504ZM116.905 194.186C122.628 191.978 128.867 190.864 135.641 190.864V186.864C128.42 186.864 121.689 188.054 115.465 190.454L116.905 194.186ZM135.641 190.864C142.504 190.864 148.739 191.98 154.368 194.182L155.826 190.458C149.679 188.052 142.943 186.864 135.641 186.864V190.864ZM154.377 194.186C160.118 196.4 165.05 199.504 169.199 203.49L171.971 200.606C167.416 196.229 162.023 192.848 155.817 190.454L154.377 194.186ZM169.213 203.504C173.454 207.499 176.754 212.184 179.122 217.573L182.784 215.963C180.202 210.088 176.591 204.959 171.957 200.592L169.213 203.504ZM179.127 217.583C181.475 222.846 182.665 228.708 182.665 235.2H186.665C186.665 228.209 185.381 221.783 182.779 215.953L179.127 217.583ZM182.665 235.2C182.665 241.602 181.476 247.516 179.118 252.966L182.788 254.554C185.379 248.569 186.665 242.11 186.665 235.2H182.665ZM179.122 252.955C176.754 258.344 173.454 263.029 169.213 267.024L171.957 269.936C176.591 265.569 180.202 260.44 182.784 254.565L179.122 252.955ZM169.214 267.024C165.064 270.93 160.127 273.996 154.377 276.214L155.817 279.946C162.014 277.556 167.402 274.222 171.956 269.936L169.214 267.024ZM154.368 276.218C148.736 278.421 142.544 279.536 135.769 279.536V283.536C142.989 283.536 149.682 282.347 155.826 279.942L154.368 276.218ZM135.641 265.872C139.882 265.872 143.813 265.149 147.408 263.674L145.89 259.974C142.829 261.229 139.421 261.872 135.641 261.872V265.872ZM147.392 263.681C151.053 262.217 154.269 260.105 157.023 257.35L154.195 254.522C151.829 256.887 149.072 258.701 145.906 259.967L147.392 263.681ZM157.023 257.35C159.786 254.587 161.898 251.322 163.36 247.575L159.634 246.121C158.365 249.372 156.552 252.165 154.195 254.522L157.023 257.35ZM163.344 247.614C164.908 243.844 165.673 239.696 165.673 235.2H161.673C161.673 239.237 160.988 242.855 159.65 246.082L163.344 247.614ZM165.673 235.2C165.673 230.704 164.908 226.556 163.344 222.786L159.65 224.318C160.988 227.545 161.673 231.163 161.673 235.2H165.673ZM163.36 222.825C161.898 219.078 159.786 215.813 157.023 213.05L154.195 215.878C156.552 218.235 158.365 221.028 159.634 224.279L163.36 222.825ZM157.047 213.074C154.37 210.304 151.186 208.186 147.52 206.719L146.034 210.433C149.194 211.697 151.899 213.504 154.171 215.854L157.047 213.074ZM147.52 206.719C143.85 205.251 139.883 204.528 135.641 204.528V208.528C139.42 208.528 142.878 209.17 146.034 210.433L147.52 206.719ZM135.641 204.528C131.399 204.528 127.432 205.251 123.762 206.719L125.248 210.433C128.404 209.17 131.862 208.528 135.641 208.528V204.528ZM123.746 206.726C120.171 208.192 117.005 210.304 114.259 213.05L117.087 215.878C119.461 213.504 122.183 211.69 125.264 210.426L123.746 206.726ZM114.259 213.05C111.505 215.804 109.356 219.056 107.81 222.786L111.504 224.318C112.859 221.05 114.721 218.244 117.087 215.878L114.259 213.05ZM107.794 222.825C106.327 226.585 105.609 230.718 105.609 235.2H109.609C109.609 231.149 110.257 227.517 111.52 224.279L107.794 222.825ZM105.609 235.2C105.609 239.603 106.329 243.729 107.788 247.56L111.526 246.136C110.255 242.799 109.609 239.16 109.609 235.2H105.609ZM107.81 247.614C109.35 251.33 111.447 254.574 114.107 257.326L116.983 254.546C114.694 252.178 112.865 249.364 111.504 246.082L107.81 247.614ZM114.131 257.35C116.885 260.105 120.101 262.217 123.762 263.681L125.248 259.967C122.082 258.701 119.325 256.887 116.959 254.522L114.131 257.35ZM123.762 263.681C127.432 265.149 131.399 265.872 135.641 265.872V261.872C131.862 261.872 128.404 261.23 125.248 259.967L123.762 263.681ZM209.081 278.72L208.509 280.636L208.52 280.64L208.532 280.643L209.081 278.72ZM193.209 271.168L191.386 270.346L190.734 271.792L191.993 272.756L193.209 271.168ZM200.249 255.552L201.408 253.922L199.426 252.512L198.426 254.73L200.249 255.552ZM213.817 262.336L213.166 264.227L213.184 264.233L213.203 264.239L213.817 262.336ZM239.673 263.744L240.266 265.654L240.286 265.648L240.305 265.641L239.673 263.744ZM245.305 260.288L243.761 259.017L243.761 259.017L245.305 260.288ZM244.281 249.664L243.058 251.247L243.081 251.264L243.105 251.281L244.281 249.664ZM236.857 246.208L236.273 248.121L236.297 248.128L236.322 248.135L236.857 246.208ZM226.617 243.648L226.164 245.596L226.19 245.602L226.216 245.607L226.617 243.648ZM215.481 240.576L214.862 242.478L214.875 242.482L215.481 240.576ZM205.369 235.968L204.326 237.675L204.326 237.675L205.369 235.968ZM197.817 228.544L196.11 229.587L196.121 229.604L196.132 229.621L197.817 228.544ZM199.097 202.816L197.428 201.714L197.422 201.722L199.097 202.816ZM211.641 192.704L212.456 194.531L212.469 194.525L211.641 192.704ZM249.401 190.912L248.916 192.852L248.93 192.856L248.945 192.859L249.401 190.912ZM263.865 196.8L265.718 197.553L266.348 196.004L264.934 195.11L263.865 196.8ZM257.465 212.544L256.473 214.28L258.457 215.414L259.318 213.297L257.465 212.544ZM244.921 207.296L244.372 209.219L244.39 209.224L244.408 209.229L244.921 207.296ZM222.777 206.912L222.088 205.034L222.088 205.034L222.777 206.912ZM217.273 210.624L218.862 211.839L218.878 211.817L218.894 211.795L217.273 210.624ZM218.425 221.376L217.202 222.959L217.225 222.976L217.249 222.993L218.425 221.376ZM225.849 224.704L225.314 226.631L225.314 226.631L225.849 224.704ZM235.961 227.264L235.508 229.212L235.518 229.214L235.961 227.264ZM247.097 230.208L246.518 232.122L246.53 232.126L247.097 230.208ZM257.337 234.688L258.38 232.981L258.38 232.981L257.337 234.688ZM264.761 242.112L263.054 243.155L263.065 243.172L263.076 243.189L264.761 242.112ZM263.481 267.584L265.14 268.701L265.14 268.701L263.481 267.584ZM250.809 277.696L249.981 275.875L249.971 275.88L250.809 277.696ZM229.689 279.536C222.698 279.536 216.014 278.621 209.63 276.797L208.532 280.643C215.289 282.574 222.344 283.536 229.689 283.536V279.536ZM209.653 276.804C203.238 274.887 198.188 272.462 194.425 269.58L191.993 272.756C196.252 276.018 201.783 278.627 208.509 280.636L209.653 276.804ZM195.032 271.99L202.072 256.374L198.426 254.73L191.386 270.346L195.032 271.99ZM199.09 257.182C203.11 260.04 207.809 262.383 213.166 264.227L214.468 260.445C209.414 258.705 205.068 256.525 201.408 253.922L199.09 257.182ZM213.203 264.239C218.685 266.008 224.225 266.896 229.817 266.896V262.896C224.657 262.896 219.53 262.077 214.431 260.433L213.203 264.239ZM229.817 266.896C234.012 266.896 237.521 266.506 240.266 265.654L239.08 261.834C236.875 262.518 233.814 262.896 229.817 262.896V266.896ZM240.305 265.641C243.075 264.718 245.333 263.4 246.849 261.559L243.761 259.017C242.888 260.077 241.391 261.063 239.041 261.847L240.305 265.641ZM246.849 261.559C248.338 259.751 249.097 257.638 249.097 255.296H245.097C245.097 256.709 244.661 257.924 243.761 259.017L246.849 261.559ZM249.097 255.296C249.097 252.289 247.87 249.801 245.457 248.047L243.105 251.281C244.447 252.258 245.097 253.524 245.097 255.296H249.097ZM245.504 248.081C243.365 246.428 240.633 245.181 237.392 244.281L236.322 248.135C239.225 248.942 241.443 249.998 243.058 251.247L245.504 248.081ZM237.441 244.295C234.299 243.335 230.823 242.467 227.018 241.689L226.216 245.607C229.92 246.365 233.271 247.204 236.273 248.121L237.441 244.295ZM227.07 241.7C223.455 240.859 219.794 239.849 216.087 238.67L214.875 242.482C218.678 243.692 222.441 244.73 226.164 245.596L227.07 241.7ZM216.1 238.674C212.569 237.524 209.342 236.052 206.412 234.261L204.326 237.675C207.54 239.639 211.055 241.238 214.862 242.478L216.1 238.674ZM206.412 234.261C203.602 232.545 201.304 230.287 199.502 227.467L196.132 229.621C198.256 232.945 200.992 235.637 204.326 237.675L206.412 234.261ZM199.524 227.501C197.891 224.83 197.001 221.296 197.001 216.768H193.001C193.001 221.797 193.988 226.114 196.11 229.587L199.524 227.501ZM197.001 216.768C197.001 212.026 198.259 207.757 200.772 203.91L197.422 201.722C194.474 206.238 193.001 211.27 193.001 216.768H197.001ZM200.766 203.918C203.336 200.025 207.191 196.879 212.456 194.53L210.826 190.878C204.998 193.478 200.49 197.074 197.428 201.714L200.766 203.918ZM212.469 194.525C217.764 192.118 224.5 190.864 232.761 190.864V186.864C224.126 186.864 216.782 188.17 210.813 190.883L212.469 194.525ZM232.761 190.864C238.23 190.864 243.613 191.527 248.916 192.852L249.886 188.972C244.266 187.567 238.556 186.864 232.761 186.864V190.864ZM248.945 192.859C254.217 194.095 258.826 195.979 262.796 198.49L264.934 195.11C260.541 192.33 255.507 190.289 249.857 188.965L248.945 192.859ZM262.012 196.047L255.612 211.791L259.318 213.297L265.718 197.553L262.012 196.047ZM258.457 210.808C254.142 208.342 249.801 206.521 245.434 205.363L244.408 209.229C248.404 210.289 252.425 211.968 256.473 214.28L258.457 210.808ZM245.47 205.373C241.125 204.132 236.844 203.504 232.633 203.504V207.504C236.443 207.504 240.354 208.071 244.372 209.219L245.47 205.373ZM232.633 203.504C228.488 203.504 224.947 203.986 222.088 205.034L223.466 208.79C225.727 207.96 228.757 207.504 232.633 207.504V203.504ZM222.088 205.034C219.311 206.053 217.076 207.481 215.652 209.453L218.894 211.795C219.688 210.695 221.123 209.649 223.466 208.79L222.088 205.034ZM215.684 209.409C214.288 211.235 213.609 213.377 213.609 215.744H217.609C217.609 214.186 218.04 212.914 218.862 211.839L215.684 209.409ZM213.609 215.744C213.609 218.689 214.852 221.142 217.202 222.959L219.648 219.793C218.244 218.708 217.609 217.407 217.609 215.744H213.609ZM217.249 222.993C219.377 224.541 222.091 225.736 225.314 226.631L226.384 222.777C223.463 221.965 221.228 220.941 219.601 219.759L217.249 222.993ZM225.314 226.631C228.417 227.493 231.816 228.353 235.508 229.212L236.414 225.316C232.767 224.468 229.425 223.622 226.384 222.777L225.314 226.631ZM235.518 229.214C239.227 230.057 242.894 231.027 246.518 232.122L247.676 228.294C243.962 227.171 240.204 226.177 236.404 225.314L235.518 229.214ZM246.53 232.126C250.132 233.19 253.383 234.616 256.294 236.395L258.38 232.981C255.147 231.006 251.571 229.444 247.664 228.29L246.53 232.126ZM256.294 236.395C259.095 238.106 261.343 240.354 263.054 243.155L266.468 241.069C264.425 237.726 261.723 235.024 258.38 232.981L256.294 236.395ZM263.076 243.189C264.781 245.859 265.705 249.34 265.705 253.76H269.705C269.705 248.793 268.666 244.509 266.446 241.035L263.076 243.189ZM265.705 253.76C265.705 258.396 264.416 262.615 261.822 266.467L265.14 268.701C268.178 264.19 269.705 259.193 269.705 253.76H265.705ZM261.822 266.467C259.255 270.278 255.353 273.434 249.981 275.875L251.637 279.517C257.529 276.838 262.075 273.252 265.14 268.701L261.822 266.467ZM249.971 275.88C244.77 278.281 238.04 279.536 229.689 279.536V283.536C238.404 283.536 245.755 282.231 251.647 279.512L249.971 275.88ZM281.874 280H279.874V282H281.874V280ZM281.874 190.4V188.4H279.874V190.4H281.874ZM302.61 190.4H304.61V188.4H302.61V190.4ZM302.61 280V282H304.61V280H302.61ZM283.874 280V190.4H279.874V280H283.874ZM281.874 192.4H302.61V188.4H281.874V192.4ZM300.61 190.4V280H304.61V190.4H300.61ZM302.61 278H281.874V282H302.61V278ZM312.098 280L310.271 279.186L309.017 282H312.098V280ZM352.034 190.4V188.4H350.736L350.207 189.586L352.034 190.4ZM372.514 190.4L374.34 189.584L373.811 188.4H372.514V190.4ZM412.578 280V282H415.663L414.404 279.184L412.578 280ZM390.818 280L388.97 280.765L389.482 282H390.818V280ZM358.05 200.896V198.896H355.057L356.202 201.661L358.05 200.896ZM366.242 200.896L368.089 201.664L369.24 198.896H366.242V200.896ZM333.346 280V282H334.68L335.193 280.768L333.346 280ZM332.066 260.8L330.178 260.14L329.248 262.8H332.066V260.8ZM337.57 245.056V243.056H336.15L335.682 244.396L337.57 245.056ZM383.65 245.056L385.533 244.382L385.059 243.056H383.65V245.056ZM389.282 260.8V262.8H392.122L391.165 260.126L389.282 260.8ZM313.925 280.814L353.861 191.214L350.207 189.586L310.271 279.186L313.925 280.814ZM352.034 192.4H372.514V188.4H352.034V192.4ZM370.688 191.216L410.752 280.816L414.404 279.184L374.34 189.584L370.688 191.216ZM412.578 278H390.818V282H412.578V278ZM392.666 279.235L359.898 200.131L356.202 201.661L388.97 280.765L392.666 279.235ZM358.05 202.896H366.242V198.896H358.05V202.896ZM364.395 200.128L331.499 279.232L335.193 280.768L368.089 201.664L364.395 200.128ZM333.346 278H312.098V282H333.346V278ZM333.954 261.46L339.458 245.716L335.682 244.396L330.178 260.14L333.954 261.46ZM337.57 247.056H383.65V243.056H337.57V247.056ZM381.767 245.73L387.399 261.474L391.165 260.126L385.533 244.382L381.767 245.73ZM389.282 258.8H332.066V262.8H389.282V258.8ZM421.874 280H419.874V282H421.874V280ZM421.874 190.4V188.4H419.874V190.4H421.874ZM442.61 190.4H444.61V188.4H442.61V190.4ZM442.61 263.104H440.61V265.104H442.61V263.104ZM487.538 263.104H489.538V261.104H487.538V263.104ZM487.538 280V282H489.538V280H487.538ZM423.874 280V190.4H419.874V280H423.874ZM421.874 192.4H442.61V188.4H421.874V192.4ZM440.61 190.4V263.104H444.61V190.4H440.61ZM442.61 265.104H487.538V261.104H442.61V265.104ZM485.538 263.104V280H489.538V263.104H485.538ZM487.538 278H421.874V282H487.538V278Z" fill="#E2E8F0" mask="url(#path-1-outside-1_497_6371)"/>
</svg>
