<svg width="1023" height="353" viewBox="0 0 1023 353" fill="none" xmlns="http://www.w3.org/2000/svg">
<path fill-rule="evenodd" clip-rule="evenodd" d="M1022.46 -2.62L973.205 -17.2168C923.955 -31.8136 825.455 -61.0072 736.388 -43.1505C647.32 -25.2939 567.686 39.613 483.335 80.9948C398.984 122.377 309.917 140.233 225.566 181.615C141.216 222.997 61.5813 287.904 21.7641 320.357L-18.053 352.811L-112.382 -117.692L-67.8482 -126.62C-23.3146 -135.549 65.7526 -153.405 154.82 -171.262C243.887 -189.119 332.954 -206.975 422.022 -224.832C511.089 -242.688 600.156 -260.545 689.223 -278.402C778.29 -296.258 867.358 -314.115 911.891 -323.043L956.425 -331.972L1022.46 -2.62Z" fill="#FACC15"/>
</svg>
