<svg width="1077" height="156" viewBox="0 0 1077 156" fill="none" xmlns="http://www.w3.org/2000/svg">
<mask id="path-1-outside-1_197_1602" maskUnits="userSpaceOnUse" x="8" y="30" width="1061" height="98" fill="black">
<rect fill="white" x="8" y="30" width="1061" height="98"/>
<path d="M10.624 124V34.4H49.408C57.4293 34.4 64.3413 35.7227 70.144 38.368C75.9467 40.928 80.4267 44.64 83.584 49.504C86.7413 54.368 88.32 60.1707 88.32 66.912C88.32 73.568 86.7413 79.328 83.584 84.192C80.4267 89.056 75.9467 92.8107 70.144 95.456C64.3413 98.016 57.4293 99.296 49.408 99.296H22.144L31.36 89.952V124H10.624ZM31.36 92.256L22.144 82.4H48.256C54.656 82.4 59.4347 81.0347 62.592 78.304C65.7493 75.5733 67.328 71.776 67.328 66.912C67.328 61.9627 65.7493 58.1227 62.592 55.392C59.4347 52.6613 54.656 51.296 48.256 51.296H22.144L31.36 41.44V92.256ZM122.196 70.496H165.332V86.624H122.196V70.496ZM123.732 107.36H172.5V124H103.124V34.4H170.836V51.04H123.732V107.36ZM188.999 124V34.4H206.151L259.015 98.912H250.695V34.4H271.175V124H254.151L201.159 59.488H209.479V124H188.999ZM335.638 125.536C328.555 125.536 322.027 124.427 316.054 122.208C310.166 119.904 305.003 116.661 300.566 112.48C296.214 108.299 292.801 103.392 290.326 97.76C287.937 92.128 286.742 85.9413 286.742 79.2C286.742 72.4587 287.937 66.272 290.326 60.64C292.801 55.008 296.257 50.1013 300.694 45.92C305.131 41.7387 310.337 38.5387 316.31 36.32C322.283 34.016 328.854 32.864 336.022 32.864C343.958 32.864 351.083 34.1867 357.398 36.832C363.798 39.4773 369.174 43.3173 373.526 48.352L360.214 60.64C356.971 57.2267 353.43 54.7093 349.59 53.088C345.75 51.3813 341.569 50.528 337.046 50.528C332.694 50.528 328.726 51.2107 325.142 52.576C321.558 53.9413 318.443 55.904 315.798 58.464C313.238 61.024 311.233 64.0533 309.782 67.552C308.417 71.0507 307.734 74.9333 307.734 79.2C307.734 83.3813 308.417 87.2213 309.782 90.72C311.233 94.2187 313.238 97.2907 315.798 99.936C318.443 102.496 321.515 104.459 325.014 105.824C328.598 107.189 332.523 107.872 336.79 107.872C340.886 107.872 344.854 107.232 348.694 105.952C352.619 104.587 356.417 102.325 360.086 99.168L371.862 114.144C366.998 117.813 361.323 120.629 354.838 122.592C348.438 124.555 342.038 125.536 335.638 125.536ZM352.918 111.456V77.792H371.862V114.144L352.918 111.456ZM452.564 34.4H473.3V124H452.564V34.4ZM411.86 124H391.124V34.4H411.86V124ZM454.1 87.264H410.324V69.728H454.1V87.264ZM482.723 124L522.659 34.4H543.139L583.203 124H561.443L528.675 44.896H536.867L503.971 124H482.723ZM502.691 104.8L508.195 89.056H554.275L559.907 104.8H502.691ZM592.499 124V34.4H631.283C639.304 34.4 646.216 35.7227 652.019 38.368C657.822 40.928 662.302 44.64 665.459 49.504C668.616 54.368 670.195 60.1707 670.195 66.912C670.195 73.568 668.616 79.328 665.459 84.192C662.302 88.9707 657.822 92.64 652.019 95.2C646.216 97.76 639.304 99.04 631.283 99.04H604.019L613.235 89.952V124H592.499ZM649.459 124L627.059 91.488H649.203L671.859 124H649.459ZM613.235 92.256L604.019 82.528H630.131C636.531 82.528 641.31 81.1627 644.467 78.432C647.624 75.616 649.203 71.776 649.203 66.912C649.203 61.9627 647.624 58.1227 644.467 55.392C641.31 52.6613 636.531 51.296 630.131 51.296H604.019L613.235 41.44V92.256ZM729.888 125.536C722.805 125.536 716.277 124.427 710.304 122.208C704.416 119.904 699.253 116.661 694.816 112.48C690.464 108.299 687.051 103.392 684.576 97.76C682.187 92.128 680.992 85.9413 680.992 79.2C680.992 72.4587 682.187 66.272 684.576 60.64C687.051 55.008 690.507 50.1013 694.944 45.92C699.381 41.7387 704.587 38.5387 710.56 36.32C716.533 34.016 723.104 32.864 730.272 32.864C738.208 32.864 745.333 34.1867 751.648 36.832C758.048 39.4773 763.424 43.3173 767.776 48.352L754.464 60.64C751.221 57.2267 747.68 54.7093 743.84 53.088C740 51.3813 735.819 50.528 731.296 50.528C726.944 50.528 722.976 51.2107 719.392 52.576C715.808 53.9413 712.693 55.904 710.048 58.464C707.488 61.024 705.483 64.0533 704.032 67.552C702.667 71.0507 701.984 74.9333 701.984 79.2C701.984 83.3813 702.667 87.2213 704.032 90.72C705.483 94.2187 707.488 97.2907 710.048 99.936C712.693 102.496 715.765 104.459 719.264 105.824C722.848 107.189 726.773 107.872 731.04 107.872C735.136 107.872 739.104 107.232 742.944 105.952C746.869 104.587 750.667 102.325 754.336 99.168L766.112 114.144C761.248 117.813 755.573 120.629 749.088 122.592C742.688 124.555 736.288 125.536 729.888 125.536ZM747.168 111.456V77.792H766.112V114.144L747.168 111.456ZM773.598 124L813.534 34.4H834.014L874.078 124H852.318L819.55 44.896H827.742L794.846 124H773.598ZM793.566 104.8L799.07 89.056H845.15L850.782 104.8H793.566ZM874.473 124L914.409 34.4H934.889L974.953 124H953.193L920.425 44.896H928.617L895.721 124H874.473ZM894.441 104.8L899.945 89.056H946.025L951.657 104.8H894.441ZM984.249 124V34.4H1001.4L1054.27 98.912H1045.94V34.4H1066.43V124H1049.4L996.409 59.488H1004.73V124H984.249Z"/>
</mask>
<path d="M10.624 124H8.624V126H10.624V124ZM10.624 34.4V32.4H8.624V34.4H10.624ZM70.144 38.368L69.3144 40.1878L69.3255 40.1929L69.3367 40.1978L70.144 38.368ZM83.584 49.504L81.9064 50.5929V50.5929L83.584 49.504ZM70.144 95.456L70.9513 97.2858L70.9625 97.2809L70.9736 97.2758L70.144 95.456ZM22.144 99.296L20.7201 97.8916L17.3623 101.296H22.144V99.296ZM31.36 89.952H33.36V85.0761L29.9361 88.5476L31.36 89.952ZM31.36 124V126H33.36V124H31.36ZM31.36 92.256L29.8992 93.622L33.36 97.3232V92.256H31.36ZM22.144 82.4V80.4H17.5357L20.6832 83.766L22.144 82.4ZM22.144 51.296L20.6832 49.93L17.5357 53.296H22.144V51.296ZM31.36 41.44H33.36V36.3728L29.8992 40.074L31.36 41.44ZM12.624 124V34.4H8.624V124H12.624ZM10.624 36.4H49.408V32.4H10.624V36.4ZM49.408 36.4C57.2146 36.4 63.8302 37.6877 69.3144 40.1878L70.9736 36.5482C64.8525 33.7576 57.6441 32.4 49.408 32.4V36.4ZM69.3367 40.1978C74.8181 42.6161 78.9807 46.0857 81.9064 50.5929L85.2616 48.4151C81.8726 43.1942 77.0752 39.2399 70.9513 36.5382L69.3367 40.1978ZM81.9064 50.5929C84.8209 55.0828 86.32 60.493 86.32 66.912H90.32C90.32 59.8484 88.6618 53.6532 85.2616 48.4151L81.9064 50.5929ZM86.32 66.912C86.32 73.2401 84.8235 78.6091 81.9064 83.1031L85.2616 85.2809C88.6591 80.0469 90.32 73.8959 90.32 66.912H86.32ZM81.9064 83.1031C78.9769 87.6162 74.8064 91.1325 69.3144 93.6362L70.9736 97.2758C77.0869 94.4889 81.8765 90.4958 85.2616 85.2809L81.9064 83.1031ZM69.3367 93.6262C63.8462 96.0484 57.2224 97.296 49.408 97.296V101.296C57.6363 101.296 64.8364 99.9836 70.9513 97.2858L69.3367 93.6262ZM49.408 97.296H22.144V101.296H49.408V97.296ZM23.5679 100.7L32.7839 91.3564L29.9361 88.5476L20.7201 97.8916L23.5679 100.7ZM29.36 89.952V124H33.36V89.952H29.36ZM31.36 122H10.624V126H31.36V122ZM32.8209 90.89L23.6048 81.034L20.6832 83.766L29.8992 93.622L32.8209 90.89ZM22.144 84.4H48.256V80.4H22.144V84.4ZM48.256 84.4C54.8907 84.4 60.229 82.9919 63.9003 79.8167L61.2837 76.7913C58.6403 79.0774 54.4213 80.4 48.256 80.4V84.4ZM63.9003 79.8167C67.5713 76.6418 69.328 72.2506 69.328 66.912H65.328C65.328 71.3014 63.9274 74.5048 61.2837 76.7913L63.9003 79.8167ZM69.328 66.912C69.328 61.5005 67.5793 57.0611 63.9003 53.8793L61.2837 56.9047C63.9194 59.1842 65.328 62.4248 65.328 66.912H69.328ZM63.9003 53.8793C60.229 50.7041 54.8907 49.296 48.256 49.296V53.296C54.4213 53.296 58.6403 54.6185 61.2837 56.9047L63.9003 53.8793ZM48.256 49.296H22.144V53.296H48.256V49.296ZM23.6048 52.662L32.8209 42.806L29.8992 40.074L20.6832 49.93L23.6048 52.662ZM29.36 41.44V92.256H33.36V41.44H29.36ZM122.196 70.496V68.496H120.196V70.496H122.196ZM165.332 70.496H167.332V68.496H165.332V70.496ZM165.332 86.624V88.624H167.332V86.624H165.332ZM122.196 86.624H120.196V88.624H122.196V86.624ZM123.732 107.36H121.732V109.36H123.732V107.36ZM172.5 107.36H174.5V105.36H172.5V107.36ZM172.5 124V126H174.5V124H172.5ZM103.124 124H101.124V126H103.124V124ZM103.124 34.4V32.4H101.124V34.4H103.124ZM170.836 34.4H172.836V32.4H170.836V34.4ZM170.836 51.04V53.04H172.836V51.04H170.836ZM123.732 51.04V49.04H121.732V51.04H123.732ZM122.196 72.496H165.332V68.496H122.196V72.496ZM163.332 70.496V86.624H167.332V70.496H163.332ZM165.332 84.624H122.196V88.624H165.332V84.624ZM124.196 86.624V70.496H120.196V86.624H124.196ZM123.732 109.36H172.5V105.36H123.732V109.36ZM170.5 107.36V124H174.5V107.36H170.5ZM172.5 122H103.124V126H172.5V122ZM105.124 124V34.4H101.124V124H105.124ZM103.124 36.4H170.836V32.4H103.124V36.4ZM168.836 34.4V51.04H172.836V34.4H168.836ZM170.836 49.04H123.732V53.04H170.836V49.04ZM121.732 51.04V107.36H125.732V51.04H121.732ZM188.999 124H186.999V126H188.999V124ZM188.999 34.4V32.4H186.999V34.4H188.999ZM206.151 34.4L207.698 33.1323L207.098 32.4H206.151V34.4ZM259.015 98.912V100.912H263.24L260.562 97.6444L259.015 98.912ZM250.695 98.912H248.695V100.912H250.695V98.912ZM250.695 34.4V32.4H248.695V34.4H250.695ZM271.175 34.4H273.175V32.4H271.175V34.4ZM271.175 124V126H273.175V124H271.175ZM254.151 124L252.606 125.269L253.206 126H254.151V124ZM201.159 59.488V57.488H196.928L199.614 60.7575L201.159 59.488ZM209.479 59.488H211.479V57.488H209.479V59.488ZM209.479 124V126H211.479V124H209.479ZM190.999 124V34.4H186.999V124H190.999ZM188.999 36.4H206.151V32.4H188.999V36.4ZM204.604 35.6676L257.468 100.18L260.562 97.6444L207.698 33.1323L204.604 35.6676ZM259.015 96.912H250.695V100.912H259.015V96.912ZM252.695 98.912V34.4H248.695V98.912H252.695ZM250.695 36.4H271.175V32.4H250.695V36.4ZM269.175 34.4V124H273.175V34.4H269.175ZM271.175 122H254.151V126H271.175V122ZM255.696 122.731L202.704 58.2185L199.614 60.7575L252.606 125.269L255.696 122.731ZM201.159 61.488H209.479V57.488H201.159V61.488ZM207.479 59.488V124H211.479V59.488H207.479ZM209.479 122H188.999V126H209.479V122ZM316.054 122.208L315.325 124.07L315.341 124.077L315.358 124.083L316.054 122.208ZM300.566 112.48L299.18 113.922L299.187 113.929L299.194 113.936L300.566 112.48ZM290.326 97.76L288.485 98.5411L288.49 98.5529L288.495 98.5645L290.326 97.76ZM290.326 60.64L288.495 59.8354L288.49 59.8471L288.485 59.8589L290.326 60.64ZM300.694 45.92L302.066 47.3756L300.694 45.92ZM316.31 36.32L317.006 38.1948L317.018 38.1905L317.03 38.186L316.31 36.32ZM357.398 36.832L356.625 38.6767L356.634 38.6803L357.398 36.832ZM373.526 48.352L374.883 49.8216L376.305 48.5086L375.039 47.0441L373.526 48.352ZM360.214 60.64L358.764 62.0175L360.122 63.4468L361.571 62.1096L360.214 60.64ZM349.59 53.088L348.778 54.9156L348.795 54.9232L348.812 54.9305L349.59 53.088ZM315.798 58.464L314.407 57.0268L314.395 57.0382L314.384 57.0498L315.798 58.464ZM309.782 67.552L307.935 66.786L307.926 66.8054L307.919 66.8249L309.782 67.552ZM309.782 90.72L307.919 91.4471L307.926 91.4666L307.935 91.486L309.782 90.72ZM315.798 99.936L314.361 101.327L314.384 101.35L314.407 101.373L315.798 99.936ZM325.014 105.824L324.287 107.687L324.294 107.69L324.302 107.693L325.014 105.824ZM348.694 105.952L349.326 107.849L349.339 107.845L349.351 107.841L348.694 105.952ZM360.086 99.168L361.658 97.9318L360.366 96.2885L358.782 97.652L360.086 99.168ZM371.862 114.144L373.066 115.741L374.695 114.512L373.434 112.908L371.862 114.144ZM354.838 122.592L354.259 120.678L354.252 120.68L354.838 122.592ZM352.918 111.456H350.918V113.192L352.637 113.436L352.918 111.456ZM352.918 77.792V75.792H350.918V77.792H352.918ZM371.862 77.792H373.862V75.792H371.862V77.792ZM371.862 114.144L371.581 116.124L373.862 116.448V114.144H371.862ZM335.638 123.536C328.767 123.536 322.477 122.46 316.75 120.333L315.358 124.083C321.577 126.393 328.344 127.536 335.638 127.536V123.536ZM316.783 120.346C311.124 118.131 306.182 115.024 301.938 111.024L299.194 113.936C303.825 118.299 309.208 121.677 315.325 124.07L316.783 120.346ZM301.952 111.038C297.792 107.041 294.528 102.353 292.157 96.9555L288.495 98.5645C291.073 104.431 294.636 109.556 299.18 113.922L301.952 111.038ZM292.167 96.9789C289.893 91.6181 288.742 85.7004 288.742 79.2H284.742C284.742 86.1822 285.98 92.6379 288.485 98.5411L292.167 96.9789ZM288.742 79.2C288.742 72.6996 289.893 66.7819 292.167 61.4211L288.485 59.8589C285.98 65.7621 284.742 72.2178 284.742 79.2H288.742ZM292.157 61.4445C294.525 56.0559 297.825 51.3712 302.066 47.3756L299.322 44.4644C294.688 48.8314 291.077 53.9601 288.495 59.8354L292.157 61.4445ZM302.066 47.3756C306.299 43.386 311.272 40.3246 317.006 38.1948L315.614 34.4451C309.401 36.7527 303.963 40.0913 299.322 44.4644L302.066 47.3756ZM317.03 38.186C322.748 35.9805 329.071 34.864 336.022 34.864V30.864C328.637 30.864 321.819 32.0515 315.59 34.454L317.03 38.186ZM336.022 34.864C343.734 34.864 350.591 36.1489 356.625 38.6767L358.171 34.9873C351.576 32.2245 344.182 30.864 336.022 30.864V34.864ZM356.634 38.6803C362.758 41.2114 367.873 44.8711 372.013 49.6599L375.039 47.0441C370.475 41.7636 364.838 37.7432 358.162 34.9837L356.634 38.6803ZM372.169 46.8824L358.857 59.1704L361.571 62.1096L374.883 49.8216L372.169 46.8824ZM361.664 59.2625C358.256 55.6754 354.492 52.987 350.368 51.2455L348.812 54.9305C352.368 56.4317 355.686 58.7779 358.764 62.0175L361.664 59.2625ZM350.402 51.2604C346.288 49.4316 341.827 48.528 337.046 48.528V52.528C341.31 52.528 345.212 53.3311 348.778 54.9156L350.402 51.2604ZM337.046 48.528C332.483 48.528 328.27 49.2442 324.43 50.707L325.854 54.445C329.182 53.1771 332.905 52.528 337.046 52.528V48.528ZM324.43 50.707C320.604 52.1647 317.255 54.2705 314.407 57.0268L317.189 59.9012C319.631 57.5375 322.512 55.718 325.854 54.445L324.43 50.707ZM314.384 57.0498C311.63 59.8039 309.481 63.0563 307.935 66.786L311.629 68.318C312.984 65.0504 314.846 62.2441 317.212 59.8782L314.384 57.0498ZM307.919 66.8249C306.452 70.5847 305.734 74.7181 305.734 79.2H309.734C309.734 75.1485 310.382 71.5167 311.645 68.2791L307.919 66.8249ZM305.734 79.2C305.734 83.602 306.453 87.6918 307.919 91.4471L311.645 89.9929C310.38 86.7508 309.734 83.1607 309.734 79.2H305.734ZM307.935 91.486C309.479 95.2101 311.621 98.4956 314.361 101.327L317.235 98.5452C314.855 96.0857 312.987 93.2273 311.629 89.954L307.935 91.486ZM314.407 101.373C317.247 104.122 320.546 106.227 324.287 107.687L325.741 103.961C322.485 102.69 319.639 100.87 317.189 98.4988L314.407 101.373ZM324.302 107.693C328.138 109.154 332.307 109.872 336.79 109.872V105.872C332.739 105.872 329.058 105.225 325.726 103.955L324.302 107.693ZM336.79 109.872C341.098 109.872 345.28 109.198 349.326 107.849L348.062 104.055C344.428 105.266 340.674 105.872 336.79 105.872V109.872ZM349.351 107.841C353.549 106.381 357.562 103.979 361.391 100.684L358.782 97.652C355.272 100.672 351.689 102.793 348.037 104.063L349.351 107.841ZM358.514 100.404L370.29 115.38L373.434 112.908L361.658 97.9318L358.514 100.404ZM370.658 112.547C366.001 116.06 360.544 118.776 354.259 120.678L355.417 124.506C362.103 122.483 367.995 119.567 373.066 115.741L370.658 112.547ZM354.252 120.68C348.033 122.587 341.83 123.536 335.638 123.536V127.536C342.246 127.536 348.843 126.522 355.424 124.504L354.252 120.68ZM354.918 111.456V77.792H350.918V111.456H354.918ZM352.918 79.792H371.862V75.792H352.918V79.792ZM369.862 77.792V114.144H373.862V77.792H369.862ZM372.143 112.164L353.199 109.476L352.637 113.436L371.581 116.124L372.143 112.164ZM452.564 34.4V32.4H450.564V34.4H452.564ZM473.3 34.4H475.3V32.4H473.3V34.4ZM473.3 124V126H475.3V124H473.3ZM452.564 124H450.564V126H452.564V124ZM411.86 124V126H413.86V124H411.86ZM391.124 124H389.124V126H391.124V124ZM391.124 34.4V32.4H389.124V34.4H391.124ZM411.86 34.4H413.86V32.4H411.86V34.4ZM454.1 87.264V89.264H456.1V87.264H454.1ZM410.324 87.264H408.324V89.264H410.324V87.264ZM410.324 69.728V67.728H408.324V69.728H410.324ZM454.1 69.728H456.1V67.728H454.1V69.728ZM452.564 36.4H473.3V32.4H452.564V36.4ZM471.3 34.4V124H475.3V34.4H471.3ZM473.3 122H452.564V126H473.3V122ZM454.564 124V34.4H450.564V124H454.564ZM411.86 122H391.124V126H411.86V122ZM393.124 124V34.4H389.124V124H393.124ZM391.124 36.4H411.86V32.4H391.124V36.4ZM409.86 34.4V124H413.86V34.4H409.86ZM454.1 85.264H410.324V89.264H454.1V85.264ZM412.324 87.264V69.728H408.324V87.264H412.324ZM410.324 71.728H454.1V67.728H410.324V71.728ZM452.1 69.728V87.264H456.1V69.728H452.1ZM482.723 124L480.896 123.186L479.642 126H482.723V124ZM522.659 34.4V32.4H521.361L520.832 33.5858L522.659 34.4ZM543.139 34.4L544.965 33.5836L544.436 32.4H543.139V34.4ZM583.203 124V126H586.288L585.029 123.184L583.203 124ZM561.443 124L559.595 124.765L560.107 126H561.443V124ZM528.675 44.896V42.896H525.682L526.827 45.6614L528.675 44.896ZM536.867 44.896L538.714 45.664L539.865 42.896H536.867V44.896ZM503.971 124V126H505.305L505.818 124.768L503.971 124ZM502.691 104.8L500.803 104.14L499.873 106.8H502.691V104.8ZM508.195 89.056V87.056H506.775L506.307 88.396L508.195 89.056ZM554.275 89.056L556.158 88.3824L555.684 87.056H554.275V89.056ZM559.907 104.8V106.8H562.747L561.79 104.126L559.907 104.8ZM484.55 124.814L524.486 35.2142L520.832 33.5858L480.896 123.186L484.55 124.814ZM522.659 36.4H543.139V32.4H522.659V36.4ZM541.313 35.2164L581.377 124.816L585.029 123.184L544.965 33.5836L541.313 35.2164ZM583.203 122H561.443V126H583.203V122ZM563.291 123.235L530.523 44.1306L526.827 45.6614L559.595 124.765L563.291 123.235ZM528.675 46.896H536.867V42.896H528.675V46.896ZM535.02 44.128L502.124 123.232L505.818 124.768L538.714 45.664L535.02 44.128ZM503.971 122H482.723V126H503.971V122ZM504.579 105.46L510.083 89.716L506.307 88.396L500.803 104.14L504.579 105.46ZM508.195 91.056H554.275V87.056H508.195V91.056ZM552.392 89.7296L558.024 105.474L561.79 104.126L556.158 88.3824L552.392 89.7296ZM559.907 102.8H502.691V106.8H559.907V102.8ZM592.499 124H590.499V126H592.499V124ZM592.499 34.4V32.4H590.499V34.4H592.499ZM652.019 38.368L651.189 40.1878L651.201 40.1929L651.212 40.1978L652.019 38.368ZM665.459 49.504L663.781 50.5929V50.5929L665.459 49.504ZM665.459 84.192L667.128 85.2945L667.132 85.2877L667.137 85.2809L665.459 84.192ZM652.019 95.2L652.826 97.0298L652.019 95.2ZM604.019 99.04L602.615 97.6159L599.142 101.04H604.019V99.04ZM613.235 89.952H615.235V85.1709L611.831 88.5279L613.235 89.952ZM613.235 124V126H615.235V124H613.235ZM649.459 124L647.812 125.135L648.408 126H649.459V124ZM627.059 91.488V89.488H623.252L625.412 92.6227L627.059 91.488ZM649.203 91.488L650.844 90.3445L650.247 89.488H649.203V91.488ZM671.859 124V126H675.69L673.5 122.857L671.859 124ZM613.235 92.256L611.783 93.6315L615.235 97.2752V92.256H613.235ZM604.019 82.528V80.528H599.369L602.567 83.9035L604.019 82.528ZM644.467 78.432L645.775 79.9447L645.787 79.9347L645.798 79.9246L644.467 78.432ZM604.019 51.296L602.558 49.93L599.411 53.296H604.019V51.296ZM613.235 41.44H615.235V36.3728L611.774 40.074L613.235 41.44ZM594.499 124V34.4H590.499V124H594.499ZM592.499 36.4H631.283V32.4H592.499V36.4ZM631.283 36.4C639.09 36.4 645.705 37.6877 651.189 40.1878L652.849 36.5482C646.727 33.7576 639.519 32.4 631.283 32.4V36.4ZM651.212 40.1978C656.693 42.6161 660.856 46.0857 663.781 50.5929L667.137 48.4151C663.748 43.1942 658.95 39.2399 652.826 36.5382L651.212 40.1978ZM663.781 50.5929C666.696 55.0828 668.195 60.493 668.195 66.912H672.195C672.195 59.8484 670.537 53.6532 667.137 48.4151L663.781 50.5929ZM668.195 66.912C668.195 73.2401 666.699 78.6091 663.781 83.1031L667.137 85.2809C670.534 80.0469 672.195 73.8959 672.195 66.912H668.195ZM663.79 83.0895C660.867 87.5143 656.702 90.9478 651.212 93.3702L652.826 97.0298C658.941 94.3322 663.737 90.427 667.128 85.2945L663.79 83.0895ZM651.212 93.3702C645.721 95.7924 639.097 97.04 631.283 97.04V101.04C639.511 101.04 646.711 99.7276 652.826 97.0298L651.212 93.3702ZM631.283 97.04H604.019V101.04H631.283V97.04ZM605.423 100.464L614.639 91.3761L611.831 88.5279L602.615 97.6159L605.423 100.464ZM611.235 89.952V124H615.235V89.952H611.235ZM613.235 122H592.499V126H613.235V122ZM651.106 122.865L628.706 90.3533L625.412 92.6227L647.812 125.135L651.106 122.865ZM627.059 93.488H649.203V89.488H627.059V93.488ZM647.562 92.6315L670.218 125.143L673.5 122.857L650.844 90.3445L647.562 92.6315ZM671.859 122H649.459V126H671.859V122ZM614.687 90.8805L605.471 81.1525L602.567 83.9035L611.783 93.6315L614.687 90.8805ZM604.019 84.528H630.131V80.528H604.019V84.528ZM630.131 84.528C636.766 84.528 642.104 83.1199 645.775 79.9447L643.159 76.9193C640.515 79.2054 636.296 80.528 630.131 80.528V84.528ZM645.798 79.9246C649.447 76.6706 651.203 72.2518 651.203 66.912H647.203C647.203 71.3002 645.802 74.5614 643.136 76.9394L645.798 79.9246ZM651.203 66.912C651.203 61.5005 649.454 57.0611 645.775 53.8793L643.159 56.9047C645.794 59.1842 647.203 62.4248 647.203 66.912H651.203ZM645.775 53.8793C642.104 50.7041 636.766 49.296 630.131 49.296V53.296C636.296 53.296 640.515 54.6185 643.159 56.9047L645.775 53.8793ZM630.131 49.296H604.019V53.296H630.131V49.296ZM605.48 52.662L614.696 42.806L611.774 40.074L602.558 49.93L605.48 52.662ZM611.235 41.44V92.256H615.235V41.44H611.235ZM710.304 122.208L709.575 124.07L709.591 124.077L709.608 124.083L710.304 122.208ZM694.816 112.48L693.43 113.922L693.437 113.929L693.444 113.936L694.816 112.48ZM684.576 97.76L682.735 98.5411L682.74 98.5529L682.745 98.5645L684.576 97.76ZM684.576 60.64L682.745 59.8354L682.74 59.8471L682.735 59.8589L684.576 60.64ZM694.944 45.92L696.316 47.3756L694.944 45.92ZM710.56 36.32L711.256 38.1948L711.268 38.1905L711.28 38.186L710.56 36.32ZM751.648 36.832L750.875 38.6767L750.884 38.6803L751.648 36.832ZM767.776 48.352L769.133 49.8216L770.555 48.5086L769.289 47.0441L767.776 48.352ZM754.464 60.64L753.014 62.0175L754.372 63.4468L755.821 62.1096L754.464 60.64ZM743.84 53.088L743.028 54.9156L743.045 54.9232L743.062 54.9305L743.84 53.088ZM710.048 58.464L708.657 57.0268L708.645 57.0382L708.634 57.0498L710.048 58.464ZM704.032 67.552L702.185 66.786L702.176 66.8054L702.169 66.8249L704.032 67.552ZM704.032 90.72L702.169 91.4471L702.176 91.4666L702.185 91.486L704.032 90.72ZM710.048 99.936L708.611 101.327L708.634 101.35L708.657 101.373L710.048 99.936ZM719.264 105.824L718.537 107.687L718.544 107.69L718.552 107.693L719.264 105.824ZM742.944 105.952L743.576 107.849L743.589 107.845L743.601 107.841L742.944 105.952ZM754.336 99.168L755.908 97.9318L754.616 96.2885L753.031 97.652L754.336 99.168ZM766.112 114.144L767.316 115.741L768.945 114.512L767.684 112.908L766.112 114.144ZM749.088 122.592L748.509 120.678L748.502 120.68L749.088 122.592ZM747.168 111.456H745.168V113.192L746.887 113.436L747.168 111.456ZM747.168 77.792V75.792H745.168V77.792H747.168ZM766.112 77.792H768.112V75.792H766.112V77.792ZM766.112 114.144L765.831 116.124L768.112 116.448V114.144H766.112ZM729.888 123.536C723.017 123.536 716.727 122.46 711 120.333L709.608 124.083C715.827 126.393 722.594 127.536 729.888 127.536V123.536ZM711.033 120.346C705.374 118.131 700.432 115.024 696.188 111.024L693.444 113.936C698.075 118.299 703.458 121.677 709.575 124.07L711.033 120.346ZM696.202 111.038C692.042 107.041 688.779 102.353 686.407 96.9555L682.745 98.5645C685.323 104.431 688.886 109.556 693.43 113.922L696.202 111.038ZM686.417 96.9789C684.143 91.6181 682.992 85.7004 682.992 79.2H678.992C678.992 86.1822 680.23 92.6379 682.735 98.5411L686.417 96.9789ZM682.992 79.2C682.992 72.6996 684.143 66.7819 686.417 61.4211L682.735 59.8589C680.23 65.7621 678.992 72.2178 678.992 79.2H682.992ZM686.407 61.4445C688.775 56.0559 692.075 51.3712 696.316 47.3756L693.572 44.4644C688.938 48.8314 685.327 53.9601 682.745 59.8354L686.407 61.4445ZM696.316 47.3756C700.549 43.386 705.522 40.3246 711.256 38.1948L709.864 34.4451C703.651 36.7527 698.213 40.0913 693.572 44.4644L696.316 47.3756ZM711.28 38.186C716.998 35.9805 723.321 34.864 730.272 34.864V30.864C722.887 30.864 716.069 32.0515 709.84 34.454L711.28 38.186ZM730.272 34.864C737.984 34.864 744.841 36.1489 750.875 38.6767L752.421 34.9873C745.826 32.2245 738.432 30.864 730.272 30.864V34.864ZM750.884 38.6803C757.008 41.2114 762.123 44.8711 766.263 49.6599L769.289 47.0441C764.725 41.7636 759.088 37.7432 752.412 34.9837L750.884 38.6803ZM766.419 46.8824L753.107 59.1704L755.821 62.1096L769.133 49.8216L766.419 46.8824ZM755.914 59.2625C752.506 55.6754 748.742 52.987 744.618 51.2455L743.062 54.9305C746.618 56.4317 749.936 58.7779 753.014 62.0175L755.914 59.2625ZM744.652 51.2604C740.537 49.4316 736.077 48.528 731.296 48.528V52.528C735.56 52.528 739.463 53.3311 743.028 54.9156L744.652 51.2604ZM731.296 48.528C726.733 48.528 722.52 49.2442 718.68 50.707L720.104 54.445C723.432 53.1771 727.155 52.528 731.296 52.528V48.528ZM718.68 50.707C714.854 52.1647 711.505 54.2705 708.657 57.0268L711.439 59.9012C713.881 57.5375 716.762 55.718 720.104 54.445L718.68 50.707ZM708.634 57.0498C705.88 59.8039 703.731 63.0563 702.185 66.786L705.879 68.318C707.234 65.0504 709.096 62.2441 711.462 59.8782L708.634 57.0498ZM702.169 66.8249C700.702 70.5847 699.984 74.7181 699.984 79.2H703.984C703.984 75.1485 704.632 71.5167 705.895 68.2791L702.169 66.8249ZM699.984 79.2C699.984 83.602 700.703 87.6918 702.169 91.4471L705.895 89.9929C704.63 86.7508 703.984 83.1607 703.984 79.2H699.984ZM702.185 91.486C703.729 95.2101 705.871 98.4956 708.611 101.327L711.485 98.5452C709.105 96.0857 707.237 93.2273 705.879 89.954L702.185 91.486ZM708.657 101.373C711.497 104.122 714.796 106.227 718.537 107.687L719.991 103.961C716.735 102.69 713.889 100.87 711.439 98.4988L708.657 101.373ZM718.552 107.693C722.388 109.154 726.557 109.872 731.04 109.872V105.872C726.989 105.872 723.308 105.225 719.976 103.955L718.552 107.693ZM731.04 109.872C735.348 109.872 739.53 109.198 743.576 107.849L742.312 104.055C738.678 105.266 734.924 105.872 731.04 105.872V109.872ZM743.601 107.841C747.799 106.381 751.812 103.979 755.641 100.684L753.031 97.652C749.522 100.672 745.939 102.793 742.287 104.063L743.601 107.841ZM752.764 100.404L764.54 115.38L767.684 112.908L755.908 97.9318L752.764 100.404ZM764.908 112.547C760.251 116.06 754.794 118.776 748.509 120.678L749.667 124.506C756.353 122.483 762.245 119.567 767.316 115.741L764.908 112.547ZM748.502 120.68C742.283 122.587 736.08 123.536 729.888 123.536V127.536C736.496 127.536 743.093 126.522 749.674 124.504L748.502 120.68ZM749.168 111.456V77.792H745.168V111.456H749.168ZM747.168 79.792H766.112V75.792H747.168V79.792ZM764.112 77.792V114.144H768.112V77.792H764.112ZM766.393 112.164L747.449 109.476L746.887 113.436L765.831 116.124L766.393 112.164ZM773.598 124L771.771 123.186L770.517 126H773.598V124ZM813.534 34.4V32.4H812.236L811.707 33.5858L813.534 34.4ZM834.014 34.4L835.84 33.5836L835.311 32.4H834.014V34.4ZM874.078 124V126H877.163L875.904 123.184L874.078 124ZM852.318 124L850.47 124.765L850.982 126H852.318V124ZM819.55 44.896V42.896H816.557L817.702 45.6614L819.55 44.896ZM827.742 44.896L829.589 45.664L830.74 42.896H827.742V44.896ZM794.846 124V126H796.18L796.693 124.768L794.846 124ZM793.566 104.8L791.678 104.14L790.748 106.8H793.566V104.8ZM799.07 89.056V87.056H797.651L797.182 88.396L799.07 89.056ZM845.15 89.056L847.033 88.3824L846.559 87.056H845.15V89.056ZM850.782 104.8V106.8H853.622L852.665 104.126L850.782 104.8ZM775.425 124.814L815.361 35.2142L811.707 33.5858L771.771 123.186L775.425 124.814ZM813.534 36.4H834.014V32.4H813.534V36.4ZM832.188 35.2164L872.252 124.816L875.904 123.184L835.84 33.5836L832.188 35.2164ZM874.078 122H852.318V126H874.078V122ZM854.166 123.235L821.398 44.1306L817.702 45.6614L850.47 124.765L854.166 123.235ZM819.55 46.896H827.742V42.896H819.55V46.896ZM825.895 44.128L792.999 123.232L796.693 124.768L829.589 45.664L825.895 44.128ZM794.846 122H773.598V126H794.846V122ZM795.454 105.46L800.958 89.716L797.182 88.396L791.678 104.14L795.454 105.46ZM799.07 91.056H845.15V87.056H799.07V91.056ZM843.267 89.7296L848.899 105.474L852.665 104.126L847.033 88.3824L843.267 89.7296ZM850.782 102.8H793.566V106.8H850.782V102.8ZM874.473 124L872.646 123.186L871.392 126H874.473V124ZM914.409 34.4V32.4H913.111L912.582 33.5858L914.409 34.4ZM934.889 34.4L936.715 33.5836L936.186 32.4H934.889V34.4ZM974.953 124V126H978.038L976.779 123.184L974.953 124ZM953.193 124L951.345 124.765L951.857 126H953.193V124ZM920.425 44.896V42.896H917.432L918.577 45.6614L920.425 44.896ZM928.617 44.896L930.464 45.664L931.615 42.896H928.617V44.896ZM895.721 124V126H897.055L897.568 124.768L895.721 124ZM894.441 104.8L892.553 104.14L891.623 106.8H894.441V104.8ZM899.945 89.056V87.056H898.526L898.057 88.396L899.945 89.056ZM946.025 89.056L947.908 88.3824L947.434 87.056H946.025V89.056ZM951.657 104.8V106.8H954.497L953.54 104.126L951.657 104.8ZM876.3 124.814L916.236 35.2142L912.582 33.5858L872.646 123.186L876.3 124.814ZM914.409 36.4H934.889V32.4H914.409V36.4ZM933.063 35.2164L973.127 124.816L976.779 123.184L936.715 33.5836L933.063 35.2164ZM974.953 122H953.193V126H974.953V122ZM955.041 123.235L922.273 44.1306L918.577 45.6614L951.345 124.765L955.041 123.235ZM920.425 46.896H928.617V42.896H920.425V46.896ZM926.77 44.128L893.874 123.232L897.568 124.768L930.464 45.664L926.77 44.128ZM895.721 122H874.473V126H895.721V122ZM896.329 105.46L901.833 89.716L898.057 88.396L892.553 104.14L896.329 105.46ZM899.945 91.056H946.025V87.056H899.945V91.056ZM944.142 89.7296L949.774 105.474L953.54 104.126L947.908 88.3824L944.142 89.7296ZM951.657 102.8H894.441V106.8H951.657V102.8ZM984.249 124H982.249V126H984.249V124ZM984.249 34.4V32.4H982.249V34.4H984.249ZM1001.4 34.4L1002.95 33.1323L1002.35 32.4H1001.4V34.4ZM1054.27 98.912V100.912H1058.49L1055.81 97.6444L1054.27 98.912ZM1045.94 98.912H1043.94V100.912H1045.94V98.912ZM1045.94 34.4V32.4H1043.94V34.4H1045.94ZM1066.43 34.4H1068.43V32.4H1066.43V34.4ZM1066.43 124V126H1068.43V124H1066.43ZM1049.4 124L1047.86 125.269L1048.46 126H1049.4V124ZM996.409 59.488V57.488H992.178L994.864 60.7575L996.409 59.488ZM1004.73 59.488H1006.73V57.488H1004.73V59.488ZM1004.73 124V126H1006.73V124H1004.73ZM986.249 124V34.4H982.249V124H986.249ZM984.249 36.4H1001.4V32.4H984.249V36.4ZM999.854 35.6676L1052.72 100.18L1055.81 97.6444L1002.95 33.1323L999.854 35.6676ZM1054.27 96.912H1045.94V100.912H1054.27V96.912ZM1047.94 98.912V34.4H1043.94V98.912H1047.94ZM1045.94 36.4H1066.43V32.4H1045.94V36.4ZM1064.43 34.4V124H1068.43V34.4H1064.43ZM1066.43 122H1049.4V126H1066.43V122ZM1050.95 122.731L997.954 58.2185L994.864 60.7575L1047.86 125.269L1050.95 122.731ZM996.409 61.488H1004.73V57.488H996.409V61.488ZM1002.73 59.488V124H1006.73V59.488H1002.73ZM1004.73 122H984.249V126H1004.73V122Z" fill="#E2E8F0" mask="url(#path-1-outside-1_197_1602)"/>
</svg>
