<svg width="500" height="156" viewBox="0 0 500 156" fill="none" xmlns="http://www.w3.org/2000/svg">
<mask id="path-1-outside-1_490_6414" maskUnits="userSpaceOnUse" x="8" y="30" width="489" height="98" fill="black">
<rect fill="white" x="8" y="30" width="489" height="98"/>
<path d="M10.624 124V34.4H49.408C57.4293 34.4 64.3413 35.7227 70.144 38.368C75.9467 40.928 80.4267 44.64 83.584 49.504C86.7413 54.368 88.32 60.1707 88.32 66.912C88.32 73.568 86.7413 79.328 83.584 84.192C80.4267 89.056 75.9467 92.8107 70.144 95.456C64.3413 98.016 57.4293 99.296 49.408 99.296H22.144L31.36 89.952V124H10.624ZM31.36 92.256L22.144 82.4H48.256C54.656 82.4 59.4347 81.0347 62.592 78.304C65.7493 75.5733 67.328 71.776 67.328 66.912C67.328 61.9627 65.7493 58.1227 62.592 55.392C59.4347 52.6613 54.656 51.296 48.256 51.296H22.144L31.36 41.44V92.256ZM103.124 124V34.4H141.908C149.929 34.4 156.841 35.7227 162.644 38.368C168.447 40.928 172.927 44.64 176.084 49.504C179.241 54.368 180.82 60.1707 180.82 66.912C180.82 73.568 179.241 79.328 176.084 84.192C172.927 88.9707 168.447 92.64 162.644 95.2C156.841 97.76 149.929 99.04 141.908 99.04H114.644L123.86 89.952V124H103.124ZM160.084 124L137.684 91.488H159.828L182.484 124H160.084ZM123.86 92.256L114.644 82.528H140.756C147.156 82.528 151.935 81.1627 155.092 78.432C158.249 75.616 159.828 71.776 159.828 66.912C159.828 61.9627 158.249 58.1227 155.092 55.392C151.935 52.6613 147.156 51.296 140.756 51.296H114.644L123.86 41.44V92.256ZM240.769 125.536C233.686 125.536 227.116 124.384 221.057 122.08C215.084 119.776 209.878 116.533 205.441 112.352C201.089 108.171 197.676 103.264 195.201 97.632C192.812 92 191.617 85.856 191.617 79.2C191.617 72.544 192.812 66.4 195.201 60.768C197.676 55.136 201.132 50.2293 205.569 46.048C210.006 41.8667 215.212 38.624 221.185 36.32C227.158 34.016 233.644 32.864 240.641 32.864C247.724 32.864 254.209 34.016 260.097 36.32C266.07 38.624 271.233 41.8667 275.585 46.048C280.022 50.2293 283.478 55.136 285.953 60.768C288.428 66.3147 289.665 72.4587 289.665 79.2C289.665 85.856 288.428 92.0427 285.953 97.76C283.478 103.392 280.022 108.299 275.585 112.48C271.233 116.576 266.07 119.776 260.097 122.08C254.209 124.384 247.766 125.536 240.769 125.536ZM240.641 107.872C244.652 107.872 248.321 107.189 251.649 105.824C255.062 104.459 258.049 102.496 260.609 99.936C263.169 97.376 265.132 94.3467 266.497 90.848C267.948 87.3493 268.673 83.4667 268.673 79.2C268.673 74.9333 267.948 71.0507 266.497 67.552C265.132 64.0533 263.169 61.024 260.609 58.464C258.134 55.904 255.19 53.9413 251.777 52.576C248.364 51.2107 244.652 50.528 240.641 50.528C236.63 50.528 232.918 51.2107 229.505 52.576C226.177 53.9413 223.233 55.904 220.673 58.464C218.113 61.024 216.108 64.0533 214.657 67.552C213.292 71.0507 212.609 74.9333 212.609 79.2C212.609 83.3813 213.292 87.264 214.657 90.848C216.108 94.3467 218.07 97.376 220.545 99.936C223.105 102.496 226.092 104.459 229.505 105.824C232.918 107.189 236.63 107.872 240.641 107.872ZM324.449 74.72H367.457V91.36H324.449V74.72ZM325.985 124H305.249V34.4H372.961V51.04H325.985V124ZM386.999 124V34.4H407.735V124H386.999ZM428.999 124V34.4H449.735V107.104H494.663V124H428.999Z"/>
</mask>
<path d="M10.624 124H8.624V126H10.624V124ZM10.624 34.4V32.4H8.624V34.4H10.624ZM70.144 38.368L69.3144 40.1878L69.3255 40.1929L69.3367 40.1978L70.144 38.368ZM83.584 49.504L81.9064 50.5929L81.9064 50.5929L83.584 49.504ZM70.144 95.456L70.9513 97.2858L70.9625 97.2809L70.9736 97.2758L70.144 95.456ZM22.144 99.296L20.7201 97.8916L17.3623 101.296H22.144V99.296ZM31.36 89.952H33.36V85.0761L29.9361 88.5476L31.36 89.952ZM31.36 124V126H33.36V124H31.36ZM31.36 92.256L29.8992 93.622L33.36 97.3232V92.256H31.36ZM22.144 82.4V80.4H17.5357L20.6832 83.766L22.144 82.4ZM22.144 51.296L20.6832 49.93L17.5357 53.296H22.144V51.296ZM31.36 41.44H33.36V36.3728L29.8992 40.074L31.36 41.44ZM12.624 124V34.4H8.624V124H12.624ZM10.624 36.4H49.408V32.4H10.624V36.4ZM49.408 36.4C57.2146 36.4 63.8302 37.6877 69.3144 40.1878L70.9736 36.5482C64.8525 33.7576 57.6441 32.4 49.408 32.4V36.4ZM69.3367 40.1978C74.8181 42.6161 78.9807 46.0857 81.9064 50.5929L85.2616 48.4151C81.8726 43.1942 77.0752 39.2399 70.9513 36.5382L69.3367 40.1978ZM81.9064 50.5929C84.8209 55.0828 86.32 60.493 86.32 66.912H90.32C90.32 59.8483 88.6618 53.6532 85.2616 48.4151L81.9064 50.5929ZM86.32 66.912C86.32 73.2401 84.8235 78.6091 81.9064 83.1031L85.2616 85.2809C88.6591 80.0469 90.32 73.8959 90.32 66.912H86.32ZM81.9064 83.1031C78.9769 87.6162 74.8064 91.1325 69.3144 93.6362L70.9736 97.2758C77.0869 94.4889 81.8765 90.4958 85.2616 85.2809L81.9064 83.1031ZM69.3367 93.6262C63.8462 96.0484 57.2224 97.296 49.408 97.296V101.296C57.6363 101.296 64.8364 99.9836 70.9513 97.2858L69.3367 93.6262ZM49.408 97.296H22.144V101.296H49.408V97.296ZM23.5679 100.7L32.7839 91.3564L29.9361 88.5476L20.7201 97.8916L23.5679 100.7ZM29.36 89.952V124H33.36V89.952H29.36ZM31.36 122H10.624V126H31.36V122ZM32.8208 90.89L23.6048 81.034L20.6832 83.766L29.8992 93.622L32.8208 90.89ZM22.144 84.4H48.256V80.4H22.144V84.4ZM48.256 84.4C54.8907 84.4 60.229 82.9919 63.9003 79.8167L61.2837 76.7913C58.6403 79.0774 54.4213 80.4 48.256 80.4V84.4ZM63.9003 79.8167C67.5713 76.6418 69.328 72.2506 69.328 66.912H65.328C65.328 71.3014 63.9274 74.5048 61.2837 76.7913L63.9003 79.8167ZM69.328 66.912C69.328 61.5005 67.5793 57.0611 63.9003 53.8793L61.2837 56.9047C63.9194 59.1842 65.328 62.4248 65.328 66.912H69.328ZM63.9003 53.8793C60.229 50.7041 54.8907 49.296 48.256 49.296V53.296C54.4213 53.296 58.6403 54.6186 61.2837 56.9047L63.9003 53.8793ZM48.256 49.296H22.144V53.296H48.256V49.296ZM23.6048 52.662L32.8208 42.806L29.8992 40.074L20.6832 49.93L23.6048 52.662ZM29.36 41.44V92.256H33.36V41.44H29.36ZM103.124 124H101.124V126H103.124V124ZM103.124 34.4V32.4H101.124V34.4H103.124ZM162.644 38.368L161.814 40.1878L161.826 40.1929L161.837 40.1978L162.644 38.368ZM176.084 49.504L174.406 50.5929L174.406 50.5929L176.084 49.504ZM176.084 84.192L177.753 85.2945L177.757 85.2877L177.762 85.2809L176.084 84.192ZM162.644 95.2L163.451 97.0298L163.451 97.0298L162.644 95.2ZM114.644 99.04L113.24 97.6159L109.767 101.04H114.644V99.04ZM123.86 89.952H125.86V85.1709L122.456 88.5279L123.86 89.952ZM123.86 124V126H125.86V124H123.86ZM160.084 124L158.437 125.135L159.033 126H160.084V124ZM137.684 91.488V89.488H133.877L136.037 92.6227L137.684 91.488ZM159.828 91.488L161.469 90.3445L160.872 89.488H159.828V91.488ZM182.484 124V126H186.315L184.125 122.857L182.484 124ZM123.86 92.256L122.408 93.6315L125.86 97.2752V92.256H123.86ZM114.644 82.528V80.528H109.994L113.192 83.9035L114.644 82.528ZM155.092 78.432L156.4 79.9447L156.412 79.9347L156.423 79.9246L155.092 78.432ZM114.644 51.296L113.183 49.93L110.036 53.296H114.644V51.296ZM123.86 41.44H125.86V36.3728L122.399 40.074L123.86 41.44ZM105.124 124V34.4H101.124V124H105.124ZM103.124 36.4H141.908V32.4H103.124V36.4ZM141.908 36.4C149.715 36.4 156.33 37.6877 161.814 40.1878L163.474 36.5482C157.352 33.7576 150.144 32.4 141.908 32.4V36.4ZM161.837 40.1978C167.318 42.6161 171.481 46.0857 174.406 50.5929L177.762 48.4151C174.373 43.1942 169.575 39.2399 163.451 36.5382L161.837 40.1978ZM174.406 50.5929C177.321 55.0828 178.82 60.493 178.82 66.912H182.82C182.82 59.8483 181.162 53.6532 177.762 48.4151L174.406 50.5929ZM178.82 66.912C178.82 73.2401 177.324 78.6091 174.406 83.1031L177.762 85.2809C181.159 80.0469 182.82 73.8959 182.82 66.912H178.82ZM174.415 83.0895C171.492 87.5143 167.327 90.9478 161.837 93.3702L163.451 97.0298C169.566 94.3322 174.362 90.427 177.753 85.2945L174.415 83.0895ZM161.837 93.3702C156.346 95.7924 149.722 97.04 141.908 97.04V101.04C150.136 101.04 157.336 99.7276 163.451 97.0298L161.837 93.3702ZM141.908 97.04H114.644V101.04H141.908V97.04ZM116.048 100.464L125.264 91.3761L122.456 88.5279L113.24 97.6159L116.048 100.464ZM121.86 89.952V124H125.86V89.952H121.86ZM123.86 122H103.124V126H123.86V122ZM161.731 122.865L139.331 90.3533L136.037 92.6227L158.437 125.135L161.731 122.865ZM137.684 93.488H159.828V89.488H137.684V93.488ZM158.187 92.6315L180.843 125.143L184.125 122.857L161.469 90.3445L158.187 92.6315ZM182.484 122H160.084V126H182.484V122ZM125.312 90.8805L116.096 81.1525L113.192 83.9035L122.408 93.6315L125.312 90.8805ZM114.644 84.528H140.756V80.528H114.644V84.528ZM140.756 84.528C147.391 84.528 152.729 83.1199 156.4 79.9447L153.784 76.9193C151.14 79.2054 146.921 80.528 140.756 80.528V84.528ZM156.423 79.9246C160.072 76.6706 161.828 72.2518 161.828 66.912H157.828C157.828 71.3002 156.427 74.5614 153.761 76.9394L156.423 79.9246ZM161.828 66.912C161.828 61.5005 160.079 57.0611 156.4 53.8793L153.784 56.9047C156.419 59.1842 157.828 62.4248 157.828 66.912H161.828ZM156.4 53.8793C152.729 50.7041 147.391 49.296 140.756 49.296V53.296C146.921 53.296 151.14 54.6186 153.784 56.9047L156.4 53.8793ZM140.756 49.296H114.644V53.296H140.756V49.296ZM116.105 52.662L125.321 42.806L122.399 40.074L113.183 49.93L116.105 52.662ZM121.86 41.44V92.256H125.86V41.44H121.86ZM221.057 122.08L220.337 123.946L220.346 123.949L221.057 122.08ZM205.441 112.352L204.055 113.794L204.062 113.801L204.069 113.808L205.441 112.352ZM195.201 97.632L193.36 98.4131L193.365 98.4249L193.37 98.4365L195.201 97.632ZM195.201 60.768L193.37 59.9635L193.365 59.9751L193.36 59.9869L195.201 60.768ZM221.185 36.32L220.465 34.454L220.465 34.454L221.185 36.32ZM260.097 36.32L259.368 38.1825L259.377 38.186L260.097 36.32ZM275.585 46.048L274.199 47.4902L274.206 47.4969L274.213 47.5036L275.585 46.048ZM285.953 60.768L284.122 61.5726L284.127 61.5829L285.953 60.768ZM285.953 97.76L287.784 98.5646L287.788 98.5544L285.953 97.76ZM275.585 112.48L276.956 113.936L276.957 113.936L275.585 112.48ZM260.097 122.08L259.377 120.214L259.368 120.218L260.097 122.08ZM251.649 105.824L250.906 103.967L250.898 103.97L250.89 103.974L251.649 105.824ZM260.609 99.936L259.195 98.5218L259.195 98.5218L260.609 99.936ZM266.497 90.848L264.65 90.082L264.641 90.1014L264.634 90.1209L266.497 90.848ZM266.497 67.552L264.634 68.2791L264.641 68.2986L264.65 68.318L266.497 67.552ZM260.609 58.464L259.171 59.854L259.183 59.8662L259.195 59.8782L260.609 58.464ZM251.777 52.576L251.034 54.433L251.034 54.433L251.777 52.576ZM229.505 52.576L228.762 50.719L228.754 50.7223L228.746 50.7257L229.505 52.576ZM220.673 58.464L222.087 59.8782L222.087 59.8782L220.673 58.464ZM214.657 67.552L212.81 66.786L212.801 66.8054L212.794 66.8249L214.657 67.552ZM214.657 90.848L212.788 91.56L212.798 91.5872L212.81 91.614L214.657 90.848ZM220.545 99.936L219.107 101.326L219.119 101.338L219.131 101.35L220.545 99.936ZM229.505 105.824L228.762 107.681L228.762 107.681L229.505 105.824ZM240.769 123.536C233.907 123.536 227.579 122.421 221.768 120.211L220.346 123.949C226.652 126.347 233.466 127.536 240.769 127.536V123.536ZM221.777 120.214C216.033 117.999 211.052 114.891 206.813 110.896L204.069 113.808C208.705 118.175 214.134 121.553 220.337 123.946L221.777 120.214ZM206.827 110.91C202.667 106.913 199.403 102.225 197.032 96.8275L193.37 98.4365C195.948 104.303 199.511 109.428 204.055 113.794L206.827 110.91ZM197.042 96.8509C194.767 91.487 193.617 85.6114 193.617 79.2H189.617C189.617 86.1006 190.857 92.513 193.36 98.4131L197.042 96.8509ZM193.617 79.2C193.617 72.7886 194.767 66.913 197.042 61.5491L193.36 59.9869C190.857 65.887 189.617 72.2994 189.617 79.2H193.617ZM197.032 61.5725C199.4 56.1839 202.7 51.4992 206.941 47.5036L204.197 44.5924C199.563 48.9594 195.952 54.0881 193.37 59.9635L197.032 61.5725ZM206.941 47.5036C211.18 43.5088 216.161 40.4015 221.905 38.186L220.465 34.454C214.262 36.8465 208.833 40.2245 204.197 44.5924L206.941 47.5036ZM221.905 38.186C227.628 35.9785 233.867 34.864 240.641 34.864V30.864C233.42 30.864 226.689 32.0535 220.465 34.454L221.905 38.186ZM240.641 34.864C247.504 34.864 253.739 35.9796 259.368 38.1825L260.826 34.4575C254.679 32.0524 247.943 30.864 240.641 30.864V34.864ZM259.377 38.186C265.118 40.4003 270.05 43.504 274.199 47.4902L276.971 44.6058C272.416 40.2293 267.023 36.8477 260.817 34.454L259.377 38.186ZM274.213 47.5036C278.454 51.4992 281.754 56.1839 284.122 61.5725L287.784 59.9635C285.202 54.0881 281.591 48.9594 276.957 44.5924L274.213 47.5036ZM284.127 61.5829C286.475 66.8462 287.665 72.7084 287.665 79.2H291.665C291.665 72.2089 290.381 65.7831 287.779 59.9531L284.127 61.5829ZM287.665 79.2C287.665 85.6017 286.476 91.5158 284.118 96.9656L287.788 98.5544C290.379 92.5695 291.665 86.1103 291.665 79.2H287.665ZM284.122 96.9555C281.754 102.344 278.454 107.029 274.213 111.024L276.957 113.936C281.591 109.569 285.202 104.44 287.784 98.5645L284.122 96.9555ZM274.214 111.024C270.064 114.93 265.127 117.996 259.377 120.214L260.817 123.946C267.014 121.556 272.402 118.222 276.956 113.936L274.214 111.024ZM259.368 120.218C253.736 122.421 247.544 123.536 240.769 123.536V127.536C247.989 127.536 254.682 126.347 260.826 123.942L259.368 120.218ZM240.641 109.872C244.882 109.872 248.813 109.149 252.408 107.674L250.89 103.974C247.829 105.229 244.421 105.872 240.641 105.872V109.872ZM252.392 107.681C256.053 106.217 259.269 104.105 262.023 101.35L259.195 98.5218C256.829 100.887 254.072 102.701 250.906 103.967L252.392 107.681ZM262.023 101.35C264.786 98.5873 266.898 95.3215 268.36 91.5751L264.634 90.1209C263.365 93.3718 261.552 96.1647 259.195 98.5218L262.023 101.35ZM268.344 91.614C269.908 87.8437 270.673 83.6964 270.673 79.2H266.673C266.673 83.2369 265.988 86.855 264.65 90.082L268.344 91.614ZM270.673 79.2C270.673 74.7036 269.908 70.5563 268.344 66.786L264.65 68.318C265.988 71.545 266.673 75.1631 266.673 79.2H270.673ZM268.36 66.8249C266.898 63.0785 264.786 59.8127 262.023 57.0498L259.195 59.8782C261.552 62.2353 263.365 65.0282 264.634 68.2791L268.36 66.8249ZM262.047 57.074C259.37 54.3043 256.186 52.1857 252.52 50.719L251.034 54.433C254.194 55.6969 256.899 57.5036 259.171 59.854L262.047 57.074ZM252.52 50.719C248.85 49.251 244.883 48.528 240.641 48.528V52.528C244.42 52.528 247.878 53.1704 251.034 54.433L252.52 50.719ZM240.641 48.528C236.399 48.528 232.432 49.251 228.762 50.719L230.248 54.433C233.404 53.1704 236.862 52.528 240.641 52.528V48.528ZM228.746 50.7257C225.171 52.1922 222.005 54.3037 219.259 57.0498L222.087 59.8782C224.461 57.5043 227.183 55.6904 230.264 54.4263L228.746 50.7257ZM219.259 57.0498C216.505 59.8039 214.356 63.0563 212.81 66.786L216.504 68.318C217.859 65.0504 219.721 62.2441 222.087 59.8782L219.259 57.0498ZM212.794 66.8249C211.327 70.5847 210.609 74.7181 210.609 79.2H214.609C214.609 75.1485 215.257 71.5167 216.52 68.2791L212.794 66.8249ZM210.609 79.2C210.609 83.6026 211.329 87.7289 212.788 91.56L216.526 90.136C215.255 86.7991 214.609 83.16 214.609 79.2H210.609ZM212.81 91.614C214.35 95.3296 216.447 98.5743 219.107 101.326L221.983 98.546C219.694 96.1777 217.865 93.3637 216.504 90.082L212.81 91.614ZM219.131 101.35C221.885 104.105 225.101 106.217 228.762 107.681L230.248 103.967C227.082 102.701 224.325 100.887 221.959 98.5218L219.131 101.35ZM228.762 107.681C232.432 109.149 236.399 109.872 240.641 109.872V105.872C236.862 105.872 233.404 105.23 230.248 103.967L228.762 107.681ZM324.449 74.72V72.72H322.449V74.72H324.449ZM367.457 74.72H369.457V72.72H367.457V74.72ZM367.457 91.36V93.36H369.457V91.36H367.457ZM324.449 91.36H322.449V93.36H324.449V91.36ZM325.985 124V126H327.985V124H325.985ZM305.249 124H303.249V126H305.249V124ZM305.249 34.4V32.4H303.249V34.4H305.249ZM372.961 34.4H374.961V32.4H372.961V34.4ZM372.961 51.04V53.04H374.961V51.04H372.961ZM325.985 51.04V49.04H323.985V51.04H325.985ZM324.449 76.72H367.457V72.72H324.449V76.72ZM365.457 74.72V91.36H369.457V74.72H365.457ZM367.457 89.36H324.449V93.36H367.457V89.36ZM326.449 91.36V74.72H322.449V91.36H326.449ZM325.985 122H305.249V126H325.985V122ZM307.249 124V34.4H303.249V124H307.249ZM305.249 36.4H372.961V32.4H305.249V36.4ZM370.961 34.4V51.04H374.961V34.4H370.961ZM372.961 49.04H325.985V53.04H372.961V49.04ZM323.985 51.04V124H327.985V51.04H323.985ZM386.999 124H384.999V126H386.999V124ZM386.999 34.4V32.4H384.999V34.4H386.999ZM407.735 34.4H409.735V32.4H407.735V34.4ZM407.735 124V126H409.735V124H407.735ZM388.999 124V34.4H384.999V124H388.999ZM386.999 36.4H407.735V32.4H386.999V36.4ZM405.735 34.4V124H409.735V34.4H405.735ZM407.735 122H386.999V126H407.735V122ZM428.999 124H426.999V126H428.999V124ZM428.999 34.4V32.4H426.999V34.4H428.999ZM449.735 34.4H451.735V32.4H449.735V34.4ZM449.735 107.104H447.735V109.104H449.735V107.104ZM494.663 107.104H496.663V105.104H494.663V107.104ZM494.663 124V126H496.663V124H494.663ZM430.999 124V34.4H426.999V124H430.999ZM428.999 36.4H449.735V32.4H428.999V36.4ZM447.735 34.4V107.104H451.735V34.4H447.735ZM449.735 109.104H494.663V105.104H449.735V109.104ZM492.663 107.104V124H496.663V107.104H492.663ZM494.663 122H428.999V126H494.663V122Z" fill="#E2E8F0" mask="url(#path-1-outside-1_490_6414)"/>
</svg>
