<svg width="557" height="555" viewBox="0 0 557 555" fill="none" xmlns="http://www.w3.org/2000/svg">
<path fill-rule="evenodd" clip-rule="evenodd" d="M189.634 103.32C231.631 77.3104 282.931 115.244 329.092 132.819C368.78 147.93 410.612 160.817 433.904 196.323C458.61 233.983 463.794 280.44 454.904 324.599C445.252 372.537 423.745 418.488 383.562 446.365C339.744 476.765 285.158 489.865 233.054 478.511C178.113 466.539 118.375 438.074 100.652 384.716C83.9138 334.326 138.195 291.762 154.205 241.131C169.072 194.117 147.71 129.285 189.634 103.32Z" fill="url(#paint0_linear_267_9984)"/>
<path d="M356.448 110.885C345.8 106.831 334.874 101.688 323.809 96.4801C322.926 96.0647 322.043 95.6489 321.159 95.2332C309.206 89.6135 297.111 84.0162 285.135 79.7827C261.196 71.3205 237.498 68.2226 216.107 81.4701C194.695 94.7315 189.536 117.901 187.776 143.263C187.334 149.616 187.106 156.13 186.895 162.68C186.875 163.301 186.855 163.922 186.835 164.543C186.645 170.483 186.454 176.445 186.119 182.359C185.377 195.427 183.931 208.196 180.252 219.829C176.284 232.378 169.935 244.454 162.87 256.329C159.667 261.712 156.323 267.044 152.991 272.357C152.648 272.903 152.306 273.449 151.964 273.995C148.296 279.846 144.662 285.679 141.283 291.513C127.782 314.818 118.188 338.397 126.703 364.031C135.658 390.991 155.212 411.612 179.359 426.977C203.504 442.34 232.293 452.485 259.841 458.488C312.246 469.908 367.111 456.727 411.132 426.187C451.608 398.106 473.205 351.871 482.884 303.796C491.814 259.442 486.622 212.703 461.74 174.774C449.968 156.83 433.529 144.632 415.108 135.036C400.122 127.23 383.765 121.118 367.514 115.046C363.814 113.663 360.119 112.283 356.448 110.885Z" stroke="#854D0E" stroke-width="2"/>
<defs>
<linearGradient id="paint0_linear_267_9984" x1="167.576" y1="115.734" x2="361.965" y2="459.591" gradientUnits="userSpaceOnUse">
<stop stop-color="#FEF08A"/>
<stop offset="1" stop-color="#FACC15"/>
</linearGradient>
</defs>
</svg>
