<svg width="626" height="156" viewBox="0 0 626 156" fill="none" xmlns="http://www.w3.org/2000/svg">
<mask id="path-1-outside-1_584_5862" maskUnits="userSpaceOnUse" x="8" y="32" width="620" height="94" fill="black">
<rect fill="white" x="8" y="32" width="620" height="94"/>
<path d="M10.624 124V34.4H49.408C57.4293 34.4 64.3413 35.7227 70.144 38.368C75.9467 40.928 80.4267 44.64 83.584 49.504C86.7413 54.368 88.32 60.1707 88.32 66.912C88.32 73.568 86.7413 79.328 83.584 84.192C80.4267 88.9707 75.9467 92.64 70.144 95.2C64.3413 97.76 57.4293 99.04 49.408 99.04H22.144L31.36 89.952V124H10.624ZM67.584 124L45.184 91.488H67.328L89.984 124H67.584ZM31.36 92.256L22.144 82.528H48.256C54.656 82.528 59.4347 81.1627 62.592 78.432C65.7493 75.616 67.328 71.776 67.328 66.912C67.328 61.9627 65.7493 58.1227 62.592 55.392C59.4347 52.6613 54.656 51.296 48.256 51.296H22.144L31.36 41.44V92.256ZM104.749 124V34.4H125.485V124H104.749ZM167.878 124L138.566 34.4H160.07L185.542 113.76H174.79L201.414 34.4H220.614L246.214 113.76H235.846L261.958 34.4H281.798L252.486 124H230.214L207.558 54.368H213.446L190.15 124H167.878ZM278.598 124L318.534 34.4H339.014L379.078 124H357.318L324.55 44.896H332.742L299.846 124H278.598ZM298.566 104.8L304.07 89.056H350.15L355.782 104.8H298.566ZM405.146 124V87.392L409.882 99.936L370.458 34.4H392.474L422.682 84.704H410.01L440.346 34.4H460.698L421.274 99.936L425.882 87.392V124H405.146ZM452.098 124L492.034 34.4H512.514L552.578 124H530.818L498.05 44.896H506.242L473.346 124H452.098ZM472.066 104.8L477.57 89.056H523.65L529.282 104.8H472.066ZM575.934 124V51.296H547.262V34.4H625.342V51.296H596.67V124H575.934Z"/>
</mask>
<path d="M10.624 124H8.624V126H10.624V124ZM10.624 34.4V32.4H8.624V34.4H10.624ZM70.144 38.368L69.3144 40.1878L69.3255 40.1929L69.3367 40.1978L70.144 38.368ZM83.584 49.504L81.9064 50.5929L81.9064 50.5929L83.584 49.504ZM83.584 84.192L85.2527 85.2945L85.2571 85.2877L85.2616 85.2809L83.584 84.192ZM70.144 95.2L70.9513 97.0298L70.9513 97.0298L70.144 95.2ZM22.144 99.04L20.7397 97.6159L17.2674 101.04H22.144V99.04ZM31.36 89.952H33.36V85.1709L29.9557 88.5279L31.36 89.952ZM31.36 124V126H33.36V124H31.36ZM67.584 124L65.9371 125.135L66.5332 126H67.584V124ZM45.184 91.488V89.488H41.3773L43.5371 92.6227L45.184 91.488ZM67.328 91.488L68.9689 90.3445L68.372 89.488H67.328V91.488ZM89.984 124V126H93.8154L91.6249 122.857L89.984 124ZM31.36 92.256L29.9081 93.6315L33.36 97.2752V92.256H31.36ZM22.144 82.528V80.528H17.4943L20.6921 83.9035L22.144 82.528ZM62.592 78.432L63.9003 79.9447L63.9118 79.9347L63.9232 79.9246L62.592 78.432ZM22.144 51.296L20.6832 49.93L17.5357 53.296H22.144V51.296ZM31.36 41.44H33.36V36.3728L29.8992 40.074L31.36 41.44ZM12.624 124V34.4H8.624V124H12.624ZM10.624 36.4H49.408V32.4H10.624V36.4ZM49.408 36.4C57.2146 36.4 63.8302 37.6877 69.3144 40.1878L70.9736 36.5482C64.8525 33.7576 57.6441 32.4 49.408 32.4V36.4ZM69.3367 40.1978C74.8181 42.6161 78.9807 46.0857 81.9064 50.5929L85.2616 48.4151C81.8726 43.1942 77.0752 39.2399 70.9513 36.5382L69.3367 40.1978ZM81.9064 50.5929C84.8209 55.0828 86.32 60.493 86.32 66.912H90.32C90.32 59.8483 88.6618 53.6532 85.2616 48.4151L81.9064 50.5929ZM86.32 66.912C86.32 73.2401 84.8235 78.6091 81.9064 83.1031L85.2616 85.2809C88.6591 80.0469 90.32 73.8959 90.32 66.912H86.32ZM81.9153 83.0895C78.9918 87.5143 74.8275 90.9478 69.3367 93.3702L70.9513 97.0298C77.0659 94.3322 81.8616 90.427 85.2527 85.2945L81.9153 83.0895ZM69.3367 93.3702C63.8462 95.7924 57.2224 97.04 49.408 97.04V101.04C57.6363 101.04 64.8364 99.7276 70.9513 97.0298L69.3367 93.3702ZM49.408 97.04H22.144V101.04H49.408V97.04ZM23.5483 100.464L32.7643 91.3761L29.9557 88.5279L20.7397 97.6159L23.5483 100.464ZM29.36 89.952V124H33.36V89.952H29.36ZM31.36 122H10.624V126H31.36V122ZM69.2309 122.865L46.8309 90.3533L43.5371 92.6227L65.9371 125.135L69.2309 122.865ZM45.184 93.488H67.328V89.488H45.184V93.488ZM65.6871 92.6315L88.3431 125.143L91.6249 122.857L68.9689 90.3445L65.6871 92.6315ZM89.984 122H67.584V126H89.984V122ZM32.8119 90.8805L23.5959 81.1525L20.6921 83.9035L29.9081 93.6315L32.8119 90.8805ZM22.144 84.528H48.256V80.528H22.144V84.528ZM48.256 84.528C54.8907 84.528 60.229 83.1199 63.9003 79.9447L61.2837 76.9193C58.6403 79.2054 54.4213 80.528 48.256 80.528V84.528ZM63.9232 79.9246C67.5717 76.6706 69.328 72.2518 69.328 66.912H65.328C65.328 71.3002 63.927 74.5614 61.2608 76.9394L63.9232 79.9246ZM69.328 66.912C69.328 61.5005 67.5793 57.0611 63.9003 53.8793L61.2837 56.9047C63.9194 59.1842 65.328 62.4248 65.328 66.912H69.328ZM63.9003 53.8793C60.229 50.7041 54.8907 49.296 48.256 49.296V53.296C54.4213 53.296 58.6403 54.6186 61.2837 56.9047L63.9003 53.8793ZM48.256 49.296H22.144V53.296H48.256V49.296ZM23.6048 52.662L32.8208 42.806L29.8992 40.074L20.6832 49.93L23.6048 52.662ZM29.36 41.44V92.256H33.36V41.44H29.36ZM104.749 124H102.749V126H104.749V124ZM104.749 34.4V32.4H102.749V34.4H104.749ZM125.485 34.4H127.485V32.4H125.485V34.4ZM125.485 124V126H127.485V124H125.485ZM106.749 124V34.4H102.749V124H106.749ZM104.749 36.4H125.485V32.4H104.749V36.4ZM123.485 34.4V124H127.485V34.4H123.485ZM125.485 122H104.749V126H125.485V122ZM167.878 124L165.977 124.622L166.428 126H167.878V124ZM138.566 34.4V32.4H135.807L136.665 35.0218L138.566 34.4ZM160.07 34.4L161.974 33.7888L161.529 32.4H160.07V34.4ZM185.542 113.76V115.76H188.284L187.446 113.149L185.542 113.76ZM174.79 113.76L172.894 113.124L172.009 115.76H174.79V113.76ZM201.414 34.4V32.4H199.975L199.518 33.7639L201.414 34.4ZM220.614 34.4L222.517 33.786L222.07 32.4H220.614V34.4ZM246.214 113.76V115.76H248.961L248.117 113.146L246.214 113.76ZM235.846 113.76L233.946 113.135L233.082 115.76H235.846V113.76ZM261.958 34.4V32.4H260.511L260.058 33.7749L261.958 34.4ZM281.798 34.4L283.699 35.0218L284.557 32.4H281.798V34.4ZM252.486 124V126H253.936L254.387 124.622L252.486 124ZM230.214 124L228.312 124.619L228.762 126H230.214V124ZM207.558 54.368V52.368H204.804L205.656 54.9868L207.558 54.368ZM213.446 54.368L215.343 55.0025L216.224 52.368H213.446V54.368ZM190.15 124V126H191.59L192.047 124.635L190.15 124ZM169.779 123.378L140.467 33.7781L136.665 35.0218L165.977 124.622L169.779 123.378ZM138.566 36.4H160.07V32.4H138.566V36.4ZM158.166 35.0112L183.638 114.371L187.446 113.149L161.974 33.7888L158.166 35.0112ZM185.542 111.76H174.79V115.76H185.542V111.76ZM176.686 114.396L203.31 35.0361L199.518 33.7639L172.894 113.124L176.686 114.396ZM201.414 36.4H220.614V32.4H201.414V36.4ZM218.711 35.014L244.311 114.374L248.117 113.146L222.517 33.786L218.711 35.014ZM246.214 111.76H235.846V115.76H246.214V111.76ZM237.746 114.385L263.858 35.0251L260.058 33.7749L233.946 113.135L237.746 114.385ZM261.958 36.4H281.798V32.4H261.958V36.4ZM279.897 33.7781L250.585 123.378L254.387 124.622L283.699 35.0218L279.897 33.7781ZM252.486 122H230.214V126H252.486V122ZM232.116 123.381L209.46 53.7492L205.656 54.9868L228.312 124.619L232.116 123.381ZM207.558 56.368H213.446V52.368H207.558V56.368ZM211.549 53.7334L188.253 123.365L192.047 124.635L215.343 55.0025L211.549 53.7334ZM190.15 122H167.878V126H190.15V122ZM278.598 124L276.771 123.186L275.517 126H278.598V124ZM318.534 34.4V32.4H317.236L316.707 33.5858L318.534 34.4ZM339.014 34.4L340.84 33.5836L340.311 32.4H339.014V34.4ZM379.078 124V126H382.163L380.904 123.184L379.078 124ZM357.318 124L355.47 124.765L355.982 126H357.318V124ZM324.55 44.896V42.896H321.557L322.702 45.6614L324.55 44.896ZM332.742 44.896L334.589 45.664L335.74 42.896H332.742V44.896ZM299.846 124V126H301.18L301.693 124.768L299.846 124ZM298.566 104.8L296.678 104.14L295.748 106.8H298.566V104.8ZM304.07 89.056V87.056H302.65L302.182 88.396L304.07 89.056ZM350.15 89.056L352.033 88.3824L351.559 87.056H350.15V89.056ZM355.782 104.8V106.8H358.622L357.665 104.126L355.782 104.8ZM280.425 124.814L320.361 35.2142L316.707 33.5858L276.771 123.186L280.425 124.814ZM318.534 36.4H339.014V32.4H318.534V36.4ZM337.188 35.2164L377.252 124.816L380.904 123.184L340.84 33.5836L337.188 35.2164ZM379.078 122H357.318V126H379.078V122ZM359.166 123.235L326.398 44.1306L322.702 45.6614L355.47 124.765L359.166 123.235ZM324.55 46.896H332.742V42.896H324.55V46.896ZM330.895 44.128L297.999 123.232L301.693 124.768L334.589 45.664L330.895 44.128ZM299.846 122H278.598V126H299.846V122ZM300.454 105.46L305.958 89.716L302.182 88.396L296.678 104.14L300.454 105.46ZM304.07 91.056H350.15V87.056H304.07V91.056ZM348.267 89.7296L353.899 105.474L357.665 104.126L352.033 88.3824L348.267 89.7296ZM355.782 102.8H298.566V106.8H355.782V102.8ZM405.146 124H403.146V126H405.146V124ZM405.146 87.392L407.017 86.6856L403.146 87.392H405.146ZM409.882 99.936L408.168 100.967L411.753 99.2296L409.882 99.936ZM370.458 34.4V32.4H366.921L368.744 35.431L370.458 34.4ZM392.474 34.4L394.189 33.3704L393.606 32.4H392.474V34.4ZM422.682 84.704V86.704H426.216L424.397 83.6744L422.682 84.704ZM410.01 84.704L408.297 83.6712L406.468 86.704H410.01V84.704ZM440.346 34.4V32.4H439.217L438.633 33.3672L440.346 34.4ZM460.698 34.4L462.412 35.431L464.235 32.4H460.698V34.4ZM421.274 99.936L419.397 99.2464L422.988 100.967L421.274 99.936ZM425.882 87.392H427.882L424.005 86.7024L425.882 87.392ZM425.882 124V126H427.882V124H425.882ZM407.146 124V87.392H403.146V124H407.146ZM403.275 88.0984L408.011 100.642L411.753 99.2296L407.017 86.6856L403.275 88.0984ZM411.596 98.905L372.172 33.369L368.744 35.431L408.168 100.967L411.596 98.905ZM370.458 36.4H392.474V32.4H370.458V36.4ZM390.759 35.4296L420.967 85.7336L424.397 83.6744L394.189 33.3704L390.759 35.4296ZM422.682 82.704H410.01V86.704H422.682V82.704ZM411.723 85.7368L442.059 35.4328L438.633 33.3672L408.297 83.6712L411.723 85.7368ZM440.346 36.4H460.698V32.4H440.346V36.4ZM458.984 33.369L419.56 98.905L422.988 100.967L462.412 35.431L458.984 33.369ZM423.151 100.626L427.759 88.0816L424.005 86.7024L419.397 99.2464L423.151 100.626ZM423.882 87.392V124H427.882V87.392H423.882ZM425.882 122H405.146V126H425.882V122ZM452.098 124L450.271 123.186L449.017 126H452.098V124ZM492.034 34.4V32.4H490.736L490.207 33.5858L492.034 34.4ZM512.514 34.4L514.34 33.5836L513.811 32.4H512.514V34.4ZM552.578 124V126H555.663L554.404 123.184L552.578 124ZM530.818 124L528.97 124.765L529.482 126H530.818V124ZM498.05 44.896V42.896H495.057L496.202 45.6614L498.05 44.896ZM506.242 44.896L508.089 45.664L509.24 42.896H506.242V44.896ZM473.346 124V126H474.68L475.193 124.768L473.346 124ZM472.066 104.8L470.178 104.14L469.248 106.8H472.066V104.8ZM477.57 89.056V87.056H476.15L475.682 88.396L477.57 89.056ZM523.65 89.056L525.533 88.3824L525.059 87.056H523.65V89.056ZM529.282 104.8V106.8H532.122L531.165 104.126L529.282 104.8ZM453.925 124.814L493.861 35.2142L490.207 33.5858L450.271 123.186L453.925 124.814ZM492.034 36.4H512.514V32.4H492.034V36.4ZM510.688 35.2164L550.752 124.816L554.404 123.184L514.34 33.5836L510.688 35.2164ZM552.578 122H530.818V126H552.578V122ZM532.666 123.235L499.898 44.1306L496.202 45.6614L528.97 124.765L532.666 123.235ZM498.05 46.896H506.242V42.896H498.05V46.896ZM504.395 44.128L471.499 123.232L475.193 124.768L508.089 45.664L504.395 44.128ZM473.346 122H452.098V126H473.346V122ZM473.954 105.46L479.458 89.716L475.682 88.396L470.178 104.14L473.954 105.46ZM477.57 91.056H523.65V87.056H477.57V91.056ZM521.767 89.7296L527.399 105.474L531.165 104.126L525.533 88.3824L521.767 89.7296ZM529.282 102.8H472.066V106.8H529.282V102.8ZM575.934 124H573.934V126H575.934V124ZM575.934 51.296H577.934V49.296H575.934V51.296ZM547.262 51.296H545.262V53.296H547.262V51.296ZM547.262 34.4V32.4H545.262V34.4H547.262ZM625.342 34.4H627.342V32.4H625.342V34.4ZM625.342 51.296V53.296H627.342V51.296H625.342ZM596.67 51.296V49.296H594.67V51.296H596.67ZM596.67 124V126H598.67V124H596.67ZM577.934 124V51.296H573.934V124H577.934ZM575.934 49.296H547.262V53.296H575.934V49.296ZM549.262 51.296V34.4H545.262V51.296H549.262ZM547.262 36.4H625.342V32.4H547.262V36.4ZM623.342 34.4V51.296H627.342V34.4H623.342ZM625.342 49.296H596.67V53.296H625.342V49.296ZM594.67 51.296V124H598.67V51.296H594.67ZM596.67 122H575.934V126H596.67V122Z" fill="#E2E8F0" mask="url(#path-1-outside-1_584_5862)"/>
</svg>
