<svg width="653" height="156" viewBox="0 0 653 156" fill="none" xmlns="http://www.w3.org/2000/svg">
<mask id="path-1-outside-1_197_1452" maskUnits="userSpaceOnUse" x="-6" y="30" width="655" height="98" fill="black">
<rect fill="white" x="-6" y="30" width="655" height="98"/>
<path d="M32.896 124V87.392L37.632 99.936L-1.792 34.4H20.224L50.432 84.704H37.76L68.096 34.4H88.448L49.024 99.936L53.632 87.392V124H32.896ZM136.769 125.536C129.686 125.536 123.116 124.384 117.057 122.08C111.084 119.776 105.878 116.533 101.441 112.352C97.089 108.171 93.6757 103.264 91.201 97.632C88.8117 92 87.617 85.856 87.617 79.2C87.617 72.544 88.8117 66.4 91.201 60.768C93.6757 55.136 97.1317 50.2293 101.569 46.048C106.006 41.8667 111.212 38.624 117.185 36.32C123.158 34.016 129.644 32.864 136.641 32.864C143.724 32.864 150.209 34.016 156.097 36.32C162.07 38.624 167.233 41.8667 171.585 46.048C176.022 50.2293 179.478 55.136 181.953 60.768C184.428 66.3147 185.665 72.4587 185.665 79.2C185.665 85.856 184.428 92.0427 181.953 97.76C179.478 103.392 176.022 108.299 171.585 112.48C167.233 116.576 162.07 119.776 156.097 122.08C150.209 124.384 143.766 125.536 136.769 125.536ZM136.641 107.872C140.652 107.872 144.321 107.189 147.649 105.824C151.062 104.459 154.049 102.496 156.609 99.936C159.169 97.376 161.132 94.3467 162.497 90.848C163.948 87.3493 164.673 83.4667 164.673 79.2C164.673 74.9333 163.948 71.0507 162.497 67.552C161.132 64.0533 159.169 61.024 156.609 58.464C154.134 55.904 151.19 53.9413 147.777 52.576C144.364 51.2107 140.652 50.528 136.641 50.528C132.63 50.528 128.918 51.2107 125.505 52.576C122.177 53.9413 119.233 55.904 116.673 58.464C114.113 61.024 112.108 64.0533 110.657 67.552C109.292 71.0507 108.609 74.9333 108.609 79.2C108.609 83.3813 109.292 87.264 110.657 90.848C112.108 94.3467 114.07 97.376 116.545 99.936C119.105 102.496 122.092 104.459 125.505 105.824C128.918 107.189 132.63 107.872 136.641 107.872ZM241.057 125.536C228.342 125.536 218.401 121.995 211.233 114.912C204.065 107.829 200.481 97.7173 200.481 84.576V34.4H221.217V83.808C221.217 92.3413 222.966 98.4853 226.465 102.24C229.964 105.995 234.87 107.872 241.185 107.872C247.5 107.872 252.406 105.995 255.905 102.24C259.404 98.4853 261.153 92.3413 261.153 83.808V34.4H281.633V84.576C281.633 97.7173 278.049 107.829 270.881 114.912C263.713 121.995 253.772 125.536 241.057 125.536ZM319.184 124V51.296H290.512V34.4H368.592V51.296H339.92V124H319.184ZM418.057 125.536C405.342 125.536 395.401 121.995 388.233 114.912C381.065 107.829 377.481 97.7173 377.481 84.576V34.4H398.217V83.808C398.217 92.3413 399.966 98.4853 403.465 102.24C406.964 105.995 411.87 107.872 418.185 107.872C424.5 107.872 429.406 105.995 432.905 102.24C436.404 98.4853 438.153 92.3413 438.153 83.808V34.4H458.633V84.576C458.633 97.7173 455.049 107.829 447.881 114.912C440.713 121.995 430.772 125.536 418.057 125.536ZM479.124 124V34.4H522.9C534.164 34.4 542.612 36.5333 548.244 40.8C553.961 45.0667 556.82 50.6987 556.82 57.696C556.82 62.3893 555.668 66.4853 553.364 69.984C551.06 73.3973 547.903 76.0427 543.892 77.92C539.881 79.7973 535.273 80.736 530.068 80.736L532.5 75.488C538.132 75.488 543.124 76.4267 547.476 78.304C551.828 80.096 555.199 82.784 557.588 86.368C560.063 89.952 561.3 94.3467 561.3 99.552C561.3 107.232 558.271 113.248 552.212 117.6C546.153 121.867 537.236 124 525.46 124H479.124ZM499.732 108.384H523.924C529.3 108.384 533.353 107.531 536.084 105.824C538.9 104.032 540.308 101.216 540.308 97.376C540.308 93.6213 538.9 90.848 536.084 89.056C533.353 87.1787 529.3 86.24 523.924 86.24H498.196V71.136H520.34C525.375 71.136 529.215 70.2827 531.86 68.576C534.591 66.784 535.956 64.096 535.956 60.512C535.956 57.0133 534.591 54.4107 531.86 52.704C529.215 50.912 525.375 50.016 520.34 50.016H499.732V108.384ZM596.071 70.496H639.207V86.624H596.071V70.496ZM597.607 107.36H646.375V124H576.999V34.4H644.711V51.04H597.607V107.36Z"/>
</mask>
<path d="M32.896 124H30.896V126H32.896V124ZM32.896 87.392L34.7671 86.6856L30.896 87.392H32.896ZM37.632 99.936L35.9182 100.967L39.5031 99.2296L37.632 99.936ZM-1.792 34.4V32.4H-5.32911L-3.5058 35.431L-1.792 34.4ZM20.224 34.4L21.9386 33.3704L21.3559 32.4H20.224V34.4ZM50.432 84.704V86.704H53.9659L52.1466 83.6744L50.432 84.704ZM37.76 84.704L36.0473 83.6712L34.2184 86.704H37.76V84.704ZM68.096 34.4V32.4H66.9666L66.3833 33.3672L68.096 34.4ZM88.448 34.4L90.1618 35.431L91.9851 32.4H88.448V34.4ZM49.024 99.936L47.1467 99.2464L50.7378 100.967L49.024 99.936ZM53.632 87.392H55.632L51.7547 86.7024L53.632 87.392ZM53.632 124V126H55.632V124H53.632ZM34.896 124V87.392H30.896V124H34.896ZM31.0249 88.0984L35.7609 100.642L39.5031 99.2296L34.7671 86.6856L31.0249 88.0984ZM39.3458 98.905L-0.0781967 33.369L-3.5058 35.431L35.9182 100.967L39.3458 98.905ZM-1.792 36.4H20.224V32.4H-1.792V36.4ZM18.5094 35.4296L48.7174 85.7336L52.1466 83.6744L21.9386 33.3704L18.5094 35.4296ZM50.432 82.704H37.76V86.704H50.432V82.704ZM39.4727 85.7368L69.8087 35.4328L66.3833 33.3672L36.0473 83.6712L39.4727 85.7368ZM68.096 36.4H88.448V32.4H68.096V36.4ZM86.7342 33.369L47.3102 98.905L50.7378 100.967L90.1618 35.431L86.7342 33.369ZM50.9013 100.626L55.5093 88.0816L51.7547 86.7024L47.1467 99.2464L50.9013 100.626ZM51.632 87.392V124H55.632V87.392H51.632ZM53.632 122H32.896V126H53.632V122ZM117.057 122.08L116.337 123.946L116.346 123.949L117.057 122.08ZM101.441 112.352L100.055 113.794L100.062 113.801L100.069 113.808L101.441 112.352ZM91.201 97.632L89.3598 98.4131L89.3648 98.4249L89.37 98.4365L91.201 97.632ZM91.201 60.768L89.37 59.9635L89.3648 59.9751L89.3598 59.9869L91.201 60.768ZM117.185 36.32L116.465 34.454L117.185 36.32ZM156.097 36.32L155.368 38.1825L155.377 38.186L156.097 36.32ZM171.585 46.048L170.199 47.4902L170.206 47.4969L170.213 47.5036L171.585 46.048ZM181.953 60.768L180.122 61.5726L180.127 61.5829L181.953 60.768ZM181.953 97.76L183.784 98.5646L183.788 98.5544L181.953 97.76ZM171.585 112.48L172.956 113.936L172.957 113.936L171.585 112.48ZM156.097 122.08L155.377 120.214L155.368 120.218L156.097 122.08ZM147.649 105.824L146.906 103.967L146.898 103.97L146.89 103.974L147.649 105.824ZM156.609 99.936L155.195 98.5218V98.5218L156.609 99.936ZM162.497 90.848L160.65 90.082L160.641 90.1014L160.634 90.1209L162.497 90.848ZM162.497 67.552L160.634 68.2791L160.641 68.2986L160.65 68.318L162.497 67.552ZM156.609 58.464L155.171 59.854L155.183 59.8662L155.195 59.8782L156.609 58.464ZM147.777 52.576L147.034 54.4329L147.777 52.576ZM125.505 52.576L124.762 50.719L124.754 50.7223L124.746 50.7257L125.505 52.576ZM116.673 58.464L118.087 59.8782V59.8782L116.673 58.464ZM110.657 67.552L108.81 66.786L108.801 66.8054L108.794 66.8249L110.657 67.552ZM110.657 90.848L108.788 91.56L108.798 91.5872L108.81 91.614L110.657 90.848ZM116.545 99.936L115.107 101.326L115.119 101.338L115.131 101.35L116.545 99.936ZM125.505 105.824L124.762 107.681L125.505 105.824ZM136.769 123.536C129.907 123.536 123.579 122.421 117.768 120.211L116.346 123.949C122.652 126.347 129.466 127.536 136.769 127.536V123.536ZM117.777 120.214C112.033 117.999 107.052 114.891 102.813 110.896L100.069 113.808C104.705 118.175 110.134 121.553 116.337 123.946L117.777 120.214ZM102.827 110.91C98.6671 106.913 95.4035 102.225 93.032 96.8275L89.37 98.4365C91.9478 104.303 95.5109 109.428 100.055 113.794L102.827 110.91ZM93.0422 96.8509C90.7666 91.487 89.617 85.6114 89.617 79.2H85.617C85.617 86.1006 86.8568 92.513 89.3598 98.4131L93.0422 96.8509ZM89.617 79.2C89.617 72.7886 90.7666 66.913 93.0422 61.5491L89.3598 59.9869C86.8568 65.887 85.617 72.2994 85.617 79.2H89.617ZM93.032 61.5725C95.3998 56.1839 98.7003 51.4992 102.941 47.5036L100.197 44.5924C95.563 48.9594 91.9516 54.0881 89.37 59.9635L93.032 61.5725ZM102.941 47.5036C107.18 43.5088 112.161 40.4015 117.905 38.186L116.465 34.454C110.262 36.8465 104.833 40.2245 100.197 44.5924L102.941 47.5036ZM117.905 38.186C123.628 35.9785 129.867 34.864 136.641 34.864V30.864C129.42 30.864 122.689 32.0535 116.465 34.454L117.905 38.186ZM136.641 34.864C143.504 34.864 149.739 35.9796 155.368 38.1825L156.826 34.4575C150.679 32.0524 143.943 30.864 136.641 30.864V34.864ZM155.377 38.186C161.118 40.4003 166.05 43.504 170.199 47.4902L172.971 44.6058C168.416 40.2293 163.023 36.8477 156.817 34.454L155.377 38.186ZM170.213 47.5036C174.454 51.4992 177.754 56.1839 180.122 61.5725L183.784 59.9635C181.202 54.0881 177.591 48.9594 172.957 44.5924L170.213 47.5036ZM180.127 61.5829C182.475 66.8462 183.665 72.7084 183.665 79.2H187.665C187.665 72.2089 186.381 65.7831 183.779 59.9531L180.127 61.5829ZM183.665 79.2C183.665 85.6017 182.476 91.5158 180.118 96.9656L183.788 98.5544C186.379 92.5695 187.665 86.1103 187.665 79.2H183.665ZM180.122 96.9555C177.754 102.344 174.454 107.029 170.213 111.024L172.957 113.936C177.591 109.569 181.202 104.44 183.784 98.5645L180.122 96.9555ZM170.214 111.024C166.064 114.93 161.127 117.996 155.377 120.214L156.817 123.946C163.014 121.556 168.402 118.222 172.956 113.936L170.214 111.024ZM155.368 120.218C149.736 122.421 143.544 123.536 136.769 123.536V127.536C143.989 127.536 150.682 126.347 156.826 123.942L155.368 120.218ZM136.641 109.872C140.882 109.872 144.813 109.149 148.408 107.674L146.89 103.974C143.829 105.229 140.421 105.872 136.641 105.872V109.872ZM148.392 107.681C152.053 106.217 155.269 104.105 158.023 101.35L155.195 98.5218C152.829 100.887 150.072 102.701 146.906 103.967L148.392 107.681ZM158.023 101.35C160.786 98.5873 162.898 95.3215 164.36 91.5751L160.634 90.1209C159.365 93.3718 157.552 96.1647 155.195 98.5218L158.023 101.35ZM164.344 91.614C165.908 87.8437 166.673 83.6964 166.673 79.2H162.673C162.673 83.2369 161.988 86.855 160.65 90.082L164.344 91.614ZM166.673 79.2C166.673 74.7036 165.908 70.5563 164.344 66.786L160.65 68.318C161.988 71.545 162.673 75.1631 162.673 79.2H166.673ZM164.36 66.8249C162.898 63.0785 160.786 59.8127 158.023 57.0498L155.195 59.8782C157.552 62.2353 159.365 65.0282 160.634 68.2791L164.36 66.8249ZM158.047 57.074C155.37 54.3043 152.186 52.1857 148.52 50.719L147.034 54.4329C150.194 55.6969 152.899 57.5036 155.171 59.854L158.047 57.074ZM148.52 50.719C144.85 49.2509 140.883 48.528 136.641 48.528V52.528C140.42 52.528 143.878 53.1704 147.034 54.4329L148.52 50.719ZM136.641 48.528C132.399 48.528 128.432 49.2509 124.762 50.719L126.248 54.4329C129.404 53.1704 132.862 52.528 136.641 52.528V48.528ZM124.746 50.7257C121.171 52.1922 118.005 54.3037 115.259 57.0498L118.087 59.8782C120.461 57.5043 123.183 55.6904 126.264 54.4263L124.746 50.7257ZM115.259 57.0498C112.505 59.8039 110.356 63.0563 108.81 66.786L112.504 68.318C113.859 65.0504 115.721 62.2441 118.087 59.8782L115.259 57.0498ZM108.794 66.8249C107.327 70.5847 106.609 74.7181 106.609 79.2H110.609C110.609 75.1485 111.257 71.5167 112.52 68.2791L108.794 66.8249ZM106.609 79.2C106.609 83.6026 107.329 87.7289 108.788 91.56L112.526 90.136C111.255 86.7991 110.609 83.16 110.609 79.2H106.609ZM108.81 91.614C110.35 95.3296 112.447 98.5743 115.107 101.326L117.983 98.546C115.694 96.1777 113.865 93.3637 112.504 90.082L108.81 91.614ZM115.131 101.35C117.885 104.105 121.101 106.217 124.762 107.681L126.248 103.967C123.082 102.701 120.325 100.887 117.959 98.5218L115.131 101.35ZM124.762 107.681C128.432 109.149 132.399 109.872 136.641 109.872V105.872C132.862 105.872 129.404 105.23 126.248 103.967L124.762 107.681ZM211.233 114.912L212.639 113.489L211.233 114.912ZM200.481 34.4V32.4H198.481V34.4H200.481ZM221.217 34.4H223.217V32.4H221.217V34.4ZM226.465 102.24L225.002 103.603V103.603L226.465 102.24ZM255.905 102.24L257.368 103.603V103.603L255.905 102.24ZM261.153 34.4V32.4H259.153V34.4H261.153ZM281.633 34.4H283.633V32.4H281.633V34.4ZM270.881 114.912L272.287 116.335L270.881 114.912ZM241.057 123.536C228.724 123.536 219.341 120.111 212.639 113.489L209.827 116.335C217.461 123.878 227.961 127.536 241.057 127.536V123.536ZM212.639 113.489C205.957 106.887 202.481 97.3523 202.481 84.576H198.481C198.481 98.0823 202.173 108.772 209.827 116.335L212.639 113.489ZM202.481 84.576V34.4H198.481V84.576H202.481ZM200.481 36.4H221.217V32.4H200.481V36.4ZM219.217 34.4V83.808H223.217V34.4H219.217ZM219.217 83.808C219.217 92.5332 220.991 99.2995 225.002 103.603L227.928 100.877C224.941 97.6712 223.217 92.1495 223.217 83.808H219.217ZM225.002 103.603C228.963 107.855 234.453 109.872 241.185 109.872V105.872C235.288 105.872 230.964 104.135 227.928 100.877L225.002 103.603ZM241.185 109.872C247.917 109.872 253.407 107.855 257.368 103.603L254.442 100.877C251.406 104.135 247.082 105.872 241.185 105.872V109.872ZM257.368 103.603C261.379 99.2995 263.153 92.5332 263.153 83.808H259.153C259.153 92.1495 257.429 97.6712 254.442 100.877L257.368 103.603ZM263.153 83.808V34.4H259.153V83.808H263.153ZM261.153 36.4H281.633V32.4H261.153V36.4ZM279.633 34.4V84.576H283.633V34.4H279.633ZM279.633 84.576C279.633 97.3523 276.157 106.887 269.475 113.489L272.287 116.335C279.941 108.772 283.633 98.0823 283.633 84.576H279.633ZM269.475 113.489C262.773 120.111 253.39 123.536 241.057 123.536V127.536C254.153 127.536 264.653 123.878 272.287 116.335L269.475 113.489ZM319.184 124H317.184V126H319.184V124ZM319.184 51.296H321.184V49.296H319.184V51.296ZM290.512 51.296H288.512V53.296H290.512V51.296ZM290.512 34.4V32.4H288.512V34.4H290.512ZM368.592 34.4H370.592V32.4H368.592V34.4ZM368.592 51.296V53.296H370.592V51.296H368.592ZM339.92 51.296V49.296H337.92V51.296H339.92ZM339.92 124V126H341.92V124H339.92ZM321.184 124V51.296H317.184V124H321.184ZM319.184 49.296H290.512V53.296H319.184V49.296ZM292.512 51.296V34.4H288.512V51.296H292.512ZM290.512 36.4H368.592V32.4H290.512V36.4ZM366.592 34.4V51.296H370.592V34.4H366.592ZM368.592 49.296H339.92V53.296H368.592V49.296ZM337.92 51.296V124H341.92V51.296H337.92ZM339.92 122H319.184V126H339.92V122ZM388.233 114.912L389.639 113.489L388.233 114.912ZM377.481 34.4V32.4H375.481V34.4H377.481ZM398.217 34.4H400.217V32.4H398.217V34.4ZM403.465 102.24L402.002 103.603V103.603L403.465 102.24ZM432.905 102.24L434.368 103.603V103.603L432.905 102.24ZM438.153 34.4V32.4H436.153V34.4H438.153ZM458.633 34.4H460.633V32.4H458.633V34.4ZM447.881 114.912L449.287 116.335L447.881 114.912ZM418.057 123.536C405.724 123.536 396.341 120.111 389.639 113.489L386.827 116.335C394.461 123.878 404.961 127.536 418.057 127.536V123.536ZM389.639 113.489C382.957 106.887 379.481 97.3523 379.481 84.576H375.481C375.481 98.0823 379.173 108.772 386.827 116.335L389.639 113.489ZM379.481 84.576V34.4H375.481V84.576H379.481ZM377.481 36.4H398.217V32.4H377.481V36.4ZM396.217 34.4V83.808H400.217V34.4H396.217ZM396.217 83.808C396.217 92.5332 397.991 99.2995 402.002 103.603L404.928 100.877C401.941 97.6712 400.217 92.1495 400.217 83.808H396.217ZM402.002 103.603C405.963 107.855 411.453 109.872 418.185 109.872V105.872C412.288 105.872 407.964 104.135 404.928 100.877L402.002 103.603ZM418.185 109.872C424.917 109.872 430.407 107.855 434.368 103.603L431.442 100.877C428.406 104.135 424.082 105.872 418.185 105.872V109.872ZM434.368 103.603C438.379 99.2995 440.153 92.5332 440.153 83.808H436.153C436.153 92.1495 434.429 97.6712 431.442 100.877L434.368 103.603ZM440.153 83.808V34.4H436.153V83.808H440.153ZM438.153 36.4H458.633V32.4H438.153V36.4ZM456.633 34.4V84.576H460.633V34.4H456.633ZM456.633 84.576C456.633 97.3523 453.157 106.887 446.475 113.489L449.287 116.335C456.941 108.772 460.633 98.0823 460.633 84.576H456.633ZM446.475 113.489C439.773 120.111 430.39 123.536 418.057 123.536V127.536C431.153 127.536 441.653 123.878 449.287 116.335L446.475 113.489ZM479.124 124H477.124V126H479.124V124ZM479.124 34.4V32.4H477.124V34.4H479.124ZM548.244 40.8L547.036 42.3942L547.042 42.3985L547.048 42.4029L548.244 40.8ZM553.364 69.984L555.022 71.1029L555.028 71.0935L555.034 71.084L553.364 69.984ZM543.892 77.92L544.74 79.7314L543.892 77.92ZM530.068 80.736L528.253 79.8951L526.937 82.736H530.068V80.736ZM532.5 75.488V73.488H531.223L530.685 74.6471L532.5 75.488ZM547.476 78.304L546.684 80.1404L546.699 80.147L546.714 80.1534L547.476 78.304ZM557.588 86.368L555.924 87.4774L555.933 87.491L555.942 87.5044L557.588 86.368ZM552.212 117.6L553.364 119.235L553.371 119.23L553.379 119.224L552.212 117.6ZM499.732 108.384H497.732V110.384H499.732V108.384ZM536.084 105.824L537.144 107.52L537.151 107.516L537.158 107.511L536.084 105.824ZM536.084 89.056L534.951 90.7041L534.98 90.7242L535.01 90.7433L536.084 89.056ZM498.196 86.24H496.196V88.24H498.196V86.24ZM498.196 71.136V69.136H496.196V71.136H498.196ZM531.86 68.576L532.944 70.2566L532.951 70.2524L532.957 70.2481L531.86 68.576ZM531.86 52.704L530.738 54.3598L530.769 54.3805L530.8 54.4L531.86 52.704ZM499.732 50.016V48.016H497.732V50.016H499.732ZM481.124 124V34.4H477.124V124H481.124ZM479.124 36.4H522.9V32.4H479.124V36.4ZM522.9 36.4C533.969 36.4 541.904 38.5063 547.036 42.3942L549.452 39.2058C543.32 34.5604 534.359 32.4 522.9 32.4V36.4ZM547.048 42.4029C552.271 46.3007 554.82 51.3442 554.82 57.696H558.82C558.82 50.0531 555.652 43.8326 549.44 39.1971L547.048 42.4029ZM554.82 57.696C554.82 62.047 553.757 65.7503 551.694 68.884L555.034 71.084C557.579 67.2203 558.82 62.7316 558.82 57.696H554.82ZM551.706 68.8651C549.62 71.956 546.753 74.3726 543.044 76.1086L544.74 79.7314C549.053 77.7127 552.5 74.8386 555.022 71.1029L551.706 68.8651ZM543.044 76.1086C539.341 77.8418 535.031 78.736 530.068 78.736V82.736C535.515 82.736 540.421 81.7529 544.74 79.7314L543.044 76.1086ZM531.883 81.5769L534.315 76.3289L530.685 74.6471L528.253 79.8951L531.883 81.5769ZM532.5 77.488C537.91 77.488 542.625 78.3893 546.684 80.1404L548.268 76.4676C543.624 74.464 538.354 73.488 532.5 73.488V77.488ZM546.714 80.1534C550.734 81.8086 553.776 84.2549 555.924 87.4774L559.252 85.2586C556.622 81.3131 552.922 78.3834 548.237 76.4546L546.714 80.1534ZM555.942 87.5044C558.144 90.6935 559.3 94.6718 559.3 99.552H563.3C563.3 94.0215 561.981 89.2105 559.234 85.2316L555.942 87.5044ZM559.3 99.552C559.3 106.611 556.563 112.012 551.045 115.976L553.379 119.224C559.979 114.484 563.3 107.853 563.3 99.552H559.3ZM551.06 115.965C545.485 119.891 537.048 122 525.46 122V126C537.424 126 546.822 123.842 553.364 119.235L551.06 115.965ZM525.46 122H479.124V126H525.46V122ZM499.732 110.384H523.924V106.384H499.732V110.384ZM523.924 110.384C529.451 110.384 533.948 109.518 537.144 107.52L535.024 104.128C532.759 105.544 529.149 106.384 523.924 106.384V110.384ZM537.158 107.511C540.646 105.292 542.308 101.779 542.308 97.376H538.308C538.308 100.653 537.154 102.772 535.01 104.137L537.158 107.511ZM542.308 97.376C542.308 93.0385 540.631 89.5789 537.158 87.3687L535.01 90.7433C537.169 92.1171 538.308 94.2042 538.308 97.376H542.308ZM537.217 87.4079C534.004 85.1989 529.475 84.24 523.924 84.24V88.24C529.125 88.24 532.703 89.1585 534.951 90.7041L537.217 87.4079ZM523.924 84.24H498.196V88.24H523.924V84.24ZM500.196 86.24V71.136H496.196V86.24H500.196ZM498.196 73.136H520.34V69.136H498.196V73.136ZM520.34 73.136C525.549 73.136 529.836 72.2621 532.944 70.2566L530.776 66.8954C528.594 68.3032 525.2 69.136 520.34 69.136V73.136ZM532.957 70.2481C536.313 68.0457 537.956 64.6922 537.956 60.512H533.956C533.956 63.4998 532.868 65.5223 530.763 66.9039L532.957 70.2481ZM537.956 60.512C537.956 56.3952 536.294 53.1165 532.92 51.008L530.8 54.4C532.888 55.7048 533.956 57.6314 533.956 60.512H537.956ZM532.982 51.0482C529.865 48.9368 525.562 48.016 520.34 48.016V52.016C525.187 52.016 528.564 52.8872 530.738 54.3598L532.982 51.0482ZM520.34 48.016H499.732V52.016H520.34V48.016ZM497.732 50.016V108.384H501.732V50.016H497.732ZM596.071 70.496V68.496H594.071V70.496H596.071ZM639.207 70.496H641.207V68.496H639.207V70.496ZM639.207 86.624V88.624H641.207V86.624H639.207ZM596.071 86.624H594.071V88.624H596.071V86.624ZM597.607 107.36H595.607V109.36H597.607V107.36ZM646.375 107.36H648.375V105.36H646.375V107.36ZM646.375 124V126H648.375V124H646.375ZM576.999 124H574.999V126H576.999V124ZM576.999 34.4V32.4H574.999V34.4H576.999ZM644.711 34.4H646.711V32.4H644.711V34.4ZM644.711 51.04V53.04H646.711V51.04H644.711ZM597.607 51.04V49.04H595.607V51.04H597.607ZM596.071 72.496H639.207V68.496H596.071V72.496ZM637.207 70.496V86.624H641.207V70.496H637.207ZM639.207 84.624H596.071V88.624H639.207V84.624ZM598.071 86.624V70.496H594.071V86.624H598.071ZM597.607 109.36H646.375V105.36H597.607V109.36ZM644.375 107.36V124H648.375V107.36H644.375ZM646.375 122H576.999V126H646.375V122ZM578.999 124V34.4H574.999V124H578.999ZM576.999 36.4H644.711V32.4H576.999V36.4ZM642.711 34.4V51.04H646.711V34.4H642.711ZM644.711 49.04H597.607V53.04H644.711V49.04ZM595.607 51.04V107.36H599.607V51.04H595.607Z" fill="#E2E8F0" mask="url(#path-1-outside-1_197_1452)"/>
</svg>
