<svg width="653" height="156" viewBox="0 0 653 156" fill="none" xmlns="http://www.w3.org/2000/svg">
<path d="M32.896 124V87.392L37.632 99.936L-1.792 34.4H20.224L50.432 84.704H37.76L68.096 34.4H88.448L49.024 99.936L53.632 87.392V124H32.896ZM136.769 125.536C129.686 125.536 123.116 124.384 117.057 122.08C111.084 119.776 105.878 116.533 101.441 112.352C97.089 108.171 93.6757 103.264 91.201 97.632C88.8117 92 87.617 85.856 87.617 79.2C87.617 72.544 88.8117 66.4 91.201 60.768C93.6757 55.136 97.1317 50.2293 101.569 46.048C106.006 41.8667 111.212 38.624 117.185 36.32C123.158 34.016 129.644 32.864 136.641 32.864C143.724 32.864 150.209 34.016 156.097 36.32C162.07 38.624 167.233 41.8667 171.585 46.048C176.022 50.2293 179.478 55.136 181.953 60.768C184.428 66.3147 185.665 72.4587 185.665 79.2C185.665 85.856 184.428 92.0427 181.953 97.76C179.478 103.392 176.022 108.299 171.585 112.48C167.233 116.576 162.07 119.776 156.097 122.08C150.209 124.384 143.766 125.536 136.769 125.536ZM136.641 107.872C140.652 107.872 144.321 107.189 147.649 105.824C151.062 104.459 154.049 102.496 156.609 99.936C159.169 97.376 161.132 94.3467 162.497 90.848C163.948 87.3493 164.673 83.4667 164.673 79.2C164.673 74.9333 163.948 71.0507 162.497 67.552C161.132 64.0533 159.169 61.024 156.609 58.464C154.134 55.904 151.19 53.9413 147.777 52.576C144.364 51.2107 140.652 50.528 136.641 50.528C132.63 50.528 128.918 51.2107 125.505 52.576C122.177 53.9413 119.233 55.904 116.673 58.464C114.113 61.024 112.108 64.0533 110.657 67.552C109.292 71.0507 108.609 74.9333 108.609 79.2C108.609 83.3813 109.292 87.264 110.657 90.848C112.108 94.3467 114.07 97.376 116.545 99.936C119.105 102.496 122.092 104.459 125.505 105.824C128.918 107.189 132.63 107.872 136.641 107.872ZM241.057 125.536C228.342 125.536 218.401 121.995 211.233 114.912C204.065 107.829 200.481 97.7173 200.481 84.576V34.4H221.217V83.808C221.217 92.3413 222.966 98.4853 226.465 102.24C229.964 105.995 234.87 107.872 241.185 107.872C247.5 107.872 252.406 105.995 255.905 102.24C259.404 98.4853 261.153 92.3413 261.153 83.808V34.4H281.633V84.576C281.633 97.7173 278.049 107.829 270.881 114.912C263.713 121.995 253.772 125.536 241.057 125.536ZM319.184 124V51.296H290.512V34.4H368.592V51.296H339.92V124H319.184ZM418.057 125.536C405.342 125.536 395.401 121.995 388.233 114.912C381.065 107.829 377.481 97.7173 377.481 84.576V34.4H398.217V83.808C398.217 92.3413 399.966 98.4853 403.465 102.24C406.964 105.995 411.87 107.872 418.185 107.872C424.5 107.872 429.406 105.995 432.905 102.24C436.404 98.4853 438.153 92.3413 438.153 83.808V34.4H458.633V84.576C458.633 97.7173 455.049 107.829 447.881 114.912C440.713 121.995 430.772 125.536 418.057 125.536ZM479.124 124V34.4H522.9C534.164 34.4 542.612 36.5333 548.244 40.8C553.961 45.0667 556.82 50.6987 556.82 57.696C556.82 62.3893 555.668 66.4853 553.364 69.984C551.06 73.3973 547.903 76.0427 543.892 77.92C539.881 79.7973 535.273 80.736 530.068 80.736L532.5 75.488C538.132 75.488 543.124 76.4267 547.476 78.304C551.828 80.096 555.199 82.784 557.588 86.368C560.063 89.952 561.3 94.3467 561.3 99.552C561.3 107.232 558.271 113.248 552.212 117.6C546.153 121.867 537.236 124 525.46 124H479.124ZM499.732 108.384H523.924C529.3 108.384 533.353 107.531 536.084 105.824C538.9 104.032 540.308 101.216 540.308 97.376C540.308 93.6213 538.9 90.848 536.084 89.056C533.353 87.1787 529.3 86.24 523.924 86.24H498.196V71.136H520.34C525.375 71.136 529.215 70.2827 531.86 68.576C534.591 66.784 535.956 64.096 535.956 60.512C535.956 57.0133 534.591 54.4107 531.86 52.704C529.215 50.912 525.375 50.016 520.34 50.016H499.732V108.384ZM596.071 70.496H639.207V86.624H596.071V70.496ZM597.607 107.36H646.375V124H576.999V34.4H644.711V51.04H597.607V107.36Z" fill="#E2E8F0"/>
</svg>
