<svg width="1920" height="121" viewBox="0 0 1920 121" fill="none" xmlns="http://www.w3.org/2000/svg">
<path fill-rule="evenodd" clip-rule="evenodd" d="M1920 60.458L1873.6 73.0534C1828.8 85.6488 1737.6 110.84 1646.4 118.397C1553.6 125.954 1462.4 115.878 1371.2 103.282C1280 90.687 1188.8 75.5725 1097.6 75.5725C1006.4 75.5725 913.6 90.687 822.4 88.1679C731.2 85.6488 640 65.4961 548.8 52.9007C457.6 40.3053 366.4 35.2672 273.6 47.8626C182.4 60.458 91.2 90.687 46.4 105.801L0 120.916V0H46.4C91.2 0 182.4 0 273.6 0C366.4 0 457.6 0 548.8 0C640 0 731.2 0 822.4 0C913.6 0 1006.4 0 1097.6 0C1188.8 0 1280 0 1371.2 0C1462.4 0 1553.6 0 1646.4 0C1737.6 0 1828.8 0 1873.6 0H1920V60.458Z" fill="#FEF08A"/>
</svg>
