<svg width="114" height="32" viewBox="0 0 114 32" fill="none" xmlns="http://www.w3.org/2000/svg">
<path d="M0 1.5C0 0.671573 0.671573 0 1.5 0H54.5C55.3284 0 56 0.671573 56 1.5C56 2.32843 55.3284 3 54.5 3H1.5C0.671574 3 0 2.32843 0 1.5Z" fill="white"/>
<path d="M10.104 26.288C8.776 26.288 7.552 26.08 6.432 25.664C5.328 25.232 4.36 24.624 3.528 23.84C2.712 23.056 2.072 22.136 1.608 21.08C1.16 20.024 0.936 18.864 0.936 17.6C0.936 16.336 1.16 15.176 1.608 14.12C2.072 13.064 2.72 12.144 3.552 11.36C4.384 10.576 5.36 9.976 6.48 9.56C7.6 9.128 8.832 8.912 10.176 8.912C11.664 8.912 13 9.16 14.184 9.656C15.384 10.152 16.392 10.872 17.208 11.816L14.712 14.12C14.104 13.48 13.44 13.008 12.72 12.704C12 12.384 11.216 12.224 10.368 12.224C9.552 12.224 8.808 12.352 8.136 12.608C7.464 12.864 6.88 13.232 6.384 13.712C5.904 14.192 5.528 14.76 5.256 15.416C5 16.072 4.872 16.8 4.872 17.6C4.872 18.384 5 19.104 5.256 19.76C5.528 20.416 5.904 20.992 6.384 21.488C6.88 21.968 7.456 22.336 8.112 22.592C8.784 22.848 9.52 22.976 10.32 22.976C11.088 22.976 11.832 22.856 12.552 22.616C13.288 22.36 14 21.936 14.688 21.344L16.896 24.152C15.984 24.84 14.92 25.368 13.704 25.736C12.504 26.104 11.304 26.288 10.104 26.288ZM13.344 23.648V17.336H16.896V24.152L13.344 23.648ZM18.2996 26L25.7876 9.2H29.6276L37.1396 26H33.0596L26.9156 11.168H28.4516L22.2836 26H18.2996ZM22.0436 22.4L23.0756 19.448H31.7156L32.7716 22.4H22.0436ZM38.8826 26V9.2H42.0986L52.0106 21.296H50.4506V9.2H54.2906V26H51.0986L41.1626 13.904H42.7226V26H38.8826ZM61.8414 15.968H69.9294V18.992H61.8414V15.968ZM62.1294 22.88H71.2734V26H58.2654V9.2H70.9614V12.32H62.1294V22.88ZM77.967 16.76H86.031V19.88H77.967V16.76ZM78.255 26H74.367V9.2H87.063V12.32H78.255V26ZM89.6951 26V9.2H96.9671C98.4711 9.2 99.7671 9.448 100.855 9.944C101.943 10.424 102.783 11.12 103.375 12.032C103.967 12.944 104.263 14.032 104.263 15.296C104.263 16.544 103.967 17.624 103.375 18.536C102.783 19.432 101.943 20.12 100.855 20.6C99.7671 21.08 98.4711 21.32 96.9671 21.32H91.8551L93.5831 19.616V26H89.6951ZM100.375 26L96.1751 19.904H100.327L104.575 26H100.375ZM93.5831 20.048L91.8551 18.224H96.7511C97.9511 18.224 98.8471 17.968 99.4391 17.456C100.031 16.928 100.327 16.208 100.327 15.296C100.327 14.368 100.031 13.648 99.4391 13.136C98.8471 12.624 97.9511 12.368 96.7511 12.368H91.8551L93.5831 10.52V20.048ZM107.344 26V9.2H111.232V26H107.344Z" fill="white"/>
</svg>
